<svg width="75" height="76" viewBox="0 0 75 76" fill="none" xmlns="http://www.w3.org/2000/svg">
<path d="M64.1375 70.4685H56.7258C56.1135 70.4821 55.5159 70.2799 55.0376 69.8973C54.5594 69.5146 54.2309 68.976 54.1097 68.3757C54.0482 68.0146 54.0662 67.6445 54.1626 67.2911C54.259 66.9378 54.4314 66.6098 54.6677 66.33C54.904 66.0502 55.1986 65.8253 55.5308 65.6712C55.8631 65.5171 56.225 65.4374 56.5912 65.4376H62.7452C63.3575 65.4512 63.9551 65.249 64.4334 64.8664C64.9116 64.4838 65.2401 63.9452 65.3613 63.3448C65.4228 62.9837 65.4047 62.6136 65.3084 62.2603C65.212 61.9069 65.0396 61.5789 64.8033 61.2991C64.567 61.0193 64.2724 60.7945 63.9402 60.6404C63.6079 60.4862 63.246 60.4065 62.8798 60.4068H40.9427C40.4396 60.3912 39.9507 60.5757 39.5834 60.9199C39.2161 61.2641 39.0003 61.7399 38.9832 62.243C38.9899 62.495 38.9461 62.7457 38.8543 62.9805C38.7625 63.2152 38.6246 63.4291 38.4487 63.6097C38.2729 63.7902 38.0626 63.9337 37.8304 64.0317C37.5982 64.1296 37.3486 64.18 37.0966 64.1799H32.0657C31.5654 64.1799 31.0855 64.3787 30.7317 64.7325C30.3779 65.0863 30.1792 65.5661 30.1792 66.0665V72.1211C29.173 71.4382 28.1668 70.754 27.1242 70.056C24.8986 68.7874 23.2189 66.7427 22.4065 64.3132C22.08 63.0414 22.1091 61.7043 22.4905 60.4479C22.872 59.1914 23.5913 58.0639 24.5698 57.1883C25.4713 56.4598 26.4704 55.8611 27.538 55.4099C28.3521 55.0644 29.1215 54.6218 29.8295 54.0918C30.9453 53.1315 31.7879 51.8937 32.272 50.5035C32.812 49.1567 32.9616 47.685 32.7035 46.2571C32.4455 44.8292 31.7903 43.5029 30.8131 42.4302L27.4172 39.0344C23.8302 39.0658 19.798 39.4482 16.4663 41.6756C11.8769 44.7444 8.18802 51.155 10.2305 56.1607L7.90126 57.1116C5.34558 50.8481 9.53629 43.2767 15.0702 39.584C18.0509 37.7254 21.4734 36.6956 24.9848 36.6007L24.771 36.3844C22.7543 35.8457 20.6711 35.5975 18.5843 35.6474C14.638 35.5994 10.8193 37.0446 7.89371 39.6934C3.42002 44.02 1.35359 51.7449 3.19111 57.2826C4.13202 60.0197 5.87655 62.4095 8.19682 64.1397C13.5295 68.2826 21.2154 71.1477 30.1842 72.4154V72.9839C30.1842 73.6511 30.4492 74.2909 30.921 74.7626C31.3927 75.2343 32.0325 75.4994 32.6996 75.4994H64.0029C64.6152 75.5129 65.2128 75.3107 65.6911 74.9281C66.1693 74.5455 66.4978 74.0069 66.619 73.4065C66.6805 73.0455 66.6624 72.6754 66.5661 72.322C66.4697 71.9687 66.2973 71.6406 66.061 71.3608C65.8247 71.081 65.5301 70.8562 65.1979 70.7021C64.8656 70.5479 64.5037 70.4682 64.1375 70.4685ZM25.1483 51.6028C26.149 51.6028 27.1087 51.2052 27.8163 50.4976C28.5239 49.79 28.9215 48.8303 28.9215 47.8296H31.4369C31.4349 49.4968 30.7717 51.0952 29.5928 52.2741C28.4139 53.453 26.8155 54.1162 25.1483 54.1182V51.6028ZM11.9423 62.5537L9.42687 60.0383L11.2053 58.2598L13.7207 60.7753L11.9423 62.5537Z" fill="#89072E"/>
<path d="M71.6836 65.4376C73.0729 65.4376 74.1991 64.3114 74.1991 62.9222C74.1991 61.5329 73.0729 60.4067 71.6836 60.4067C70.2944 60.4067 69.1682 61.5329 69.1682 62.9222C69.1682 64.3114 70.2944 65.4376 71.6836 65.4376Z" fill="#CA4353"/>
<path d="M64.1373 56.6334C65.5265 56.6334 66.6527 55.5072 66.6527 54.118C66.6527 52.7287 65.5265 51.6025 64.1373 51.6025C62.748 51.6025 61.6218 52.7287 61.6218 54.118C61.6218 55.5072 62.748 56.6334 64.1373 56.6334Z" fill="#CA4353"/>
<path d="M41.4986 51.6025C40.8315 51.6025 40.1916 51.8676 39.7199 52.3393C39.2482 52.811 38.9832 53.4508 38.9832 54.118C38.9832 54.7851 39.2482 55.4249 39.7199 55.8967C40.1916 56.3684 40.8315 56.6334 41.4986 56.6334H54.0757C54.7429 56.6334 55.3827 56.3684 55.8544 55.8967C56.3262 55.4249 56.5912 54.7851 56.5912 54.118C56.5912 53.4508 56.3262 52.811 55.8544 52.3393C55.3827 51.8676 54.7429 51.6025 54.0757 51.6025H41.4986Z" fill="#CA4353"/>
<path d="M5.05982 25.8015L5.56291 30.5556C5.58582 30.7692 5.67485 30.9703 5.81755 31.1308C5.96025 31.2913 6.14952 31.4033 6.35893 31.4511C6.56833 31.4989 6.78744 31.4801 6.98565 31.3974C7.18386 31.3146 7.35129 31.172 7.46458 30.9896L10.1624 26.6228C10.2762 26.4386 10.445 26.2949 10.645 26.2121C10.845 26.1292 11.066 26.1114 11.2767 26.1612L16.2698 27.3472C16.4791 27.3973 16.6988 27.3806 16.8981 27.2994C17.0973 27.2182 17.2662 27.0767 17.3809 26.8947C17.4957 26.7127 17.5505 26.4993 17.5378 26.2845C17.5251 26.0697 17.4454 25.8643 17.31 25.6971L14.3053 21.9805C14.1645 21.8059 14.0845 21.5902 14.0772 21.366C14.0699 21.1418 14.1359 20.9213 14.265 20.7379L16.2346 17.9521C16.3632 17.7697 16.4292 17.5506 16.4225 17.3275C16.4158 17.1045 16.3369 16.8897 16.1976 16.7154C16.0583 16.541 15.8662 16.4167 15.6501 16.3609C15.4341 16.3052 15.2058 16.3211 14.9996 16.4063L11.288 17.9408C11.0933 18.0214 10.8785 18.0406 10.6726 17.9956C10.4666 17.9506 10.2794 17.8437 10.136 17.6892L6.55902 13.8154C6.41624 13.6603 6.22929 13.5527 6.02342 13.5072C5.81755 13.4617 5.60267 13.4804 5.40779 13.5609C5.21292 13.6414 5.04745 13.7798 4.93371 13.9573C4.81998 14.1349 4.76347 14.343 4.77181 14.5537L4.97807 19.8185C4.98706 20.0283 4.93163 20.2359 4.81921 20.4133C4.7068 20.5907 4.54279 20.7294 4.34921 20.8109L0.63015 22.3465C0.425394 22.4328 0.254019 22.5829 0.141595 22.7746C0.0291721 22.9662 -0.0182724 23.1891 0.00634145 23.4099C0.0309553 23.6307 0.126308 23.8377 0.278171 23.9999C0.430035 24.162 0.630268 24.2708 0.848992 24.3098L4.20961 24.8909C4.43132 24.929 4.63445 25.0387 4.78798 25.2031C4.9415 25.3675 5.03698 25.5777 5.05982 25.8015Z" fill="#CA4353"/>
<path d="M22.6326 6.32471H20.1172V8.84014H22.6326V6.32471Z" fill="#CA4353"/>
<path d="M20.1172 8.84033H17.6018V11.3558H20.1172V8.84033Z" fill="#CA4353"/>
<path d="M25.1482 8.84033H22.6328V11.3558H25.1482V8.84033Z" fill="#CA4353"/>
<path d="M22.6326 11.356H20.1172V13.8714H22.6326V11.356Z" fill="#CA4353"/>
<path d="M25.1482 21.4175H22.6328V23.9329H25.1482V21.4175Z" fill="#CA4353"/>
<path d="M29.1838 33.2577L27.189 35.2524L31.6988 39.7623L33.6936 37.7675L29.1838 33.2577Z" fill="#89072E"/>
<path d="M53.1949 19.7536L65.1784 4.36164C65.3666 4.1197 65.46 3.81736 65.441 3.51141C65.422 3.20547 65.292 2.91699 65.0753 2.7002L63.244 0.867703C63.0184 0.642379 62.7155 0.511191 62.3968 0.500684C62.0781 0.490176 61.7673 0.601134 61.5272 0.811106L47.8181 12.8059C41.1942 18.0288 35.447 24.2762 30.7937 31.312L35.6233 36.1416C42.2785 31.6027 48.2037 26.0766 53.1949 19.7536Z" fill="#89072E"/>
</svg>
