<svg width="75" height="56" viewBox="0 0 75 56" fill="none" xmlns="http://www.w3.org/2000/svg">
<path fill-rule="evenodd" clip-rule="evenodd" d="M46.5961 4.29177L46.225 4.1787C45.845 4.06476 45.5491 3.76544 45.4393 3.38423C45.3296 3.00301 45.4211 2.59222 45.6823 2.29363L46.5539 1.29736C46.7695 1.05095 47.0788 0.906487 47.4062 0.899293C47.4062 0.899293 56.2976 0.672426 65.5657 7.60736C65.6973 7.70575 65.8066 7.83089 65.8863 7.97448C65.8863 7.97448 75 24.3553 75 44.5326H74.0691C74.6112 44.6272 75.0189 44.8694 74.6345 45.4284C73.6142 46.9105 67.8865 54.6265 54.8788 55.0385C54.5208 55.0498 54.1775 54.8961 53.9476 54.6215C53.9476 54.6215 51.6996 51.9364 49.8261 49.626C49.5791 49.3213 49.5017 48.9127 49.6203 48.5389C49.6632 48.4038 49.7296 48.2797 49.8149 48.1717C48.5387 48.5181 47.278 48.8018 46.0277 49.0413C39.8909 50.1919 34.2656 49.8741 29.4643 48.9778C27.9163 48.6792 26.461 48.3339 25.0996 47.9526C25.2574 48.0911 25.3772 48.2717 25.4423 48.4777C25.5586 48.8462 25.485 49.2484 25.2455 49.5516C23.3673 51.9308 21.0508 54.6856 21.0508 54.6856C20.8209 54.9591 20.4783 55.1121 20.1212 55.1007C5.62838 54.6417 0.158851 45.1202 0.158851 45.1202L0 44.5326C0 24.3553 9.11365 7.97448 9.11365 7.97448C9.19409 7.82972 9.30448 7.70379 9.43738 7.60504C18.1724 1.11439 26.4618 0.902636 27.4654 0.898566L27.4667 0.898494C27.5377 0.898276 27.5741 0.899002 27.5741 0.899002C27.9182 0.900819 28.2438 1.05437 28.464 1.31858L29.0867 2.06575C29.3395 2.36914 29.4216 2.77978 29.305 3.15707C29.1883 3.53436 28.8886 3.82692 28.5087 3.93461C27.8278 4.12754 27.17 4.32701 26.5352 4.53143C27.803 4.29795 28.8161 4.16693 29.5207 4.08612C29.9208 4.01919 30.2625 3.95895 30.6571 3.9519C34.5244 3.44948 38.8934 3.32631 43.4563 3.83331C44.4905 3.95307 45.5377 4.10443 46.5961 4.29177ZM52.4348 3.9147C59.5329 6.86863 62.8679 10.0617 62.8679 10.0617C63.2918 10.4641 63.3524 11.1181 63.0095 11.5916C62.6667 12.0649 62.0265 12.2116 61.5119 11.9344C55.1806 8.5253 48.9714 6.82016 43.1934 6.15111C38.81 5.66402 34.6091 5.78596 30.8954 6.27297C30.8451 6.27958 30.7945 6.28293 30.7437 6.28293C30.4375 6.28293 30.1832 6.34041 29.877 6.39149L29.8177 6.39978C27.6901 6.64292 22.5238 7.37468 16.0133 10.2344C13.7696 11.2046 12.4349 11.9314 12.4349 11.9314C11.9222 12.2111 11.2816 12.0684 10.9361 11.5976C10.5905 11.1267 10.6466 10.4729 11.0672 10.0676C11.0672 10.0676 13.6012 7.60417 19.0244 5.0026C16.5974 5.90557 13.8452 7.26895 11.0345 9.32646C9.99532 11.2811 2.42883 26.1289 2.33386 44.1909C3.26262 45.5581 8.32863 52.1793 19.6323 52.7461C20.1806 52.0892 21.2687 50.7788 22.3767 49.4056C15.1767 46.7465 12.4364 42.1494 12.4364 42.1494C12.1499 41.6779 12.233 41.0702 12.6355 40.6928C13.038 40.3155 13.6498 40.2719 14.1018 40.5881C14.1018 40.5881 14.6886 40.9968 15.7432 41.5827L15.7156 41.5755C15.7863 41.6056 15.8631 41.6414 15.9473 41.6835C15.9905 41.7051 16.0324 41.7294 16.0726 41.7562C16.2393 41.8673 16.4061 41.9289 16.5727 42.0296C18.0741 42.8692 19.5755 43.5287 20.9784 44.0779C23.4684 45.1103 26.4447 46.0195 29.8993 46.6862C34.4452 47.5347 39.779 47.8396 45.5934 46.7494C48.4446 46.2034 51.357 45.416 54.3902 44.1421L54.4358 44.1241C56.5437 43.3412 58.8919 42.1958 61.3612 40.5696C61.8181 40.2688 62.4227 40.3259 62.8152 40.707C63.2077 41.0881 63.2825 41.6908 62.9951 42.1563C62.9951 42.1563 60.1432 46.8638 52.7207 49.4833C53.7982 50.7976 54.837 52.0465 55.3685 52.6839C66.554 52.1232 71.6423 45.6357 72.6661 44.1724C72.5673 26.1112 64.996 11.2641 63.9637 9.32318C59.684 6.17066 55.5131 4.64871 52.4348 3.9147ZM48.6149 23.8761C44.4392 23.8761 41.0971 27.4232 41.0971 31.8919C41.0971 36.3605 44.5125 39.9079 48.6149 39.9079C52.7905 39.9079 56.1326 36.3605 56.1326 31.8919C56.1326 27.4232 52.7173 23.8761 48.6149 23.8761ZM25.8869 23.8761C21.7112 23.8761 18.3692 27.4232 18.3692 31.8919C18.3692 36.3605 21.7844 39.9079 25.8869 39.9079C30.0625 39.9079 33.4046 36.3605 33.4046 31.8919C33.4778 27.4367 30.0678 23.8761 25.8869 23.8761ZM25.8869 26.2088C28.8047 26.2088 31.1233 28.7502 31.0721 31.8728C31.072 35.0202 28.81 37.5752 25.8869 37.5752C23.015 37.5752 20.7018 35.0202 20.7018 31.8919C20.7018 28.7637 22.9638 26.2088 25.8869 26.2088ZM48.6149 26.2088C51.4867 26.2088 53.8 28.7637 53.8 31.8919C53.8 35.0202 51.538 37.5752 48.6149 37.5752C45.743 37.5752 43.4297 35.0202 43.4297 31.8919C43.4297 28.7637 45.6917 26.2088 48.6149 26.2088Z" fill="#89072E"/>
</svg>
