<svg width="96" height="145" viewBox="0 0 96 145" fill="none" xmlns="http://www.w3.org/2000/svg">
<g filter="url(#filter0_d)">
<path d="M79.5505 91.0789C80.7009 100.177 79.7883 110.155 75.1151 117.537C72.3016 121.981 68.1039 125.53 62.0262 127.445C55.9086 129.373 47.7465 129.685 36.9858 127.372C36.3155 127.228 35.6649 127.071 35.0339 126.902L79.5505 91.0789ZM36.0843 107.561L44.4561 79.3736L77.7051 87.3035L30.9185 124.952L36.0823 107.566L36.0856 107.565L36.0843 107.561ZM20.455 75.1917L31.7174 107.654L27.0096 123.504C25.8102 122.752 24.7285 121.927 23.7558 121.035C20.5987 118.144 18.4888 114.471 17.2744 110.139C14.8254 101.399 16.0561 90.0867 19.6829 77.7253C19.9298 76.8844 20.1872 76.0396 20.455 75.1917ZM40.4041 78.4075L33.7464 100.823L24.6671 74.6543L40.4041 78.4075ZM59.1637 50.8219C61.6996 56.64 64.5536 62.3246 67.6394 67.8848C68.9328 70.2152 70.2674 72.5246 71.6444 74.8099C73.2919 77.5449 74.9968 80.2463 76.7677 82.9069L23.7172 70.2546L59.1533 50.7972L59.1637 50.8219ZM23.8884 65.5055C30.7859 47.8526 41.141 29.7894 50.5528 16C50.4424 19.123 50.7076 22.4064 51.255 25.7623C52.3681 32.5792 54.6714 39.8636 57.5646 47.0148L23.8884 65.5055Z" fill="#C1DAFF"/>
</g>
<defs>
<filter id="filter0_d" x="0" y="0" width="96" height="145" filterUnits="userSpaceOnUse" color-interpolation-filters="sRGB">
<feFlood flood-opacity="0" result="BackgroundImageFix"/>
<feColorMatrix in="SourceAlpha" type="matrix" values="0 0 0 0 0 0 0 0 0 0 0 0 0 0 0 0 0 0 127 0"/>
<feOffset/>
<feGaussianBlur stdDeviation="8"/>
<feColorMatrix type="matrix" values="0 0 0 0 0.192157 0 0 0 0 0.352941 0 0 0 0 0.588235 0 0 0 0.5 0"/>
<feBlend mode="normal" in2="BackgroundImageFix" result="effect1_dropShadow"/>
<feBlend mode="normal" in="SourceGraphic" in2="effect1_dropShadow" result="shape"/>
</filter>
</defs>
</svg>
