<svg width="64" height="90" viewBox="0 0 64 90" fill="none" xmlns="http://www.w3.org/2000/svg">
<g filter="url(#filter0_d)">
<path d="M47.7753 54.5361C48.3504 59.2062 47.8941 64.3271 45.5575 68.1163C44.1508 70.3971 42.0519 72.2188 39.0131 73.2018C35.9543 74.1912 31.8732 74.3516 26.4929 73.1646C26.1578 73.0906 25.8325 73.0101 25.5169 72.923L47.7753 54.5361ZM26.0421 62.9957L30.2281 48.528L46.8526 52.5983L23.4593 71.9222L26.0412 62.9986L26.0428 62.998L26.0421 62.9957ZM18.2275 46.3816L23.8587 63.0436L21.5048 71.1792C20.9051 70.7932 20.3642 70.3694 19.8779 69.912C18.2994 68.428 17.2444 66.5427 16.6372 64.319C15.4127 59.8331 16.0281 54.0268 17.8414 47.682C17.9649 47.2504 18.0936 46.8168 18.2275 46.3816ZM28.2021 48.0322L24.8732 59.5374L20.3335 46.1058L28.2021 48.0322ZM37.5819 33.8732C38.8498 36.8595 40.2768 39.7773 41.8197 42.6311C42.4664 43.8273 43.1337 45.0126 43.8222 46.1856C44.6459 47.5894 45.4984 48.976 46.3839 50.3416L19.8586 43.8475L37.5766 33.8605L37.5819 33.8732ZM19.9442 41.4099C23.393 32.3491 28.5705 23.0777 33.2764 16C33.2212 17.603 33.3538 19.2882 33.6275 21.0107C34.1841 24.5097 35.3357 28.2486 36.7823 31.9191L19.9442 41.4099Z" fill="#C1DAFF"/>
</g>
<defs>
<filter id="filter0_d" x="0" y="0" width="64" height="90" filterUnits="userSpaceOnUse" color-interpolation-filters="sRGB">
<feFlood flood-opacity="0" result="BackgroundImageFix"/>
<feColorMatrix in="SourceAlpha" type="matrix" values="0 0 0 0 0 0 0 0 0 0 0 0 0 0 0 0 0 0 127 0"/>
<feOffset/>
<feGaussianBlur stdDeviation="8"/>
<feColorMatrix type="matrix" values="0 0 0 0 0.192157 0 0 0 0 0.352941 0 0 0 0 0.588235 0 0 0 0.5 0"/>
<feBlend mode="normal" in2="BackgroundImageFix" result="effect1_dropShadow"/>
<feBlend mode="normal" in="SourceGraphic" in2="effect1_dropShadow" result="shape"/>
</filter>
</defs>
</svg>
