<svg width="75" height="29" viewBox="0 0 75 29" fill="none" xmlns="http://www.w3.org/2000/svg">
<path d="M5.6097 3.31766L7.03775 4.74571C5.96671 5.71474 5.10818 6.74328 4.46216 7.83131C3.81614 8.91935 3.34862 10.0754 3.05961 11.2994C2.7706 12.5065 2.6261 13.8325 2.6261 15.2776C2.6261 16.6886 2.7706 18.0147 3.05961 19.2557C3.34862 20.4797 3.81614 21.6273 4.46216 22.6983C5.10818 23.7693 5.96671 24.7979 7.03775 25.7839L5.6097 27.212C3.75664 25.7159 2.35409 23.9734 1.40206 21.9843C0.467027 19.9782 -0.000488281 17.7426 -0.000488281 15.2776C-0.000488281 12.7955 0.467027 10.5514 1.40206 8.54534C2.35409 6.53927 3.75664 4.79671 5.6097 3.31766Z" fill="#89072E"/>
<path d="M15.8228 0.767578C18.3049 0.767578 20.3959 1.17559 22.096 1.99162C23.8131 2.79065 25.0286 3.98069 25.7426 5.56174H23.9576C23.3625 4.64371 22.402 3.92118 21.076 3.39417C19.7669 2.86715 18.0244 2.60364 15.8483 2.60364C14.0462 2.60364 12.4397 2.84165 11.0286 3.31766C9.61758 3.77668 8.56355 4.5247 7.86652 5.56174H6.08146C6.94849 3.86168 8.24054 2.63764 9.95759 1.88962C11.6577 1.14159 13.6127 0.767578 15.8228 0.767578Z" fill="#89072E"/>
<path d="M21.9175 14.028C21.0335 14.028 20.2429 13.841 19.5459 13.467C18.8489 13.093 18.3049 12.583 17.9139 11.937C17.5398 11.2739 17.3528 10.5089 17.3528 9.64188C17.3528 8.79185 17.5398 8.03532 17.9139 7.3723C18.3049 6.70928 18.8489 6.19926 19.5459 5.84225C20.2429 5.46824 21.0335 5.28123 21.9175 5.28123C22.8355 5.28123 23.6346 5.46824 24.3146 5.84225C24.9946 6.19926 25.5301 6.70928 25.9211 7.3723C26.3121 8.03532 26.5076 8.79185 26.5076 9.64188C26.5076 10.5089 26.3121 11.2739 25.9211 11.937C25.5301 12.583 24.9946 13.093 24.3146 13.467C23.6346 13.841 22.8355 14.028 21.9175 14.028ZM21.9175 12.0135C22.6315 12.0135 23.2095 11.7924 23.6516 11.3504C24.0936 10.8914 24.3146 10.3219 24.3146 9.64188C24.3146 8.94485 24.0936 8.37533 23.6516 7.93332C23.2095 7.4913 22.6315 7.2703 21.9175 7.2703C21.2375 7.2703 20.668 7.4913 20.2089 7.93332C19.7669 8.37533 19.5459 8.94485 19.5459 9.64188C19.5459 10.3219 19.7669 10.8914 20.2089 11.3504C20.668 11.7924 21.2375 12.0135 21.9175 12.0135Z" fill="#89072E"/>
<path d="M36.3229 28.232C33.8578 28.232 31.7667 27.824 30.0497 27.008C28.3326 26.2089 27.1171 25.0189 26.4031 23.4378H28.1881C28.7831 24.3559 29.7437 25.0784 31.0697 25.6054C32.3958 26.1324 34.1383 26.3959 36.2974 26.3959C38.1164 26.3959 39.723 26.1579 41.117 25.6819C42.5281 25.2229 43.5821 24.4749 44.2792 23.4378H46.0642C45.1972 25.1379 43.9051 26.3619 42.1881 27.11C40.488 27.858 38.533 28.232 36.3229 28.232Z" fill="#89072E"/>
<path d="M41.0915 22.6218C40.2075 22.6218 39.3745 22.4943 38.5925 22.2393C37.8104 21.9673 37.1219 21.6188 36.5269 21.1938L37.3684 19.5107C37.8784 19.8847 38.465 20.1907 39.128 20.4287C39.791 20.6497 40.4115 20.7602 40.9895 20.7602C43.0806 20.7602 44.1261 19.7317 44.1261 17.6746C44.1261 16.4676 43.7096 15.4051 42.8766 14.487C42.0606 13.552 40.896 12.8465 39.383 12.3705V2.98615H41.6271V11.1974C42.8171 11.7414 43.7606 12.379 44.4577 13.11C45.1547 13.841 45.6562 14.606 45.9622 15.4051C46.2682 16.2041 46.4212 16.9861 46.4212 17.7511C46.4212 19.2642 45.9707 20.4542 45.0697 21.3213C44.1686 22.1883 42.8426 22.6218 41.0915 22.6218Z" fill="#89072E"/>
<path d="M55.2694 0.767578C57.7515 0.767578 59.8426 1.17559 61.5426 1.99162C63.2597 2.79065 64.4752 3.98069 65.1893 5.56174H63.4042C62.8092 4.64371 61.8486 3.92118 60.5226 3.39417C59.2136 2.86715 57.471 2.60364 55.2949 2.60364C53.4929 2.60364 51.8863 2.84165 50.4753 3.31766C49.0642 3.77668 48.0102 4.5247 47.3132 5.56174H45.5281C46.3951 3.86168 47.6872 2.63764 49.4042 1.88962C51.1043 1.14159 53.0593 0.767578 55.2694 0.767578Z" fill="#89072E"/>
<path d="M61.3641 14.028C60.4801 14.028 59.6896 13.841 58.9925 13.467C58.2955 13.093 57.7515 12.583 57.3605 11.937C56.9865 11.2739 56.7995 10.5089 56.7995 9.64188C56.7995 8.79185 56.9865 8.03532 57.3605 7.3723C57.7515 6.70928 58.2955 6.19926 58.9925 5.84225C59.6896 5.46824 60.4801 5.28123 61.3641 5.28123C62.2822 5.28123 63.0812 5.46824 63.7612 5.84225C64.4412 6.19926 64.9767 6.70928 65.3678 7.3723C65.7588 8.03532 65.9543 8.79185 65.9543 9.64188C65.9543 10.5089 65.7588 11.2739 65.3678 11.937C64.9767 12.583 64.4412 13.093 63.7612 13.467C63.0812 13.841 62.2822 14.028 61.3641 14.028ZM61.3641 12.0135C62.0782 12.0135 62.6562 11.7924 63.0982 11.3504C63.5402 10.8914 63.7612 10.3219 63.7612 9.64188C63.7612 8.94485 63.5402 8.37533 63.0982 7.93332C62.6562 7.4913 62.0782 7.2703 61.3641 7.2703C60.6841 7.2703 60.1146 7.4913 59.6556 7.93332C59.2136 8.37533 58.9925 8.94485 58.9925 9.64188C58.9925 10.3219 59.2136 10.8914 59.6556 11.3504C60.1146 11.7924 60.6841 12.0135 61.3641 12.0135Z" fill="#89072E"/>
<path d="M69.3893 27.212L67.9613 25.7839C69.0323 24.8149 69.8908 23.7863 70.5369 22.6983C71.1829 21.6103 71.6504 20.4627 71.9394 19.2557C72.2284 18.0317 72.3729 16.6971 72.3729 15.2521C72.3729 13.841 72.2284 12.5235 71.9394 11.2994C71.6504 10.0584 71.1829 8.90235 70.5369 7.83131C69.8908 6.76028 69.0323 5.73175 67.9613 4.74571L69.3893 3.31766C71.2424 4.81371 72.6364 6.56477 73.5715 8.57084C74.5235 10.5599 74.9995 12.787 74.9995 15.2521C74.9995 17.7341 74.5235 19.9782 73.5715 21.9843C72.6364 23.9904 71.2424 25.7329 69.3893 27.212Z" fill="#89072E"/>
</svg>
