<svg
  width="100%"
  height="100%"
  viewBox="0 0 100 100"
  version="1.1"
  xmlns="http://www.w3.org/2000/svg"
  xmlns:xlink="http://www.w3.org/1999/xlink"
  xml:space="preserve"
  xmlns:serif="http://www.serif.com/"
  style="
    fill-rule: evenodd;
    clip-rule: evenodd;
    stroke-linejoin: round;
    stroke-miterlimit: 2;
  "
>
  <g transform="matrix(1.5625,0,0,1.5625,0,-12.5)">
    <g transform="matrix(1,0,0,1,0,8)">
      <path
        d="M28,35.382C28,35.94 28.132,36.5 28.382,37C28.999,38.233 30.239,39 31.618,39L32.382,39C33.761,39 35.001,38.233 35.618,37C35.868,36.5 36,35.94 36,35.382L36,33L28,33L28,35.382ZM30,35L34,35L34,35.382C34,35.632 33.941,35.882 33.829,36.106C33.554,36.657 32.999,37 32.382,37L31.618,37C31.001,37 30.446,36.657 30.171,36.105C30.059,35.882 30,35.632 30,35.382L30,35Z"
        style="fill: rgb(87, 6, 30); fill-rule: nonzero"
      />
    </g>
    <g transform="matrix(1,0,0,1,0,8)">
      <path
        d="M30.565,29.105L30.894,28.447L29.105,27.552L28.776,28.21C28.533,28.697 28.044,29 27.5,29C26.956,29 26.467,28.697 26.224,28.211L25.895,27.553L24.106,28.448L24.435,29.106C25.019,30.274 26.193,31 27.5,31C28.807,31 29.981,30.274 30.565,29.105Z"
        style="fill: rgb(87, 6, 30); fill-rule: nonzero"
      />
    </g>
    <g transform="matrix(1,0,0,1,0,8)">
      <path
        d="M39.565,29.105L39.894,28.447L38.105,27.552L37.776,28.21C37.533,28.697 37.044,29 36.5,29C35.956,29 35.467,28.697 35.224,28.211L34.895,27.553L33.106,28.448L33.435,29.106C34.019,30.274 35.193,31 36.5,31C37.807,31 38.981,30.274 39.565,29.105Z"
        style="fill: rgb(87, 6, 30); fill-rule: nonzero"
      />
    </g>
    <g transform="matrix(1,0,0,1,0,8)">
      <path
        d="M61.365,25.791C62.421,24.23 63,22.39 63,20.485C63,15.255 58.745,11 53.515,11L52.95,11C52.442,5.402 47.728,1 42,1L41.508,1C39.02,1 36.579,1.856 34.636,3.41L33.415,4.387C30.735,2.205 27.369,1 23.91,1C16.712,1 10.599,6.019 9.161,13.015C4.616,13.282 1,17.064 1,21.676C1,23.25 1.442,24.77 2.245,26.113C1.481,26.842 1,27.863 1,29C1,40.651 8.917,50.674 20.252,53.373L22,53.79L22,63L42,63L42,53.79L43.748,53.373C55.083,50.674 63,40.651 63,29C63,27.682 62.351,26.52 61.365,25.791ZM60.711,32.592L56.8,31.474C56.92,30.664 57,29.842 57,29C57,27.897 57.897,27 59,27C60.103,27 61,27.897 61,29C61,30.22 60.894,31.418 60.711,32.592ZM3,29C3,27.897 3.897,27 5,27C6.103,27 7,27.897 7,29C7,29.842 7.08,30.664 7.2,31.474L3.289,32.592C3.106,31.418 3,30.22 3,29ZM15.536,26.714C15.991,26.894 16.482,27 17,27L21,27L21,29L20,29C18.346,29 17,30.346 17,32C17,33.654 18.346,35 20,35L21.426,35C22.307,38.1 24.513,40.64 27.394,41.976L26.725,43.314C26.538,43.684 26.136,43.895 25.726,43.861L22.027,43.472C14.601,42.689 9,36.469 9,29C9,28.996 8.999,28.993 8.999,28.989C11.367,28.938 13.654,28.139 15.536,26.714ZM43,31L44,31C44.552,31 45,31.448 45,32C45,32.552 44.552,33 44,33L42.949,33C42.979,32.67 43,32.338 43,32L43,31ZM35.306,43.85L32,45.834L28.694,43.85L29.294,42.649C30.161,42.87 31.065,43 32,43C32.935,43 33.839,42.87 34.706,42.649L35.306,43.85ZM32,41C27.037,41 23,36.963 23,32L23,27L41,27L41,32C41,36.963 36.963,41 32,41ZM21.051,33L20,33C19.448,33 19,32.552 19,32C19,31.448 19.448,31 20,31L21,31L21,32C21,32.338 21.021,32.67 21.051,33ZM27.404,45.408L30.757,47.42L27.782,48.61L27.264,45.498C27.313,45.472 27.357,45.437 27.404,45.408ZM31.82,53L32.181,53L33.781,61L30.22,61L31.82,53ZM32.465,51L31.535,51L30.621,49.629L32,49.077L33.379,49.629L32.465,51ZM33.243,47.42L36.594,45.41C36.642,45.44 36.687,45.474 36.736,45.501L36.218,48.611L33.243,47.42ZM38.272,43.86C37.866,43.894 37.459,43.683 37.274,43.313L36.605,41.975C39.487,40.64 41.692,38.1 42.574,35L44,35C45.654,35 47,33.654 47,32C47,30.346 45.654,29 44,29L43,29L43,27L47,27C47.518,27 48.009,26.894 48.464,26.714C50.347,28.139 52.634,28.938 55.001,28.989C55.001,28.993 55,28.996 55,29C55,36.469 49.399,42.689 41.973,43.472L38.272,43.86ZM3,21.676C3,17.995 5.995,15 9.676,15L10.847,15L11.029,13.912C12.082,7.589 17.5,3 23.91,3C26.959,3 29.928,4.075 32.27,6.027L34.36,7.768L35.639,6.231L34.99,5.69L35.886,4.973C37.475,3.7 39.472,3 41.508,3L42,3C46.625,3 50.442,6.507 50.941,11L49,11L49,13L53.515,13C57.643,13 61,16.357 61,20.485C61,22.141 60.448,23.739 59.445,25.045C59.297,25.028 59.152,25 59,25C57.526,25 56.25,25.81 55.556,27L55.242,27C53.417,27 51.644,26.451 50.137,25.452C50.669,24.773 51,23.928 51,23C51,20.794 49.206,19 47,19L45,19L45,21L47,21C48.103,21 49,21.897 49,23C49,24.103 48.103,25 47,25L17,25C15.897,25 15,24.103 15,23C15,21.897 15.897,21 17,21L19,21L19,19L17,19C14.794,19 13,20.794 13,23C13,23.928 13.331,24.773 13.863,25.452C12.356,26.451 10.582,27 8.758,27L8.444,27C7.75,25.81 6.474,25 5,25C4.649,25 4.314,25.06 3.989,25.145C3.35,24.098 3,22.909 3,21.676ZM20.715,51.428C12.145,49.388 5.708,42.794 3.682,34.561L7.606,33.439C9.378,39.85 14.898,44.732 21.819,45.46L25.292,45.825L26.219,51.39L28.724,50.388L29.939,52.21L28.18,61L24,61L24,52.21L20.715,51.428ZM43.285,51.428L40,52.21L40,61L35.82,61L34.062,52.21L35.277,50.388L37.782,51.39L38.709,45.825L42.182,45.46C49.103,44.732 54.622,39.849 56.395,33.439L60.319,34.561C58.292,42.794 51.855,49.387 43.285,51.428Z"
        style="fill: rgb(87, 6, 30); fill-rule: nonzero"
      />
    </g>
  </g>
  <g
    transform="matrix(0.0439174,0.0433997,-0.0433997,0.0439174,69.8541,14.5815)"
  >
    <path
      d="M108.4,0L131.4,0L131.4,22.8L152.6,22.8L152.6,0L175.6,0L175.6,69L152.6,69L152.6,46L131.6,46L131.6,69L108.4,69M206,23L185.7,23L185.7,0L249.4,0L249.4,23L229,23L229,69L206,69M259.5,0L283.6,0L298.4,24.3L313.2,0L337.3,0L337.3,69L314.3,69L314.3,34.8L298.2,59.6L282.1,34.8L282.1,69L259.5,69M348.7,0L371.7,0L371.7,46.2L404.3,46.2L404.3,69L348.7,69"
      style="fill: rgb(202, 67, 83); fill-rule: nonzero"
    />
  </g>
  <g transform="matrix(1.5625,0,0,1.5625,9.51915,-48.8369)">
    <g transform="matrix(0.0025737,0,0,0.0025737,-1.45953,47.5296)">
      <path
        d="M1594.59,478.473C1656.31,443.145 1736.7,442.985 1798.36,478.473C2108.6,653.774 2418.94,828.801 2729.12,1004.21C2787.47,1037.07 2826.49,1102 2825.9,1169.23L2825.9,2223.91C2826.33,2293.92 2783.45,2360.4 2721.9,2392.52C2412.68,2566.85 2103.62,2741.4 1794.45,2915.73C1731.46,2951.75 1649.45,2948.98 1588.42,2910.01C1495.72,2856.27 1402.86,2802.79 1310.14,2749.1C1291.2,2737.81 1269.84,2728.82 1256.46,2710.45C1268.29,2694.51 1289.44,2692.53 1306.62,2685.57C1345.31,2673.26 1380.85,2653.51 1416.4,2634.34C1425.39,2628.19 1436.37,2630.55 1444.98,2636.05C1524.26,2681.51 1602.83,2728.28 1682.37,2773.3C1699.34,2783.09 1716.52,2770.09 1731.02,2762C2034.46,2590.5 2338.27,2419.65 2641.66,2248.1C2652.9,2242.69 2659.12,2230.76 2658.2,2218.45C2658.41,1870.53 2658.26,1522.55 2658.31,1174.63C2659.59,1160.66 2651.51,1147.82 2638.88,1142.1C2330.73,968.562 2022.74,794.759 1714.65,621.177C1703.72,613.665 1689.3,613.644 1678.35,621.124C1370.26,794.758 1062.33,968.721 754.231,1142.25C741.642,1147.98 733.194,1160.61 734.692,1174.63C734.745,1522.55 734.692,1870.53 734.692,2218.5C733.598,2230.81 740.284,2242.49 751.447,2247.78C833.663,2294.4 915.986,2340.7 998.255,2387.16C1044.6,2412.11 1101.51,2426.93 1152.57,2407.82C1197.63,2391.66 1229.22,2345.67 1228.36,2297.83C1228.79,1951.94 1228.15,1606 1228.68,1260.17C1227.55,1244.81 1242.12,1232.13 1257.05,1233.57C1296.55,1233.3 1336.11,1233.04 1375.61,1233.68C1392.1,1233.3 1403.45,1249.84 1401.41,1265.31C1401.25,1613.38 1401.84,1961.47 1401.14,2309.55C1401.25,2402.31 1363.14,2503.25 1277.33,2548.64C1171.62,2603.4 1040.97,2591.79 936.533,2539.28C846.125,2494.16 759.849,2440.9 671.046,2392.56C609.338,2360.62 566.669,2293.87 567.103,2223.92L567.103,1169.23C566.456,1100.61 607.032,1034.5 667.192,1002.12C976.359,827.639 1285.47,653.029 1594.59,478.473Z"
        style="fill: rgb(202, 67, 83); fill-rule: nonzero"
      />
    </g>
    <g transform="matrix(0.0025737,0,0,0.0025737,-1.45953,47.5296)">
      <path
        d="M1864.3,1209.06C1999.14,1200.38 2143.49,1203.91 2264.83,1270.34C2358.78,1321.25 2410.86,1428.08 2412.52,1532.45C2409.9,1546.53 2395.18,1554.3 2381.74,1553.33C2342.62,1553.28 2303.49,1553.86 2264.37,1553.06C2247.77,1553.7 2238.12,1538.4 2236.04,1523.73C2224.8,1473.79 2197.57,1424.33 2150.56,1400.25C2078.41,1364.12 1994.75,1365.94 1916.07,1366.69C1858.63,1369.74 1796.87,1374.71 1748.2,1408.49C1710.85,1434.08 1699.5,1485.72 1712.83,1527.32C1725.4,1557.19 1759.88,1566.82 1788.09,1575.71C1950.59,1618.21 2122.79,1613.98 2282.18,1669.91C2348.18,1692.71 2412.74,1737.04 2435.32,1806.13C2464.87,1898.74 2451.92,2009.43 2386.03,2083.77C2332.6,2144.95 2254.78,2178.25 2177.17,2196.34C2073.91,2219.36 1966.76,2219.94 1861.9,2209.72C1763.3,2198.48 1660.7,2172.58 1584.58,2105.4C1519.49,2048.88 1487.7,1960.82 1490.86,1875.83C1491.61,1861.48 1505.9,1851.47 1519.65,1852.65C1559.05,1852.33 1598.44,1852.22 1637.84,1852.7C1653.58,1851.58 1665.24,1865.18 1666.05,1880.01C1673.32,1927.59 1691.2,1977.53 1732.69,2005.74C1812.76,2057.39 1913.23,2053.86 2004.92,2055.3C2080.87,2051.93 2166.14,2050.91 2228.12,2000.71C2260.83,1972.07 2270.52,1924.17 2261.68,1882.95C2252.11,1848.15 2215.7,1831.94 2184.45,1821.34C2024.03,1770.59 1849.91,1789.01 1691.04,1731.62C1626.55,1708.83 1564.18,1665.73 1539.4,1599.48C1504.83,1505.7 1520.67,1389.7 1593.46,1317.87C1664.44,1246.42 1766.89,1218.9 1864.31,1209.05L1864.31,1209.06L1864.3,1209.06Z"
        style="fill: rgb(202, 67, 83); fill-rule: nonzero"
      />
    </g>
  </g>
  <g transform="matrix(0.00683859,0,0,0.00683859,45.1005,0.668703)">
    <path
      d="M2825.89,2434.26C2807.59,2320.19 2733.21,2224.42 2512.91,2135.06C2436.39,2099.89 2351.08,2074.7 2325.65,2016.72C2316.62,1982.97 2315.43,1963.96 2321.14,1943.52C2337.53,1877.22 2416.67,1856.55 2479.41,1875.56C2519.8,1889.1 2558.07,1920.24 2581.12,1969.9C2689.01,1900.04 2688.77,1900.51 2764.1,1852.51C2736.54,1809.73 2721.8,1790.01 2703.74,1771.71C2638.87,1699.23 2550.46,1661.92 2409.06,1664.77C2384.59,1667.86 2359.88,1671.18 2335.39,1674.28C2264.82,1692.1 2197.56,1729.17 2158.11,1778.84C2039.77,1913.11 2073.51,2148.13 2217.52,2244.86C2359.4,2351.32 2567.81,2375.56 2594.43,2475.13C2620.33,2597.04 2504.84,2636.49 2390.05,2622.47C2305.45,2604.89 2258.4,2561.87 2207.54,2483.69C2113.91,2537.87 2113.91,2537.87 2017.67,2593.24C2040.48,2643.15 2064.48,2665.72 2102.74,2708.97C2283.83,2892.67 2737.01,2883.64 2818.29,2605.6C2821.61,2596.09 2843.48,2532.4 2825.89,2434.26ZM1889.58,1679.5L1655.74,1679.5C1655.74,1881.5 1654.79,2082.07 1654.79,2284.07C1654.79,2412.63 1661.44,2530.5 1640.53,2566.62C1606.31,2637.68 1517.67,2628.89 1477.27,2615.1C1436.16,2594.9 1415.25,2566.14 1391.01,2525.51C1384.35,2513.87 1379.36,2504.84 1377.69,2504.12C1314.25,2542.86 1251.03,2581.83 1187.58,2620.57C1219.19,2685.44 1265.77,2741.76 1325.41,2778.36C1414.53,2831.83 1534.3,2848.23 1659.54,2819.47C1741.05,2795.71 1811.39,2746.52 1848.23,2671.66C1901.46,2573.51 1890.05,2454.69 1889.58,2323.28C1890.77,2108.92 1889.58,1894.57 1889.58,1679.5Z"
      style="fill: rgb(202, 67, 83); fill-rule: nonzero"
    />
  </g>
  <g
    transform="matrix(0.0740283,0.0262059,-0.0262059,0.0740283,13.0898,9.01763)"
  >
    <path
      d="M191.985,77.316L191.985,57.049L221.556,57.049L221.556,34.871L169.807,34.871L169.807,97.554L221.556,97.554L221.556,77.316L191.985,77.316Z"
      style="fill: rgb(202, 67, 83); fill-rule: nonzero"
    />
    <path
      d="M274.751,57.049L295.424,57.049L295.424,34.871L243.671,34.871L243.671,57.049C250.594,63.973 254.206,67.287 264.219,77.301C258.366,77.301 243.671,77.322 243.671,77.32L243.671,97.554L295.424,97.554L295.424,77.316L274.751,57.049Z"
      style="fill: rgb(202, 67, 83); fill-rule: nonzero"
    />
    <path
      d="M348.104,57.049L368.776,57.049L368.776,34.871L317.02,34.871L317.02,57.049C323.943,63.973 327.557,67.287 337.57,77.301C331.719,77.301 317.02,77.322 317.02,77.32L317.02,97.554L368.776,97.554L368.776,77.316L348.104,57.049Z"
      style="fill: rgb(202, 67, 83); fill-rule: nonzero"
    />
  </g>
  <g transform="matrix(0.0912945,-0.020252,0.020252,0.0912945,23.5189,30.5902)">
    <path
      id="path46"
      d="M184.613,61.929C184.613,47.367 180.461,39.891 172.157,39.482C168.852,39.326 165.626,39.852 162.488,41.071C159.983,41.967 158.296,42.854 157.409,43.751L157.409,78.509C162.721,81.843 167.439,83.392 171.552,83.149C180.256,82.574 184.613,75.507 184.613,61.929ZM194.858,62.534C194.858,69.932 193.123,76.072 189.633,80.956C185.744,86.482 180.354,89.328 173.463,89.484C168.268,89.65 162.916,88.022 157.409,84.611L157.409,116.201L148.5,113.024L148.5,42.903C149.963,41.11 151.844,39.57 154.125,38.263C159.427,35.174 165.87,33.585 173.453,33.507L173.58,33.634C180.51,33.546 185.851,36.392 189.604,42.162C193.103,47.455 194.858,54.239 194.858,62.534Z"
      style="fill: rgb(202, 67, 83); fill-rule: nonzero"
    />
    <path
      id="path48"
      d="M249.305,83.266C249.305,93.188 248.311,100.06 246.322,103.881C244.324,107.702 240.523,110.753 234.908,113.024C230.357,114.817 225.434,115.792 220.151,115.957L218.68,110.343C224.05,109.612 227.832,108.881 230.025,108.15C234.343,106.688 237.306,104.446 238.934,101.444C240.24,98.998 240.883,94.329 240.883,87.418L240.883,85.098C234.791,87.866 228.407,89.241 221.73,89.241C217.344,89.241 213.475,87.866 210.141,85.098C206.398,82.086 204.527,78.265 204.527,73.636L204.527,36.558L213.436,33.507L213.436,70.828C213.436,74.815 214.722,77.885 217.295,80.039C219.869,82.194 223.202,83.227 227.286,83.149C231.37,83.061 235.747,81.482 240.396,78.392L240.396,34.852L249.305,34.852L249.305,83.266Z"
      style="fill: rgb(202, 67, 83); fill-rule: nonzero"
    />
    <path
      id="path50"
      d="M284.082,88.997C283.02,89.085 282.045,89.124 281.149,89.124C276.109,89.124 272.181,87.925 269.374,85.517C266.577,83.11 265.173,79.786 265.173,75.546L265.173,40.457L259.071,40.457L259.071,34.852L265.173,34.852L265.173,19.968L274.072,16.8L274.072,34.852L284.082,34.852L284.082,40.457L274.072,40.457L274.072,75.302C274.072,78.646 274.969,81.014 276.762,82.398C278.302,83.539 280.749,84.192 284.082,84.357L284.082,88.997Z"
      style="fill: rgb(202, 67, 83); fill-rule: nonzero"
    />
    <path
      id="path52"
      d="M338.023,88.266L329.114,88.266L329.114,53.878C329.114,50.379 328.295,47.367 326.668,44.852C324.786,42.006 322.174,40.583 318.821,40.583C314.737,40.583 309.63,42.737 303.499,47.046L303.499,88.266L294.59,88.266L294.59,6.069L303.499,3.262L303.499,40.7C309.191,36.558 315.41,34.482 322.164,34.482C326.882,34.482 330.703,36.07 333.627,39.238C336.561,42.406 338.023,46.354 338.023,51.071L338.023,88.266Z"
      style="fill: rgb(202, 67, 83); fill-rule: nonzero"
    />
    <path
      id="path54"
      d="M385.374,60.526C385.374,54.931 384.312,50.311 382.197,46.656C379.682,42.201 375.773,39.852 370.49,39.609C360.724,40.174 355.85,47.172 355.85,60.584C355.85,66.735 356.864,71.871 358.911,75.994C361.523,81.248 365.441,83.841 370.666,83.753C380.471,83.675 385.374,75.936 385.374,60.526ZM395.131,60.584C395.131,68.548 393.094,75.176 389.029,80.468C384.556,86.395 378.376,89.367 370.49,89.367C362.673,89.367 356.581,86.395 352.185,80.468C348.199,75.176 346.21,68.548 346.21,60.584C346.21,53.099 348.365,46.802 352.673,41.675C357.225,36.236 363.209,33.507 370.607,33.507C378.005,33.507 384.029,36.236 388.669,41.675C392.977,46.802 395.131,53.099 395.131,60.584Z"
      style="fill: rgb(202, 67, 83); fill-rule: nonzero"
    />
    <path
      id="path56"
      d="M446.206,88.266L437.297,88.266L437.297,51.929C437.297,47.942 436.098,44.833 433.7,42.591C431.303,40.359 428.105,39.277 424.119,39.365C419.889,39.443 415.863,40.827 412.042,43.507L412.042,88.266L403.133,88.266L403.133,42.406C408.26,38.673 412.978,36.236 417.286,35.096C421.351,34.033 424.938,33.507 428.028,33.507C430.143,33.507 432.131,33.712 434.002,34.121C437.502,34.93 440.348,36.431 442.541,38.634C444.987,41.071 446.206,43.995 446.206,47.416L446.206,88.266Z"
      style="fill: rgb(202, 67, 83); fill-rule: nonzero"
    />
  </g>
</svg>
