<svg width="1110" height="179" viewBox="0 0 1110 179" fill="none" xmlns="http://www.w3.org/2000/svg">
<rect width="150" height="179" rx="25" fill="#D0D0D0" fill-opacity="0.1"/>
<path d="M15.638 33V31.466C16.8687 30.4953 18.03 29.516 19.122 28.528C20.2313 27.5227 21.2107 26.5347 22.06 25.564C22.9267 24.5933 23.6027 23.64 24.088 22.704C24.5907 21.768 24.842 20.8667 24.842 20C24.842 19.3587 24.7293 18.7607 24.504 18.206C24.296 17.6513 23.9493 17.2093 23.464 16.88C22.9787 16.5333 22.32 16.36 21.488 16.36C20.6907 16.36 20.0233 16.542 19.486 16.906C18.9487 17.2527 18.5413 17.7207 18.264 18.31C18.004 18.8993 17.874 19.532 17.874 20.208H15.768C15.768 19.012 16.0193 17.9893 16.522 17.14C17.0247 16.2733 17.7093 15.6147 18.576 15.164C19.4427 14.7133 20.422 14.488 21.514 14.488C23.126 14.488 24.4433 14.9473 25.466 15.866C26.506 16.7673 27.026 18.1193 27.026 19.922C27.026 20.9967 26.7573 22.0627 26.22 23.12C25.6827 24.16 24.998 25.174 24.166 26.162C23.334 27.1327 22.4413 28.0427 21.488 28.892C20.552 29.7413 19.6767 30.504 18.862 31.18H27.65V33H15.638ZM31.8793 33L39.1073 16.672H29.1233V14.8H41.3433V16.438L34.1933 33H31.8793Z" fill="#F5F9FF" fill-opacity="0.1"/>
<rect x="160" width="150" height="179" rx="25" fill="#D0D0D0" fill-opacity="0.25"/>
<path d="M175.638 33V31.466C176.869 30.4953 178.03 29.516 179.122 28.528C180.231 27.5227 181.211 26.5347 182.06 25.564C182.927 24.5933 183.603 23.64 184.088 22.704C184.591 21.768 184.842 20.8667 184.842 20C184.842 19.3587 184.729 18.7607 184.504 18.206C184.296 17.6513 183.949 17.2093 183.464 16.88C182.979 16.5333 182.32 16.36 181.488 16.36C180.691 16.36 180.023 16.542 179.486 16.906C178.949 17.2527 178.541 17.7207 178.264 18.31C178.004 18.8993 177.874 19.532 177.874 20.208H175.768C175.768 19.012 176.019 17.9893 176.522 17.14C177.025 16.2733 177.709 15.6147 178.576 15.164C179.443 14.7133 180.422 14.488 181.514 14.488C183.126 14.488 184.443 14.9473 185.466 15.866C186.506 16.7673 187.026 18.1193 187.026 19.922C187.026 20.9967 186.757 22.0627 186.22 23.12C185.683 24.16 184.998 25.174 184.166 26.162C183.334 27.1327 182.441 28.0427 181.488 28.892C180.552 29.7413 179.677 30.504 178.862 31.18H187.65V33H175.638ZM196.377 33.312C195.181 33.312 194.107 33.0953 193.153 32.662C192.2 32.2113 191.446 31.596 190.891 30.816C190.354 30.0187 190.085 29.1 190.085 28.06C190.085 26.9507 190.406 25.954 191.047 25.07C191.706 24.186 192.573 23.5967 193.647 23.302C192.659 22.9727 191.897 22.444 191.359 21.716C190.822 20.988 190.553 20.1907 190.553 19.324C190.553 18.44 190.787 17.634 191.255 16.906C191.723 16.1607 192.391 15.5713 193.257 15.138C194.124 14.7047 195.164 14.488 196.377 14.488C197.591 14.488 198.631 14.7047 199.497 15.138C200.364 15.5713 201.031 16.1607 201.499 16.906C201.967 17.634 202.201 18.44 202.201 19.324C202.201 20.1733 201.933 20.9707 201.395 21.716C200.858 22.444 200.095 22.9727 199.107 23.302C200.182 23.5967 201.04 24.186 201.681 25.07C202.34 25.954 202.669 26.9507 202.669 28.06C202.669 29.1 202.392 30.0187 201.837 30.816C201.3 31.596 200.555 32.2113 199.601 32.662C198.648 33.0953 197.573 33.312 196.377 33.312ZM196.377 22.522C197.487 22.522 198.362 22.2447 199.003 21.69C199.662 21.118 199.991 20.3727 199.991 19.454C199.991 18.4313 199.671 17.66 199.029 17.14C198.388 16.62 197.504 16.36 196.377 16.36C195.251 16.36 194.367 16.62 193.725 17.14C193.101 17.66 192.789 18.4313 192.789 19.454C192.789 20.3727 193.11 21.118 193.751 21.69C194.393 22.2447 195.268 22.522 196.377 22.522ZM196.377 31.388C197.747 31.388 198.769 31.076 199.445 30.452C200.139 29.8107 200.485 28.97 200.485 27.93C200.485 26.7513 200.113 25.8587 199.367 25.252C198.622 24.6453 197.625 24.342 196.377 24.342C195.129 24.342 194.133 24.6453 193.387 25.252C192.642 25.8587 192.269 26.7513 192.269 27.93C192.269 28.97 192.607 29.8107 193.283 30.452C193.977 31.076 195.008 31.388 196.377 31.388Z" fill="#F5F9FF" fill-opacity="0.25"/>
<rect x="320" width="150" height="179" rx="25" fill="#89072E"/>
<path d="M347.601 74V57.2H350.673L358.569 69.032V57.2H361.641V74H358.569L350.673 62.192V74H347.601ZM370.61 74.288C369.41 74.288 368.346 74.032 367.418 73.52C366.49 73.008 365.762 72.288 365.234 71.36C364.706 70.432 364.442 69.36 364.442 68.144C364.442 66.912 364.698 65.816 365.21 64.856C365.738 63.896 366.458 63.152 367.37 62.624C368.298 62.08 369.386 61.808 370.634 61.808C371.802 61.808 372.834 62.064 373.73 62.576C374.626 63.088 375.322 63.792 375.818 64.688C376.33 65.568 376.586 66.552 376.586 67.64C376.586 67.816 376.578 68 376.562 68.192C376.562 68.384 376.554 68.584 376.538 68.792H367.49C367.554 69.72 367.874 70.448 368.45 70.976C369.042 71.504 369.754 71.768 370.586 71.768C371.21 71.768 371.73 71.632 372.146 71.36C372.578 71.072 372.898 70.704 373.106 70.256H376.226C376.002 71.008 375.626 71.696 375.098 72.32C374.586 72.928 373.946 73.408 373.178 73.76C372.426 74.112 371.57 74.288 370.61 74.288ZM370.634 64.304C369.882 64.304 369.218 64.52 368.642 64.952C368.066 65.368 367.698 66.008 367.538 66.872H373.466C373.418 66.088 373.13 65.464 372.602 65C372.074 64.536 371.418 64.304 370.634 64.304ZM384.262 74C383.014 74 382.014 73.696 381.262 73.088C380.51 72.48 380.134 71.4 380.134 69.848V64.664H378.094V62.096H380.134L380.494 58.904H383.206V62.096H386.422V64.664H383.206V69.872C383.206 70.448 383.326 70.848 383.566 71.072C383.822 71.28 384.254 71.384 384.862 71.384H386.35V74H384.262ZM391.388 74L387.908 62.096H390.956L393.02 70.664L395.42 62.096H398.828L401.228 70.664L403.316 62.096H406.364L402.86 74H399.668L397.124 65.096L394.58 74H391.388ZM413.592 74.288C412.44 74.288 411.4 74.024 410.472 73.496C409.56 72.968 408.832 72.24 408.288 71.312C407.76 70.368 407.496 69.28 407.496 68.048C407.496 66.816 407.768 65.736 408.312 64.808C408.856 63.864 409.584 63.128 410.496 62.6C411.424 62.072 412.464 61.808 413.616 61.808C414.752 61.808 415.776 62.072 416.688 62.6C417.616 63.128 418.344 63.864 418.872 64.808C419.416 65.736 419.688 66.816 419.688 68.048C419.688 69.28 419.416 70.368 418.872 71.312C418.344 72.24 417.616 72.968 416.688 73.496C415.76 74.024 414.728 74.288 413.592 74.288ZM413.592 71.624C414.392 71.624 415.088 71.328 415.68 70.736C416.272 70.128 416.568 69.232 416.568 68.048C416.568 66.864 416.272 65.976 415.68 65.384C415.088 64.776 414.4 64.472 413.616 64.472C412.8 64.472 412.096 64.776 411.504 65.384C410.928 65.976 410.64 66.864 410.64 68.048C410.64 69.232 410.928 70.128 411.504 70.736C412.096 71.328 412.792 71.624 413.592 71.624ZM422.435 74V62.096H425.171L425.459 64.328C425.891 63.56 426.475 62.952 427.211 62.504C427.963 62.04 428.843 61.808 429.851 61.808V65.048H428.987C428.315 65.048 427.715 65.152 427.187 65.36C426.659 65.568 426.243 65.928 425.939 66.44C425.651 66.952 425.507 67.664 425.507 68.576V74H422.435ZM431.951 74V56.72H435.023V66.92L439.247 62.096H442.895L438.023 67.52L443.687 74H439.847L435.023 68.024V74H431.951ZM389.184 99.336V96.768H393.696V92.616H396.312V96.768H400.8V99.336H396.312V103.488H393.696V99.336H389.184ZM351.391 136.288C350.159 136.288 349.071 136.08 348.127 135.664C347.183 135.232 346.439 134.624 345.895 133.84C345.351 133.04 345.071 132.072 345.055 130.936H348.295C348.327 131.72 348.607 132.384 349.135 132.928C349.679 133.456 350.423 133.72 351.367 133.72C352.183 133.72 352.831 133.528 353.311 133.144C353.791 132.744 354.031 132.216 354.031 131.56C354.031 130.872 353.815 130.336 353.383 129.952C352.967 129.568 352.407 129.256 351.703 129.016C350.999 128.776 350.247 128.52 349.447 128.248C348.151 127.8 347.159 127.224 346.471 126.52C345.799 125.816 345.463 124.88 345.463 123.712C345.447 122.72 345.679 121.872 346.159 121.168C346.655 120.448 347.327 119.896 348.175 119.512C349.023 119.112 349.999 118.912 351.103 118.912C352.223 118.912 353.207 119.112 354.055 119.512C354.919 119.912 355.591 120.472 356.071 121.192C356.567 121.912 356.831 122.768 356.863 123.76H353.575C353.559 123.168 353.327 122.648 352.879 122.2C352.447 121.736 351.839 121.504 351.055 121.504C350.383 121.488 349.815 121.656 349.351 122.008C348.903 122.344 348.679 122.84 348.679 123.496C348.679 124.056 348.855 124.504 349.207 124.84C349.559 125.16 350.039 125.432 350.647 125.656C351.255 125.88 351.951 126.12 352.735 126.376C353.567 126.664 354.327 127 355.015 127.384C355.703 127.768 356.255 128.28 356.671 128.92C357.087 129.544 357.295 130.352 357.295 131.344C357.295 132.224 357.071 133.04 356.623 133.792C356.175 134.544 355.511 135.152 354.631 135.616C353.751 136.064 352.671 136.288 351.391 136.288ZM365.616 136.288C364.464 136.288 363.424 136.024 362.496 135.496C361.584 134.968 360.856 134.24 360.312 133.312C359.784 132.368 359.52 131.28 359.52 130.048C359.52 128.816 359.792 127.736 360.336 126.808C360.88 125.864 361.608 125.128 362.52 124.6C363.448 124.072 364.488 123.808 365.64 123.808C366.776 123.808 367.8 124.072 368.712 124.6C369.64 125.128 370.368 125.864 370.896 126.808C371.44 127.736 371.712 128.816 371.712 130.048C371.712 131.28 371.44 132.368 370.896 133.312C370.368 134.24 369.64 134.968 368.712 135.496C367.784 136.024 366.752 136.288 365.616 136.288ZM365.616 133.624C366.416 133.624 367.112 133.328 367.704 132.736C368.296 132.128 368.592 131.232 368.592 130.048C368.592 128.864 368.296 127.976 367.704 127.384C367.112 126.776 366.424 126.472 365.64 126.472C364.824 126.472 364.12 126.776 363.528 127.384C362.952 127.976 362.664 128.864 362.664 130.048C362.664 131.232 362.952 132.128 363.528 132.736C364.12 133.328 364.816 133.624 365.616 133.624ZM380.29 136.288C379.074 136.288 378.002 136.024 377.074 135.496C376.146 134.968 375.41 134.232 374.866 133.288C374.338 132.344 374.074 131.264 374.074 130.048C374.074 128.832 374.338 127.752 374.866 126.808C375.41 125.864 376.146 125.128 377.074 124.6C378.002 124.072 379.074 123.808 380.29 123.808C381.81 123.808 383.09 124.208 384.13 125.008C385.17 125.792 385.834 126.88 386.122 128.272H382.882C382.722 127.696 382.402 127.248 381.922 126.928C381.458 126.592 380.906 126.424 380.266 126.424C379.418 126.424 378.698 126.744 378.106 127.384C377.514 128.024 377.218 128.912 377.218 130.048C377.218 131.184 377.514 132.072 378.106 132.712C378.698 133.352 379.418 133.672 380.266 133.672C380.906 133.672 381.458 133.512 381.922 133.192C382.402 132.872 382.722 132.416 382.882 131.824H386.122C385.834 133.168 385.17 134.248 384.13 135.064C383.09 135.88 381.81 136.288 380.29 136.288ZM390.505 122.248C389.945 122.248 389.481 122.08 389.113 121.744C388.761 121.408 388.585 120.984 388.585 120.472C388.585 119.96 388.761 119.544 389.113 119.224C389.481 118.888 389.945 118.72 390.505 118.72C391.065 118.72 391.521 118.888 391.873 119.224C392.241 119.544 392.425 119.96 392.425 120.472C392.425 120.984 392.241 121.408 391.873 121.744C391.521 122.08 391.065 122.248 390.505 122.248ZM388.969 136V124.096H392.041V136H388.969ZM399.352 136.288C398.328 136.288 397.488 136.128 396.832 135.808C396.176 135.472 395.688 135.032 395.368 134.488C395.048 133.944 394.888 133.344 394.888 132.688C394.888 131.584 395.32 130.688 396.184 130C397.048 129.312 398.344 128.968 400.072 128.968H403.096V128.68C403.096 127.864 402.864 127.264 402.4 126.88C401.936 126.496 401.36 126.304 400.672 126.304C400.048 126.304 399.504 126.456 399.04 126.76C398.576 127.048 398.288 127.48 398.176 128.056H395.176C395.256 127.192 395.544 126.44 396.04 125.8C396.552 125.16 397.208 124.672 398.008 124.336C398.808 123.984 399.704 123.808 400.696 123.808C402.392 123.808 403.728 124.232 404.704 125.08C405.68 125.928 406.168 127.128 406.168 128.68V136H403.552L403.264 134.08C402.912 134.72 402.416 135.248 401.776 135.664C401.152 136.08 400.344 136.288 399.352 136.288ZM400.048 133.888C400.928 133.888 401.608 133.6 402.088 133.024C402.584 132.448 402.896 131.736 403.024 130.888H400.408C399.592 130.888 399.008 131.04 398.656 131.344C398.304 131.632 398.128 131.992 398.128 132.424C398.128 132.888 398.304 133.248 398.656 133.504C399.008 133.76 399.472 133.888 400.048 133.888ZM409.099 136V118.72H412.171V136H409.099ZM416.966 122.248C416.406 122.248 415.942 122.08 415.574 121.744C415.222 121.408 415.046 120.984 415.046 120.472C415.046 119.96 415.222 119.544 415.574 119.224C415.942 118.888 416.406 118.72 416.966 118.72C417.526 118.72 417.982 118.888 418.334 119.224C418.702 119.544 418.886 119.96 418.886 120.472C418.886 120.984 418.702 121.408 418.334 121.744C417.982 122.08 417.526 122.248 416.966 122.248ZM415.43 136V124.096H418.502V136H415.43ZM420.94 136V133.528L427.012 126.64H421.012V124.096H430.516V126.568L424.348 133.456H430.636V136H420.94ZM438.977 136.288C437.777 136.288 436.713 136.032 435.785 135.52C434.857 135.008 434.129 134.288 433.601 133.36C433.073 132.432 432.809 131.36 432.809 130.144C432.809 128.912 433.065 127.816 433.577 126.856C434.105 125.896 434.825 125.152 435.737 124.624C436.665 124.08 437.753 123.808 439.001 123.808C440.169 123.808 441.201 124.064 442.097 124.576C442.993 125.088 443.689 125.792 444.185 126.688C444.697 127.568 444.953 128.552 444.953 129.64C444.953 129.816 444.945 130 444.929 130.192C444.929 130.384 444.921 130.584 444.905 130.792H435.857C435.921 131.72 436.241 132.448 436.817 132.976C437.409 133.504 438.121 133.768 438.953 133.768C439.577 133.768 440.097 133.632 440.513 133.36C440.945 133.072 441.265 132.704 441.473 132.256H444.593C444.369 133.008 443.993 133.696 443.465 134.32C442.953 134.928 442.313 135.408 441.545 135.76C440.793 136.112 439.937 136.288 438.977 136.288ZM439.001 126.304C438.249 126.304 437.585 126.52 437.009 126.952C436.433 127.368 436.065 128.008 435.905 128.872H441.833C441.785 128.088 441.497 127.464 440.969 127C440.441 126.536 439.785 126.304 439.001 126.304Z" fill="#F5F9FF"/>
<path d="M335.638 33V31.466C336.869 30.4953 338.03 29.516 339.122 28.528C340.231 27.5227 341.211 26.5347 342.06 25.564C342.927 24.5933 343.603 23.64 344.088 22.704C344.591 21.768 344.842 20.8667 344.842 20C344.842 19.3587 344.729 18.7607 344.504 18.206C344.296 17.6513 343.949 17.2093 343.464 16.88C342.979 16.5333 342.32 16.36 341.488 16.36C340.691 16.36 340.023 16.542 339.486 16.906C338.949 17.2527 338.541 17.7207 338.264 18.31C338.004 18.8993 337.874 19.532 337.874 20.208H335.768C335.768 19.012 336.019 17.9893 336.522 17.14C337.025 16.2733 337.709 15.6147 338.576 15.164C339.443 14.7133 340.422 14.488 341.514 14.488C343.126 14.488 344.443 14.9473 345.466 15.866C346.506 16.7673 347.026 18.1193 347.026 19.922C347.026 20.9967 346.757 22.0627 346.22 23.12C345.683 24.16 344.998 25.174 344.166 26.162C343.334 27.1327 342.441 28.0427 341.488 28.892C340.552 29.7413 339.677 30.504 338.862 31.18H347.65V33H335.638ZM356.555 33.312C355.411 33.312 354.432 33.0867 353.617 32.636C352.802 32.1853 352.152 31.5873 351.667 30.842C351.199 30.0793 350.913 29.2387 350.809 28.32H352.837C353.01 29.308 353.426 30.0707 354.085 30.608C354.744 31.1453 355.576 31.414 356.581 31.414C357.968 31.414 359.12 30.7727 360.039 29.49C360.958 28.19 361.452 26.1707 361.521 23.432C361.105 24.2467 360.438 24.9573 359.519 25.564C358.618 26.1533 357.526 26.448 356.243 26.448C355.22 26.448 354.25 26.2053 353.331 25.72C352.412 25.2347 351.667 24.5587 351.095 23.692C350.523 22.808 350.237 21.7767 350.237 20.598C350.237 19.5753 350.488 18.596 350.991 17.66C351.511 16.724 352.239 15.9613 353.175 15.372C354.111 14.7827 355.229 14.488 356.529 14.488C357.846 14.488 358.956 14.7393 359.857 15.242C360.758 15.7273 361.478 16.386 362.015 17.218C362.57 18.05 362.968 18.986 363.211 20.026C363.471 21.0487 363.601 22.0973 363.601 23.172C363.601 25.1827 363.324 26.9507 362.769 28.476C362.214 29.984 361.408 31.1713 360.351 32.038C359.311 32.8873 358.046 33.312 356.555 33.312ZM356.685 24.55C357.5 24.55 358.228 24.368 358.869 24.004C359.51 23.6227 360.022 23.12 360.403 22.496C360.784 21.872 360.975 21.196 360.975 20.468C360.975 19.688 360.784 18.9947 360.403 18.388C360.022 17.764 359.51 17.2787 358.869 16.932C358.228 16.5853 357.5 16.412 356.685 16.412C355.87 16.412 355.142 16.5853 354.501 16.932C353.86 17.2787 353.357 17.764 352.993 18.388C352.629 18.9947 352.447 19.6967 352.447 20.494C352.447 21.7247 352.846 22.7127 353.643 23.458C354.458 24.186 355.472 24.55 356.685 24.55Z" fill="#F5F9FF" fill-opacity="0.5"/>
<rect x="480" width="150" height="179" rx="25" fill="#FECD7D"/>
<path d="M526.718 74V57.2H529.79V64.184H537.326V57.2H540.398V74H537.326V66.68H529.79V74H526.718ZM547.695 74.288C546.671 74.288 545.831 74.128 545.175 73.808C544.519 73.472 544.031 73.032 543.711 72.488C543.391 71.944 543.231 71.344 543.231 70.688C543.231 69.584 543.663 68.688 544.527 68C545.391 67.312 546.687 66.968 548.415 66.968H551.439V66.68C551.439 65.864 551.207 65.264 550.743 64.88C550.279 64.496 549.703 64.304 549.015 64.304C548.391 64.304 547.847 64.456 547.383 64.76C546.919 65.048 546.631 65.48 546.519 66.056H543.519C543.599 65.192 543.887 64.44 544.383 63.8C544.895 63.16 545.551 62.672 546.351 62.336C547.151 61.984 548.047 61.808 549.039 61.808C550.735 61.808 552.071 62.232 553.047 63.08C554.023 63.928 554.511 65.128 554.511 66.68V74H551.895L551.607 72.08C551.255 72.72 550.759 73.248 550.119 73.664C549.495 74.08 548.687 74.288 547.695 74.288ZM548.391 71.888C549.271 71.888 549.951 71.6 550.431 71.024C550.927 70.448 551.239 69.736 551.367 68.888H548.751C547.935 68.888 547.351 69.04 546.999 69.344C546.647 69.632 546.471 69.992 546.471 70.424C546.471 70.888 546.647 71.248 546.999 71.504C547.351 71.76 547.815 71.888 548.391 71.888ZM563.275 74.288C562.059 74.288 560.987 74.024 560.059 73.496C559.131 72.968 558.395 72.232 557.851 71.288C557.323 70.344 557.059 69.264 557.059 68.048C557.059 66.832 557.323 65.752 557.851 64.808C558.395 63.864 559.131 63.128 560.059 62.6C560.987 62.072 562.059 61.808 563.275 61.808C564.795 61.808 566.075 62.208 567.115 63.008C568.155 63.792 568.819 64.88 569.107 66.272H565.867C565.707 65.696 565.387 65.248 564.907 64.928C564.443 64.592 563.891 64.424 563.251 64.424C562.403 64.424 561.683 64.744 561.091 65.384C560.499 66.024 560.203 66.912 560.203 68.048C560.203 69.184 560.499 70.072 561.091 70.712C561.683 71.352 562.403 71.672 563.251 71.672C563.891 71.672 564.443 71.512 564.907 71.192C565.387 70.872 565.707 70.416 565.867 69.824H569.107C568.819 71.168 568.155 72.248 567.115 73.064C566.075 73.88 564.795 74.288 563.275 74.288ZM571.833 74V56.72H574.905V66.92L579.129 62.096H582.777L577.905 67.52L583.569 74H579.729L574.905 68.024V74H571.833ZM548.684 99.336V96.768H553.196V92.616H555.812V96.768H560.3V99.336H555.812V103.488H553.196V99.336H548.684ZM523.636 136V119.2H526.708V133.6H534.148V136H523.636ZM542.028 136.288C540.828 136.288 539.764 136.032 538.836 135.52C537.908 135.008 537.18 134.288 536.652 133.36C536.124 132.432 535.86 131.36 535.86 130.144C535.86 128.912 536.116 127.816 536.628 126.856C537.156 125.896 537.876 125.152 538.788 124.624C539.716 124.08 540.804 123.808 542.052 123.808C543.22 123.808 544.252 124.064 545.148 124.576C546.044 125.088 546.74 125.792 547.236 126.688C547.748 127.568 548.004 128.552 548.004 129.64C548.004 129.816 547.996 130 547.98 130.192C547.98 130.384 547.972 130.584 547.956 130.792H538.908C538.972 131.72 539.292 132.448 539.868 132.976C540.46 133.504 541.172 133.768 542.004 133.768C542.628 133.768 543.148 133.632 543.564 133.36C543.996 133.072 544.316 132.704 544.524 132.256H547.644C547.42 133.008 547.044 133.696 546.516 134.32C546.004 134.928 545.364 135.408 544.596 135.76C543.844 136.112 542.988 136.288 542.028 136.288ZM542.052 126.304C541.3 126.304 540.636 126.52 540.06 126.952C539.484 127.368 539.116 128.008 538.956 128.872H544.884C544.836 128.088 544.548 127.464 544.02 127C543.492 126.536 542.836 126.304 542.052 126.304ZM554.691 136.288C553.667 136.288 552.827 136.128 552.171 135.808C551.515 135.472 551.027 135.032 550.707 134.488C550.387 133.944 550.227 133.344 550.227 132.688C550.227 131.584 550.659 130.688 551.523 130C552.387 129.312 553.683 128.968 555.411 128.968H558.435V128.68C558.435 127.864 558.203 127.264 557.739 126.88C557.275 126.496 556.699 126.304 556.011 126.304C555.387 126.304 554.843 126.456 554.379 126.76C553.915 127.048 553.627 127.48 553.515 128.056H550.515C550.595 127.192 550.883 126.44 551.379 125.8C551.891 125.16 552.547 124.672 553.347 124.336C554.147 123.984 555.043 123.808 556.035 123.808C557.731 123.808 559.067 124.232 560.043 125.08C561.019 125.928 561.507 127.128 561.507 128.68V136H558.891L558.603 134.08C558.251 134.72 557.755 135.248 557.115 135.664C556.491 136.08 555.683 136.288 554.691 136.288ZM555.387 133.888C556.267 133.888 556.947 133.6 557.427 133.024C557.923 132.448 558.235 131.736 558.363 130.888H555.747C554.931 130.888 554.347 131.04 553.995 131.344C553.643 131.632 553.467 131.992 553.467 132.424C553.467 132.888 553.643 133.248 553.995 133.504C554.347 133.76 554.811 133.888 555.387 133.888ZM564.439 136V124.096H567.175L567.463 126.328C567.895 125.56 568.479 124.952 569.215 124.504C569.967 124.04 570.847 123.808 571.855 123.808V127.048H570.991C570.319 127.048 569.719 127.152 569.191 127.36C568.663 127.568 568.247 127.928 567.943 128.44C567.655 128.952 567.511 129.664 567.511 130.576V136H564.439ZM573.955 136V124.096H576.667L576.907 126.112C577.275 125.408 577.803 124.848 578.491 124.432C579.195 124.016 580.019 123.808 580.963 123.808C582.435 123.808 583.579 124.272 584.395 125.2C585.211 126.128 585.619 127.488 585.619 129.28V136H582.547V129.568C582.547 128.544 582.339 127.76 581.923 127.216C581.507 126.672 580.859 126.4 579.979 126.4C579.115 126.4 578.403 126.704 577.843 127.312C577.299 127.92 577.027 128.768 577.027 129.856V136H573.955Z" fill="#89072E"/>
<path d="M501.592 33.312C500.431 33.312 499.382 33.104 498.446 32.688C497.51 32.2547 496.756 31.6133 496.184 30.764C495.629 29.9147 495.335 28.8573 495.3 27.592H497.51C497.527 28.632 497.891 29.5333 498.602 30.296C499.313 31.0413 500.309 31.414 501.592 31.414C502.875 31.414 503.837 31.0587 504.478 30.348C505.137 29.6373 505.466 28.7793 505.466 27.774C505.466 26.9247 505.258 26.2313 504.842 25.694C504.443 25.1567 503.897 24.758 503.204 24.498C502.528 24.238 501.783 24.108 500.968 24.108H499.616V22.262H500.968C502.147 22.262 503.065 21.9933 503.724 21.456C504.4 20.9187 504.738 20.1647 504.738 19.194C504.738 18.3793 504.469 17.712 503.932 17.192C503.412 16.6547 502.632 16.386 501.592 16.386C500.587 16.386 499.781 16.6893 499.174 17.296C498.567 17.8853 498.229 18.6307 498.16 19.532H495.95C496.002 18.544 496.262 17.6687 496.73 16.906C497.215 16.1433 497.874 15.554 498.706 15.138C499.538 14.7047 500.5 14.488 501.592 14.488C502.771 14.488 503.75 14.696 504.53 15.112C505.327 15.528 505.925 16.0827 506.324 16.776C506.74 17.4693 506.948 18.232 506.948 19.064C506.948 19.9827 506.697 20.8233 506.194 21.586C505.691 22.3313 504.937 22.834 503.932 23.094C505.007 23.3193 505.899 23.8307 506.61 24.628C507.321 25.4253 507.676 26.474 507.676 27.774C507.676 28.7793 507.442 29.7067 506.974 30.556C506.523 31.388 505.847 32.0553 504.946 32.558C504.045 33.0607 502.927 33.312 501.592 33.312ZM518.307 33.312C516.695 33.312 515.3 32.922 514.121 32.142C512.96 31.3447 512.067 30.244 511.443 28.84C510.819 27.4187 510.507 25.772 510.507 23.9C510.507 22.028 510.819 20.39 511.443 18.986C512.067 17.5647 512.96 16.464 514.121 15.684C515.3 14.8867 516.695 14.488 518.307 14.488C519.919 14.488 521.306 14.8867 522.467 15.684C523.628 16.464 524.521 17.5647 525.145 18.986C525.769 20.39 526.081 22.028 526.081 23.9C526.081 25.772 525.769 27.4187 525.145 28.84C524.521 30.244 523.628 31.3447 522.467 32.142C521.306 32.922 519.919 33.312 518.307 33.312ZM518.307 31.388C519.364 31.388 520.309 31.0933 521.141 30.504C521.99 29.8973 522.649 29.0393 523.117 27.93C523.602 26.8033 523.845 25.46 523.845 23.9C523.845 22.34 523.602 21.0053 523.117 19.896C522.649 18.7867 521.99 17.9373 521.141 17.348C520.309 16.7413 519.364 16.438 518.307 16.438C517.232 16.438 516.279 16.7413 515.447 17.348C514.615 17.9373 513.956 18.7867 513.471 19.896C512.986 21.0053 512.743 22.34 512.743 23.9C512.743 25.46 512.986 26.8033 513.471 27.93C513.956 29.0393 514.615 29.8973 515.447 30.504C516.279 31.0933 517.232 31.388 518.307 31.388Z" fill="#89072E" fill-opacity="0.5"/>
<rect x="640" width="150" height="179" rx="25" fill="#3A5154"/>
<path d="M661.592 33.312C660.431 33.312 659.382 33.104 658.446 32.688C657.51 32.2547 656.756 31.6133 656.184 30.764C655.629 29.9147 655.335 28.8573 655.3 27.592H657.51C657.527 28.632 657.891 29.5333 658.602 30.296C659.313 31.0413 660.309 31.414 661.592 31.414C662.875 31.414 663.837 31.0587 664.478 30.348C665.137 29.6373 665.466 28.7793 665.466 27.774C665.466 26.9247 665.258 26.2313 664.842 25.694C664.443 25.1567 663.897 24.758 663.204 24.498C662.528 24.238 661.783 24.108 660.968 24.108H659.616V22.262H660.968C662.147 22.262 663.065 21.9933 663.724 21.456C664.4 20.9187 664.738 20.1647 664.738 19.194C664.738 18.3793 664.469 17.712 663.932 17.192C663.412 16.6547 662.632 16.386 661.592 16.386C660.587 16.386 659.781 16.6893 659.174 17.296C658.567 17.8853 658.229 18.6307 658.16 19.532H655.95C656.002 18.544 656.262 17.6687 656.73 16.906C657.215 16.1433 657.874 15.554 658.706 15.138C659.538 14.7047 660.5 14.488 661.592 14.488C662.771 14.488 663.75 14.696 664.53 15.112C665.327 15.528 665.925 16.0827 666.324 16.776C666.74 17.4693 666.948 18.232 666.948 19.064C666.948 19.9827 666.697 20.8233 666.194 21.586C665.691 22.3313 664.937 22.834 663.932 23.094C665.007 23.3193 665.899 23.8307 666.61 24.628C667.321 25.4253 667.676 26.474 667.676 27.774C667.676 28.7793 667.442 29.7067 666.974 30.556C666.523 31.388 665.847 32.0553 664.946 32.558C664.045 33.0607 662.927 33.312 661.592 33.312ZM672.572 33V17.244L669.634 17.894V16.386L673.3 14.8H674.782V33H672.572Z" fill="#F5F9FF" fill-opacity="0.5"/>
<path d="M681.913 74V57.2H687.649C689.617 57.2 691.233 57.552 692.497 58.256C693.777 58.944 694.721 59.92 695.329 61.184C695.953 62.432 696.265 63.904 696.265 65.6C696.265 67.296 695.953 68.776 695.329 70.04C694.721 71.288 693.777 72.264 692.497 72.968C691.233 73.656 689.617 74 687.649 74H681.913ZM684.985 71.36H687.505C688.913 71.36 690.025 71.136 690.841 70.688C691.657 70.224 692.241 69.568 692.593 68.72C692.945 67.856 693.121 66.816 693.121 65.6C693.121 64.4 692.945 63.368 692.593 62.504C692.241 61.64 691.657 60.976 690.841 60.512C690.025 60.048 688.913 59.816 687.505 59.816H684.985V71.36ZM704.688 74.288C703.488 74.288 702.424 74.032 701.496 73.52C700.568 73.008 699.84 72.288 699.312 71.36C698.784 70.432 698.52 69.36 698.52 68.144C698.52 66.912 698.776 65.816 699.288 64.856C699.816 63.896 700.536 63.152 701.448 62.624C702.376 62.08 703.464 61.808 704.712 61.808C705.88 61.808 706.912 62.064 707.808 62.576C708.704 63.088 709.4 63.792 709.896 64.688C710.408 65.568 710.664 66.552 710.664 67.64C710.664 67.816 710.656 68 710.64 68.192C710.64 68.384 710.632 68.584 710.616 68.792H701.568C701.632 69.72 701.952 70.448 702.528 70.976C703.12 71.504 703.832 71.768 704.664 71.768C705.288 71.768 705.808 71.632 706.224 71.36C706.656 71.072 706.976 70.704 707.184 70.256H710.304C710.08 71.008 709.704 71.696 709.176 72.32C708.664 72.928 708.024 73.408 707.256 73.76C706.504 74.112 705.648 74.288 704.688 74.288ZM704.712 64.304C703.96 64.304 703.296 64.52 702.72 64.952C702.144 65.368 701.776 66.008 701.616 66.872H707.544C707.496 66.088 707.208 65.464 706.68 65C706.152 64.536 705.496 64.304 704.712 64.304ZM713.248 74V62.096H715.96L716.224 63.704C716.608 63.128 717.112 62.672 717.736 62.336C718.376 61.984 719.112 61.808 719.944 61.808C721.784 61.808 723.088 62.52 723.856 63.944C724.288 63.288 724.864 62.768 725.584 62.384C726.32 62 727.12 61.808 727.984 61.808C729.536 61.808 730.728 62.272 731.56 63.2C732.392 64.128 732.808 65.488 732.808 67.28V74H729.736V67.568C729.736 66.544 729.536 65.76 729.136 65.216C728.752 64.672 728.152 64.4 727.336 64.4C726.504 64.4 725.832 64.704 725.32 65.312C724.824 65.92 724.576 66.768 724.576 67.856V74H721.504V67.568C721.504 66.544 721.304 65.76 720.904 65.216C720.504 64.672 719.888 64.4 719.056 64.4C718.24 64.4 717.576 64.704 717.064 65.312C716.568 65.92 716.32 66.768 716.32 67.856V74H713.248ZM741.436 74.288C740.284 74.288 739.244 74.024 738.316 73.496C737.404 72.968 736.676 72.24 736.132 71.312C735.604 70.368 735.34 69.28 735.34 68.048C735.34 66.816 735.612 65.736 736.156 64.808C736.7 63.864 737.428 63.128 738.34 62.6C739.268 62.072 740.308 61.808 741.46 61.808C742.596 61.808 743.62 62.072 744.532 62.6C745.46 63.128 746.188 63.864 746.716 64.808C747.26 65.736 747.532 66.816 747.532 68.048C747.532 69.28 747.26 70.368 746.716 71.312C746.188 72.24 745.46 72.968 744.532 73.496C743.604 74.024 742.572 74.288 741.436 74.288ZM741.436 71.624C742.236 71.624 742.932 71.328 743.524 70.736C744.116 70.128 744.412 69.232 744.412 68.048C744.412 66.864 744.116 65.976 743.524 65.384C742.932 64.776 742.244 64.472 741.46 64.472C740.644 64.472 739.94 64.776 739.348 65.384C738.772 65.976 738.484 66.864 738.484 68.048C738.484 69.232 738.772 70.128 739.348 70.736C739.94 71.328 740.636 71.624 741.436 71.624ZM708.684 99.336V96.768H713.196V92.616H715.812V96.768H720.3V99.336H715.812V103.488H713.196V99.336H708.684ZM692.929 136V119.2H703.777V121.672H696.001V126.376H702.289V128.8H696.001V136H692.929ZM706.076 136V118.72H709.148V136H706.076ZM718.071 136.288C716.871 136.288 715.807 136.032 714.879 135.52C713.951 135.008 713.223 134.288 712.695 133.36C712.167 132.432 711.903 131.36 711.903 130.144C711.903 128.912 712.159 127.816 712.671 126.856C713.199 125.896 713.919 125.152 714.831 124.624C715.759 124.08 716.847 123.808 718.095 123.808C719.263 123.808 720.295 124.064 721.191 124.576C722.087 125.088 722.783 125.792 723.279 126.688C723.791 127.568 724.047 128.552 724.047 129.64C724.047 129.816 724.039 130 724.023 130.192C724.023 130.384 724.015 130.584 723.999 130.792H714.951C715.015 131.72 715.335 132.448 715.911 132.976C716.503 133.504 717.215 133.768 718.047 133.768C718.671 133.768 719.191 133.632 719.607 133.36C720.039 133.072 720.359 132.704 720.567 132.256H723.687C723.463 133.008 723.087 133.696 722.559 134.32C722.047 134.928 721.407 135.408 720.639 135.76C719.887 136.112 719.031 136.288 718.071 136.288ZM718.095 126.304C717.343 126.304 716.679 126.52 716.103 126.952C715.527 127.368 715.159 128.008 714.999 128.872H720.927C720.879 128.088 720.591 127.464 720.063 127C719.535 126.536 718.879 126.304 718.095 126.304ZM724.682 136L729.002 130.048L724.682 124.096H727.97L730.994 128.32L733.994 124.096H737.306L732.962 130.048L737.306 136H733.994L730.994 131.776L727.97 136H724.682Z" fill="#F5F9FF"/>
<rect x="800" width="150" height="179" rx="25" fill="#D0D0D0" fill-opacity="0.2"/>
<path d="M817.718 33V17.244L814.78 17.894V16.386L818.446 14.8H819.928V33H817.718Z" fill="#F5F9FF" fill-opacity="0.25"/>
<rect x="960" width="150" height="179" rx="25" fill="#D0D0D0" fill-opacity="0.1"/>
<path d="M975.638 33V31.466C976.869 30.4953 978.03 29.516 979.122 28.528C980.231 27.5227 981.211 26.5347 982.06 25.564C982.927 24.5933 983.603 23.64 984.088 22.704C984.591 21.768 984.842 20.8667 984.842 20C984.842 19.3587 984.729 18.7607 984.504 18.206C984.296 17.6513 983.949 17.2093 983.464 16.88C982.979 16.5333 982.32 16.36 981.488 16.36C980.691 16.36 980.023 16.542 979.486 16.906C978.949 17.2527 978.541 17.7207 978.264 18.31C978.004 18.8993 977.874 19.532 977.874 20.208H975.768C975.768 19.012 976.019 17.9893 976.522 17.14C977.025 16.2733 977.709 15.6147 978.576 15.164C979.443 14.7133 980.422 14.488 981.514 14.488C983.126 14.488 984.443 14.9473 985.466 15.866C986.506 16.7673 987.026 18.1193 987.026 19.922C987.026 20.9967 986.757 22.0627 986.22 23.12C985.683 24.16 984.998 25.174 984.166 26.162C983.334 27.1327 982.441 28.0427 981.488 28.892C980.552 29.7413 979.677 30.504 978.862 31.18H987.65V33H975.638Z" fill="#F5F9FF" fill-opacity="0.1"/>
</svg>
