<svg width="75" height="80" viewBox="0 0 75 80" fill="none" xmlns="http://www.w3.org/2000/svg">
<path d="M71.2263 26.2464H67.415C66.7278 26.2464 66.1655 26.8087 66.1655 27.496C66.1655 28.1833 66.7278 28.7456 67.415 28.7456H71.2263V61.2347H68.7271V47.2394C68.7271 46.5521 68.1648 45.9898 67.4775 45.9898C66.7903 45.9898 66.2279 46.5521 66.2279 47.2394V61.2347H34.551C35.6131 59.8602 35.7381 58.0483 34.8634 56.5488L28.2406 44.7402C32.0518 42.4285 37.1126 40.3042 46.9844 40.3042C47.8591 40.804 48.9212 40.929 49.9209 40.6791C50.7331 40.3042 51.3579 39.5545 51.5453 38.6798C52.2326 35.8682 50.2333 30.0576 46.4845 23.8722C42.4234 17.2494 36.5503 10.939 33.3014 12.8134C32.6766 13.1882 32.1768 13.8755 32.0518 14.6253C31.9269 15.1251 31.8644 15.6249 31.8644 16.0623C25.554 25.3717 20.1808 28.8705 15.3699 31.932C15.2449 31.9945 12.8082 33.5565 11.996 34.1188C8.24725 36.7429 8.18477 41.9912 10.2466 45.49C11.6836 47.9267 15.2449 49.6761 18.1814 49.6761C18.8687 49.6761 19.556 49.5511 20.1808 49.3637C20.3682 49.3012 20.5557 49.2387 20.7431 49.1138C20.7431 49.1138 27.6158 60.9848 27.7408 61.1723H7.4975V47.2394C7.4975 46.5521 6.93519 45.9898 6.24792 45.9898C5.56065 45.9898 4.99834 46.5521 4.99834 47.2394V61.2347H2.49917V28.7456H6.18544C6.87271 28.7456 7.43502 28.1833 7.43502 27.496C7.43502 26.8087 6.87271 26.2464 6.18544 26.2464H2.49917C1.12463 26.2464 0 27.371 0 28.7456V71.2314C0 72.606 1.12463 73.7306 2.49917 73.7306H29.99V77.4793H24.0545C23.3672 77.4793 22.8049 78.0416 22.8049 78.7289C22.8049 79.4162 23.3672 79.9785 24.0545 79.9785H49.671C50.3582 79.9785 50.9205 79.4162 50.9205 78.7289C50.9205 78.0416 50.3582 77.4793 49.671 77.4793H43.7354V73.7306H71.2263C72.6008 73.7306 73.7254 72.606 73.7254 71.2314V28.7456C73.7254 27.371 72.6008 26.2464 71.2263 26.2464ZM34.551 15.0001C34.6135 15.0001 34.6135 15.0001 34.676 15.0001C35.7381 15.0001 39.7368 17.8117 44.2977 25.2467C49.0462 32.9317 49.546 37.805 48.9837 38.3674C48.4214 38.5548 46.3596 37.3677 43.548 34.1188C45.4849 29.4953 43.2981 24.1221 38.6746 22.1852C37.7999 21.8104 36.8002 21.5605 35.8631 21.498C34.2386 17.6867 34.1761 15.375 34.551 15.0001ZM41.6111 31.7446C40.8614 30.6824 40.0492 29.4953 39.1744 28.1832C38.2997 26.8087 37.6125 25.4966 36.9877 24.3095C40.2366 25.2467 42.2359 28.4332 41.6111 31.7446ZM32.4892 19.5611C33.6138 23.06 35.1133 26.3714 37.1126 29.4328C38.987 32.4943 41.1738 35.3684 43.7354 37.8675C42.111 37.93 40.674 38.1174 39.2994 38.3049C37.3001 36.1181 35.4882 33.7439 33.9262 31.1823C32.3017 28.5581 30.9272 25.7466 29.9275 22.81C30.7398 21.8729 31.6145 20.7482 32.4892 19.5611ZM28.0532 24.9968C29.0528 27.6209 30.3649 30.1201 31.8019 32.4943C33.1765 34.7436 34.6759 36.8679 36.3629 38.8672C30.6773 40.1168 27.3034 42.3035 24.4294 44.2404C24.0545 44.4903 23.6796 44.7402 23.3047 44.9277L17.1193 33.7439C21.118 31.3697 24.8042 28.4332 28.0532 24.9968ZM19.3061 47.052C17.3692 47.8017 13.558 46.2397 12.3709 44.2404C10.9339 41.7412 10.8714 37.93 13.433 36.1806C13.9329 35.8057 14.4327 35.4933 14.995 35.1184L21.1804 46.1773C20.6181 46.4897 19.9933 46.8021 19.3061 47.052ZM22.9923 48.0516C23.9295 47.4893 24.8667 46.927 25.8039 46.3022C25.9289 46.2397 25.9913 46.1773 26.1163 46.1148C26.2413 45.9898 32.7391 57.7984 32.7391 57.7984C33.2389 58.6731 32.9265 59.7352 32.0518 60.1726C31.1771 60.6724 30.0525 60.36 29.5527 59.4853L22.9923 48.0516ZM41.2363 77.4793H32.4892V73.7306H41.2363V77.4793ZM71.2263 71.2314H2.49917V63.7339H71.2263V71.2314Z" fill="#89072E"/>
<path d="M64.9783 68.7321H67.4775C68.1648 68.7321 68.7271 68.1698 68.7271 67.4825C68.7271 66.7952 68.1648 66.2329 67.4775 66.2329H64.9783C64.2911 66.2329 63.7288 66.7952 63.7288 67.4825C63.7288 68.1698 64.2911 68.7321 64.9783 68.7321Z" fill="#89072E"/>
<path d="M53.1071 28.0584L60.1672 31.4947C60.792 31.8071 61.5417 31.5572 61.8541 30.9324L65.228 23.6223C66.1027 21.623 65.2905 19.3113 63.3536 18.3741C61.4168 17.4369 59.1051 18.1867 58.1679 20.1235C58.1679 20.186 58.1679 20.186 58.1054 20.2485L57.6056 21.3731L56.5434 20.8733C54.6066 19.9361 52.2323 20.7483 51.2952 22.6852C51.2952 22.6852 51.2952 22.7476 51.2327 22.7476C50.2955 24.6845 51.1702 27.0587 53.1071 28.0584ZM53.4819 23.7473C53.6694 23.3724 53.9818 23.1225 54.2942 22.9351C54.4191 22.8726 54.6066 22.8726 54.7315 22.8726C54.9814 22.8726 55.1689 22.9351 55.4188 22.9976L57.6056 24.0597C58.2303 24.3721 58.9801 24.1222 59.2925 23.4974L60.3546 21.2481C60.5421 20.8733 60.792 20.6233 61.1669 20.4984C61.5417 20.3734 61.9166 20.3734 62.229 20.5609C62.6039 20.7483 62.8538 21.0607 62.9788 21.4356C63.1037 21.8105 63.1037 22.1853 62.9163 22.5602L60.0422 28.6832L54.1067 25.8091C53.4819 25.4342 53.1695 24.5595 53.4819 23.7473Z" fill="#CA4353"/>
<path d="M73.6626 2.1294C73.1003 0.504942 71.3509 -0.369767 69.7264 0.192546L60.8544 3.06659C60.0421 3.31651 59.4173 3.87882 59.0425 4.62857C58.6676 5.37832 58.6051 6.19055 58.855 7.00278L60.0421 10.5016C60.6044 12.1261 62.3539 13.0008 63.9783 12.4385L72.8504 9.56442C73.6626 9.31451 74.2874 8.7522 74.6623 8.00245C75.0371 7.25269 75.0996 6.44046 74.8497 5.62824L73.6626 2.1294ZM72.413 6.81534C72.3505 6.9403 72.2256 7.06526 72.0381 7.12774L63.2286 10.0018C62.9162 10.1267 62.5413 9.9393 62.4163 9.6269L61.2292 6.12807C61.1668 6.00311 61.1668 5.81567 61.2917 5.69072C61.3542 5.56576 61.4792 5.4408 61.6666 5.37832L70.4762 2.50428C70.5386 2.50428 70.6011 2.50428 70.6636 2.50428C70.9135 2.50428 71.1634 2.69171 71.2259 2.94163L72.413 6.44047C72.4755 6.50294 72.4755 6.69038 72.413 6.81534Z" fill="#CA4353"/>
<path d="M65.7283 5.31592L66.1032 6.50302L66.5405 7.69013L67.5402 6.69046L68.5398 5.69079L67.1028 5.50336L65.7283 5.31592Z" fill="#89072E"/>
<path d="M42.0488 15.1872C42.5487 15.812 43.2984 16.1244 44.1106 16.1244H53.42C54.982 16.1244 56.2316 14.8748 56.2316 13.3128V5.31547C56.2316 3.75349 54.982 2.50391 53.42 2.50391H44.1106C42.5487 2.50391 41.2991 3.75349 41.2991 5.31547V13.3753C41.2991 13.9376 41.4865 14.4999 41.7989 14.9997C41.9239 15.0622 41.9863 15.1247 42.0488 15.1872ZM44.9853 13.6252L47.4845 10.1888L48.2343 11.6259L49.2339 13.6252H44.9853ZM53.7324 13.3753C53.7324 13.5627 53.6075 13.6877 53.42 13.6877H51.983L50.8584 11.5009L51.983 10.6262L53.67 12.688V13.3753H53.7324ZM43.8607 5.31547C43.8607 5.12803 43.9857 5.00307 44.1731 5.00307H53.4825C53.6075 5.00307 53.7324 5.12803 53.7324 5.31547V8.68935L53.1701 8.00208C52.7328 7.50224 51.983 7.37728 51.4207 7.81464L49.7338 9.18918L48.7966 7.3148C48.4842 6.69001 47.7344 6.4401 47.1096 6.75249C46.9222 6.81497 46.7972 6.93993 46.6723 7.12737L43.8607 11.0011V5.31547Z" fill="#CA4353"/>
</svg>
