<svg width="75" height="75" viewBox="0 0 75 75" fill="none" xmlns="http://www.w3.org/2000/svg">
<path d="M44.039 51.6359H30.9603V46.4044H44.039V51.6359ZM37.4996 20.247C39.6521 20.247 41.4233 22.0182 41.4233 24.1706C41.4233 26.3231 39.6521 28.0942 37.4996 28.0942C35.3472 28.0942 33.576 26.3231 33.576 24.1706C33.5785 22.0192 35.3482 20.2495 37.4996 20.247ZM55.8098 40.3011V60.791H53.1377C52.7898 56.7319 50.7845 52.9904 47.5969 50.4533L46.6547 49.6994V45.3338L47.2997 43.6141C48.627 40.0778 49.5603 36.4058 50.0827 32.6648L55.8098 40.3011ZM44.8504 42.6955L44.4405 43.7887H38.8075V30.5784C41.8408 29.9589 44.039 27.2665 44.039 24.1706C44.039 21.0747 41.8408 18.3823 38.8075 17.7629V13.7077H45.82C47.2361 17.4894 47.9618 21.4947 47.9626 25.5329C47.9662 31.3943 46.9119 37.2086 44.8504 42.6955ZM37.4996 1.09863C40.4966 3.95895 42.9417 7.3465 44.7124 11.0919H30.2869C32.0576 7.3465 34.5027 3.95895 37.4996 1.09863ZM29.1793 13.7077H36.1918V17.7629C33.1585 18.3823 30.9603 21.0747 30.9603 24.1706C30.9603 27.2665 33.1585 29.9589 36.1918 30.5784V43.7887H30.5588L30.1489 42.6956C28.0874 37.2086 27.0331 31.3945 27.0367 25.5329C27.0375 21.4947 27.7632 17.4894 29.1793 13.7077ZM27.4024 50.4533C24.2149 52.9902 22.2095 56.7319 21.8616 60.791H19.1895V40.3011L24.9166 32.6648C25.439 36.4058 26.3723 40.0778 27.6996 43.6143L28.3445 45.3339V49.6994L27.4024 50.4533ZM35.1707 54.2517L35.8246 56.8674H32.6353L33.2893 54.2517H35.1707ZM38.644 71.8327L37.4996 73.1679L36.3553 71.8327C33.424 68.4223 32.6708 63.628 34.4152 59.4831H40.5841C42.3285 63.628 41.5753 68.4223 38.644 71.8327ZM42.3639 56.8674H39.1747L39.8286 54.2517H41.71L42.3639 56.8674Z" fill="#89072E"/>
<path d="M6.09499 50.354H3.47925V67.3563H6.09499V50.354Z" fill="#CA4353"/>
<path d="M6.09499 69.9463H3.47925V73.8699H6.09499V69.9463Z" fill="#CA4353"/>
<path d="M11.3318 42.4805H8.71606V55.5592H11.3318V42.4805Z" fill="#CA4353"/>
<path d="M11.3318 58.1909H8.71606V62.1145H11.3318V58.1909Z" fill="#CA4353"/>
<path d="M71.5 50.354H68.8843V67.3563H71.5V50.354Z" fill="#CA4353"/>
<path d="M71.5 69.9463H68.8843V73.8699H71.5V69.9463Z" fill="#CA4353"/>
<path d="M66.2634 42.4805H63.6477V55.5592H66.2634V42.4805Z" fill="#CA4353"/>
<path d="M66.2634 58.1909H63.6477V62.1145H66.2634V58.1909Z" fill="#CA4353"/>
<path d="M2.19702 32.0381H4.81276V34.6539H7.42851V32.0381H10.0442V29.4224H7.42851V26.8066H4.81276V29.4224H2.19702V32.0381Z" fill="#CA4353"/>
<path d="M59.7239 9.80912H62.3397V7.19338H59.7239V4.57764H57.1082V7.19338H54.4924V9.80912H57.1082V12.4249H59.7239V9.80912Z" fill="#CA4353"/>
<path d="M17.8763 20.2515H13.9526V22.8672H17.8763V20.2515Z" fill="#CA4353"/>
<path d="M7.40286 16.333H3.47925V18.9487H7.40286V16.333Z" fill="#CA4353"/>
<path d="M13.9578 9.81445H10.0342V12.4302H13.9578V9.81445Z" fill="#CA4353"/>
<path d="M59.7342 20.2515H55.8105V22.8672H59.7342V20.2515Z" fill="#CA4353"/>
<path d="M66.2891 28.125H62.3655V30.7407H66.2891V28.125Z" fill="#CA4353"/>
<path d="M72.8079 17.6514H68.8843V20.2671H72.8079V17.6514Z" fill="#CA4353"/>
</svg>
