<svg width="395" height="446" viewBox="0 0 395 446" fill="none" xmlns="http://www.w3.org/2000/svg">
<circle cx="87.5" cy="358.5" r="87.5" fill="#89072E"/>
<path d="M55.5058 359V332.408L49.9858 333.704V329L58.0978 325.4H61.8898V359H55.5058ZM67.5886 359V354.536C69.6366 352.84 71.6206 351.16 73.5406 349.496C75.4926 347.832 77.2206 346.184 78.7246 344.552C80.2606 342.92 81.4766 341.336 82.3726 339.8C83.3006 338.232 83.7646 336.712 83.7646 335.24C83.7646 333.864 83.3806 332.648 82.6126 331.592C81.8766 330.536 80.6446 330.008 78.9166 330.008C77.1566 330.008 75.8286 330.584 74.9326 331.736C74.0366 332.888 73.5886 334.28 73.5886 335.912H67.6366C67.7006 333.448 68.2446 331.4 69.2686 329.768C70.2926 328.104 71.6526 326.872 73.3486 326.072C75.0446 325.24 76.9486 324.824 79.0606 324.824C82.4846 324.824 85.1406 325.768 87.0286 327.656C88.9486 329.512 89.9086 331.928 89.9086 334.904C89.9086 336.76 89.4766 338.568 88.6126 340.328C87.7806 342.088 86.6766 343.784 85.3006 345.416C83.9246 347.048 82.4366 348.584 80.8366 350.024C79.2366 351.432 77.6846 352.744 76.1806 353.96H90.7246V359H67.5886ZM109.368 359.576C106.264 359.576 103.608 358.856 101.4 357.416C99.1921 355.944 97.4801 353.912 96.2641 351.32C95.0801 348.696 94.4881 345.656 94.4881 342.2C94.4881 338.776 95.0801 335.752 96.2641 333.128C97.4801 330.504 99.1921 328.472 101.4 327.032C103.608 325.56 106.264 324.824 109.368 324.824C112.472 324.824 115.128 325.56 117.336 327.032C119.544 328.472 121.24 330.504 122.424 333.128C123.64 335.752 124.248 338.776 124.248 342.2C124.248 345.656 123.64 348.696 122.424 351.32C121.24 353.912 119.544 355.944 117.336 357.416C115.128 358.856 112.472 359.576 109.368 359.576ZM109.368 354.056C111.896 354.056 113.96 353 115.56 350.888C117.16 348.776 117.96 345.88 117.96 342.2C117.96 338.52 117.16 335.624 115.56 333.512C113.96 331.4 111.896 330.344 109.368 330.344C106.808 330.344 104.728 331.4 103.128 333.512C101.56 335.624 100.776 338.52 100.776 342.2C100.776 345.88 101.56 348.776 103.128 350.888C104.728 353 106.808 354.056 109.368 354.056ZM41.0617 390V373.2H47.2777C48.6217 373.2 49.7337 373.424 50.6137 373.872C51.4937 374.32 52.1497 374.936 52.5817 375.72C53.0137 376.504 53.2297 377.384 53.2297 378.36C53.2297 379.288 53.0217 380.144 52.6057 380.928C52.1897 381.696 51.5417 382.32 50.6617 382.8C49.7817 383.264 48.6537 383.496 47.2777 383.496H44.1337V390H41.0617ZM44.1337 381H47.0857C48.1577 381 48.9257 380.768 49.3897 380.304C49.8697 379.824 50.1097 379.176 50.1097 378.36C50.1097 377.528 49.8697 376.88 49.3897 376.416C48.9257 375.936 48.1577 375.696 47.0857 375.696H44.1337V381ZM55.5678 390V378.096H58.3038L58.5918 380.328C59.0238 379.56 59.6078 378.952 60.3438 378.504C61.0958 378.04 61.9758 377.808 62.9838 377.808V381.048H62.1198C61.4478 381.048 60.8478 381.152 60.3198 381.36C59.7918 381.568 59.3758 381.928 59.0718 382.44C58.7838 382.952 58.6398 383.664 58.6398 384.576V390H55.5678ZM70.5845 390.288C69.4325 390.288 68.3925 390.024 67.4645 389.496C66.5525 388.968 65.8245 388.24 65.2805 387.312C64.7525 386.368 64.4885 385.28 64.4885 384.048C64.4885 382.816 64.7605 381.736 65.3045 380.808C65.8485 379.864 66.5765 379.128 67.4885 378.6C68.4165 378.072 69.4565 377.808 70.6085 377.808C71.7445 377.808 72.7685 378.072 73.6805 378.6C74.6085 379.128 75.3365 379.864 75.8645 380.808C76.4085 381.736 76.6805 382.816 76.6805 384.048C76.6805 385.28 76.4085 386.368 75.8645 387.312C75.3365 388.24 74.6085 388.968 73.6805 389.496C72.7525 390.024 71.7205 390.288 70.5845 390.288ZM70.5845 387.624C71.3845 387.624 72.0805 387.328 72.6725 386.736C73.2645 386.128 73.5605 385.232 73.5605 384.048C73.5605 382.864 73.2645 381.976 72.6725 381.384C72.0805 380.776 71.3925 380.472 70.6085 380.472C69.7925 380.472 69.0885 380.776 68.4965 381.384C67.9205 381.976 67.6325 382.864 67.6325 384.048C67.6325 385.232 67.9205 386.128 68.4965 386.736C69.0885 387.328 69.7845 387.624 70.5845 387.624ZM81.1312 376.248C80.5712 376.248 80.1072 376.08 79.7392 375.744C79.3872 375.408 79.2112 374.984 79.2112 374.472C79.2112 373.96 79.3872 373.544 79.7392 373.224C80.1072 372.888 80.5712 372.72 81.1312 372.72C81.6912 372.72 82.1472 372.888 82.4992 373.224C82.8672 373.544 83.0512 373.96 83.0512 374.472C83.0512 374.984 82.8672 375.408 82.4992 375.744C82.1472 376.08 81.6912 376.248 81.1312 376.248ZM77.1712 395.28V392.664H78.1072C78.6352 392.664 79.0112 392.56 79.2352 392.352C79.4592 392.144 79.5712 391.792 79.5712 391.296V378.096H82.6432V391.296C82.6432 392.736 82.2752 393.76 81.5392 394.368C80.8192 394.976 79.8352 395.28 78.5872 395.28H77.1712ZM91.6331 390.288C90.4331 390.288 89.3691 390.032 88.4411 389.52C87.5131 389.008 86.7851 388.288 86.2571 387.36C85.7291 386.432 85.4651 385.36 85.4651 384.144C85.4651 382.912 85.7211 381.816 86.2331 380.856C86.7611 379.896 87.4811 379.152 88.3931 378.624C89.3211 378.08 90.4091 377.808 91.6571 377.808C92.8251 377.808 93.8571 378.064 94.7531 378.576C95.6491 379.088 96.3451 379.792 96.8411 380.688C97.3531 381.568 97.6091 382.552 97.6091 383.64C97.6091 383.816 97.6011 384 97.5851 384.192C97.5851 384.384 97.5771 384.584 97.5611 384.792H88.5131C88.5771 385.72 88.8971 386.448 89.4731 386.976C90.0651 387.504 90.7771 387.768 91.6091 387.768C92.2331 387.768 92.7531 387.632 93.1691 387.36C93.6011 387.072 93.9211 386.704 94.1291 386.256H97.2491C97.0251 387.008 96.6491 387.696 96.1211 388.32C95.6091 388.928 94.9691 389.408 94.2011 389.76C93.4491 390.112 92.5931 390.288 91.6331 390.288ZM91.6571 380.304C90.9051 380.304 90.2411 380.52 89.6651 380.952C89.0891 381.368 88.7211 382.008 88.5611 382.872H94.4891C94.4411 382.088 94.1531 381.464 93.6251 381C93.0971 380.536 92.4411 380.304 91.6571 380.304ZM106.025 390.288C104.809 390.288 103.737 390.024 102.809 389.496C101.881 388.968 101.145 388.232 100.601 387.288C100.073 386.344 99.8088 385.264 99.8088 384.048C99.8088 382.832 100.073 381.752 100.601 380.808C101.145 379.864 101.881 379.128 102.809 378.6C103.737 378.072 104.809 377.808 106.025 377.808C107.545 377.808 108.825 378.208 109.865 379.008C110.905 379.792 111.569 380.88 111.857 382.272H108.617C108.457 381.696 108.137 381.248 107.657 380.928C107.193 380.592 106.641 380.424 106.001 380.424C105.153 380.424 104.433 380.744 103.841 381.384C103.249 382.024 102.953 382.912 102.953 384.048C102.953 385.184 103.249 386.072 103.841 386.712C104.433 387.352 105.153 387.672 106.001 387.672C106.641 387.672 107.193 387.512 107.657 387.192C108.137 386.872 108.457 386.416 108.617 385.824H111.857C111.569 387.168 110.905 388.248 109.865 389.064C108.825 389.88 107.545 390.288 106.025 390.288ZM119.723 390C118.475 390 117.475 389.696 116.723 389.088C115.971 388.48 115.595 387.4 115.595 385.848V380.664H113.555V378.096H115.595L115.955 374.904H118.667V378.096H121.883V380.664H118.667V385.872C118.667 386.448 118.787 386.848 119.027 387.072C119.283 387.28 119.715 387.384 120.323 387.384H121.811V390H119.723ZM129.441 390.288C128.385 390.288 127.457 390.12 126.657 389.784C125.857 389.432 125.217 388.952 124.737 388.344C124.257 387.736 123.969 387.032 123.873 386.232H126.969C127.065 386.696 127.321 387.096 127.737 387.432C128.169 387.752 128.721 387.912 129.393 387.912C130.065 387.912 130.553 387.776 130.857 387.504C131.177 387.232 131.337 386.92 131.337 386.568C131.337 386.056 131.113 385.712 130.665 385.536C130.217 385.344 129.593 385.16 128.793 384.984C128.281 384.872 127.761 384.736 127.233 384.576C126.705 384.416 126.217 384.216 125.769 383.976C125.337 383.72 124.985 383.4 124.713 383.016C124.441 382.616 124.305 382.128 124.305 381.552C124.305 380.496 124.721 379.608 125.553 378.888C126.401 378.168 127.585 377.808 129.105 377.808C130.513 377.808 131.633 378.136 132.465 378.792C133.313 379.448 133.817 380.352 133.977 381.504H131.073C130.897 380.624 130.233 380.184 129.081 380.184C128.505 380.184 128.057 380.296 127.737 380.52C127.433 380.744 127.281 381.024 127.281 381.36C127.281 381.712 127.513 381.992 127.977 382.2C128.441 382.408 129.057 382.6 129.825 382.776C130.657 382.968 131.417 383.184 132.105 383.424C132.809 383.648 133.369 383.992 133.785 384.456C134.201 384.904 134.409 385.552 134.409 386.4C134.425 387.136 134.233 387.8 133.833 388.392C133.433 388.984 132.857 389.448 132.105 389.784C131.353 390.12 130.465 390.288 129.441 390.288Z" fill="#F5F9FF"/>
<circle cx="295" cy="325" r="100" fill="#3A5154"/>
<path d="M249.756 325V298.408L244.236 299.704V295L252.348 291.4H256.14V325H249.756ZM261.839 325V320.536C263.887 318.84 265.871 317.16 267.791 315.496C269.743 313.832 271.471 312.184 272.975 310.552C274.511 308.92 275.727 307.336 276.623 305.8C277.551 304.232 278.015 302.712 278.015 301.24C278.015 299.864 277.631 298.648 276.863 297.592C276.127 296.536 274.895 296.008 273.167 296.008C271.407 296.008 270.079 296.584 269.183 297.736C268.287 298.888 267.839 300.28 267.839 301.912H261.887C261.951 299.448 262.495 297.4 263.519 295.768C264.543 294.104 265.903 292.872 267.599 292.072C269.295 291.24 271.199 290.824 273.311 290.824C276.735 290.824 279.391 291.768 281.279 293.656C283.199 295.512 284.159 297.928 284.159 300.904C284.159 302.76 283.727 304.568 282.863 306.328C282.031 308.088 280.927 309.784 279.551 311.416C278.175 313.048 276.687 314.584 275.087 316.024C273.487 317.432 271.935 318.744 270.431 319.96H284.975V325H261.839ZM301.069 325.576C298.861 325.576 296.861 325.192 295.069 324.424C293.277 323.624 291.837 322.408 290.749 320.776C289.661 319.144 289.085 317.096 289.021 314.632H295.069C295.101 316.264 295.629 317.64 296.653 318.76C297.709 319.848 299.181 320.392 301.069 320.392C302.861 320.392 304.237 319.896 305.197 318.904C306.157 317.912 306.637 316.664 306.637 315.16C306.637 313.4 305.997 312.072 304.717 311.176C303.469 310.248 301.853 309.784 299.869 309.784H297.373V304.744H299.917C301.549 304.744 302.909 304.36 303.997 303.592C305.085 302.824 305.629 301.688 305.629 300.184C305.629 298.936 305.213 297.944 304.381 297.208C303.581 296.44 302.461 296.056 301.021 296.056C299.453 296.056 298.221 296.52 297.325 297.448C296.461 298.376 295.981 299.512 295.885 300.856H289.885C290.013 297.752 291.085 295.304 293.101 293.512C295.149 291.72 297.789 290.824 301.021 290.824C303.325 290.824 305.261 291.24 306.829 292.072C308.429 292.872 309.629 293.944 310.429 295.288C311.261 296.632 311.677 298.12 311.677 299.752C311.677 301.64 311.149 303.24 310.093 304.552C309.069 305.832 307.789 306.696 306.253 307.144C308.141 307.528 309.677 308.456 310.861 309.928C312.045 311.368 312.637 313.192 312.637 315.4C312.637 317.256 312.189 318.952 311.293 320.488C310.397 322.024 309.085 323.256 307.357 324.184C305.661 325.112 303.565 325.576 301.069 325.576ZM334.03 325V318.76H317.47V313.864L333.214 291.4H340.174V313.432H344.59V318.76H340.174V325H334.03ZM324.046 313.432H334.414V298.168L324.046 313.432ZM231.9 356L238.044 339.2H241.5L247.644 356H244.38L243.036 352.112H236.484L235.116 356H231.9ZM237.324 349.712H242.196L239.748 342.728L237.324 349.712ZM249.736 361.28V344.096H252.472L252.808 345.8C253.192 345.272 253.696 344.808 254.32 344.408C254.96 344.008 255.784 343.808 256.792 343.808C257.912 343.808 258.912 344.08 259.792 344.624C260.672 345.168 261.368 345.912 261.88 346.856C262.392 347.8 262.648 348.872 262.648 350.072C262.648 351.272 262.392 352.344 261.88 353.288C261.368 354.216 260.672 354.952 259.792 355.496C258.912 356.024 257.912 356.288 256.792 356.288C255.896 356.288 255.112 356.12 254.44 355.784C253.768 355.448 253.224 354.976 252.808 354.368V361.28H249.736ZM256.144 353.6C257.12 353.6 257.928 353.272 258.568 352.616C259.208 351.96 259.528 351.112 259.528 350.072C259.528 349.032 259.208 348.176 258.568 347.504C257.928 346.832 257.12 346.496 256.144 346.496C255.152 346.496 254.336 346.832 253.696 347.504C253.072 348.16 252.76 349.008 252.76 350.048C252.76 351.088 253.072 351.944 253.696 352.616C254.336 353.272 255.152 353.6 256.144 353.6ZM265.392 361.28V344.096H268.128L268.464 345.8C268.848 345.272 269.352 344.808 269.976 344.408C270.616 344.008 271.44 343.808 272.448 343.808C273.568 343.808 274.568 344.08 275.448 344.624C276.328 345.168 277.024 345.912 277.536 346.856C278.048 347.8 278.304 348.872 278.304 350.072C278.304 351.272 278.048 352.344 277.536 353.288C277.024 354.216 276.328 354.952 275.448 355.496C274.568 356.024 273.568 356.288 272.448 356.288C271.552 356.288 270.768 356.12 270.096 355.784C269.424 355.448 268.88 354.976 268.464 354.368V361.28H265.392ZM271.8 353.6C272.776 353.6 273.584 353.272 274.224 352.616C274.864 351.96 275.184 351.112 275.184 350.072C275.184 349.032 274.864 348.176 274.224 347.504C273.584 346.832 272.776 346.496 271.8 346.496C270.808 346.496 269.992 346.832 269.352 347.504C268.728 348.16 268.416 349.008 268.416 350.048C268.416 351.088 268.728 351.944 269.352 352.616C269.992 353.272 270.808 353.6 271.8 353.6ZM281.048 356V338.72H284.12V356H281.048ZM288.915 342.248C288.355 342.248 287.891 342.08 287.523 341.744C287.171 341.408 286.995 340.984 286.995 340.472C286.995 339.96 287.171 339.544 287.523 339.224C287.891 338.888 288.355 338.72 288.915 338.72C289.475 338.72 289.931 338.888 290.283 339.224C290.651 339.544 290.835 339.96 290.835 340.472C290.835 340.984 290.651 341.408 290.283 341.744C289.931 342.08 289.475 342.248 288.915 342.248ZM287.379 356V344.096H290.451V356H287.379ZM299.49 356.288C298.274 356.288 297.202 356.024 296.274 355.496C295.346 354.968 294.61 354.232 294.066 353.288C293.538 352.344 293.274 351.264 293.274 350.048C293.274 348.832 293.538 347.752 294.066 346.808C294.61 345.864 295.346 345.128 296.274 344.6C297.202 344.072 298.274 343.808 299.49 343.808C301.01 343.808 302.29 344.208 303.33 345.008C304.37 345.792 305.034 346.88 305.322 348.272H302.082C301.922 347.696 301.602 347.248 301.122 346.928C300.658 346.592 300.106 346.424 299.466 346.424C298.618 346.424 297.898 346.744 297.306 347.384C296.714 348.024 296.418 348.912 296.418 350.048C296.418 351.184 296.714 352.072 297.306 352.712C297.898 353.352 298.618 353.672 299.466 353.672C300.106 353.672 300.658 353.512 301.122 353.192C301.602 352.872 301.922 352.416 302.082 351.824H305.322C305.034 353.168 304.37 354.248 303.33 355.064C302.29 355.88 301.01 356.288 299.49 356.288ZM312.152 356.288C311.128 356.288 310.288 356.128 309.632 355.808C308.976 355.472 308.488 355.032 308.168 354.488C307.848 353.944 307.688 353.344 307.688 352.688C307.688 351.584 308.12 350.688 308.984 350C309.848 349.312 311.144 348.968 312.872 348.968H315.896V348.68C315.896 347.864 315.664 347.264 315.2 346.88C314.736 346.496 314.16 346.304 313.472 346.304C312.848 346.304 312.304 346.456 311.84 346.76C311.376 347.048 311.088 347.48 310.976 348.056H307.976C308.056 347.192 308.344 346.44 308.84 345.8C309.352 345.16 310.008 344.672 310.808 344.336C311.608 343.984 312.504 343.808 313.496 343.808C315.192 343.808 316.528 344.232 317.504 345.08C318.48 345.928 318.968 347.128 318.968 348.68V356H316.352L316.064 354.08C315.712 354.72 315.216 355.248 314.576 355.664C313.952 356.08 313.144 356.288 312.152 356.288ZM312.848 353.888C313.728 353.888 314.408 353.6 314.888 353.024C315.384 352.448 315.696 351.736 315.824 350.888H313.208C312.392 350.888 311.808 351.04 311.456 351.344C311.104 351.632 310.928 351.992 310.928 352.424C310.928 352.888 311.104 353.248 311.456 353.504C311.808 353.76 312.272 353.888 312.848 353.888ZM321.9 356V344.096H324.612L324.852 346.112C325.22 345.408 325.748 344.848 326.436 344.432C327.14 344.016 327.964 343.808 328.908 343.808C330.38 343.808 331.524 344.272 332.34 345.2C333.156 346.128 333.564 347.488 333.564 349.28V356H330.492V349.568C330.492 348.544 330.284 347.76 329.868 347.216C329.452 346.672 328.804 346.4 327.924 346.4C327.06 346.4 326.348 346.704 325.788 347.312C325.244 347.92 324.972 348.768 324.972 349.856V356H321.9ZM341.805 356C340.557 356 339.557 355.696 338.805 355.088C338.053 354.48 337.677 353.4 337.677 351.848V346.664H335.637V344.096H337.677L338.037 340.904H340.749V344.096H343.965V346.664H340.749V351.872C340.749 352.448 340.869 352.848 341.109 353.072C341.365 353.28 341.797 353.384 342.405 353.384H343.893V356H341.805ZM351.523 356.288C350.467 356.288 349.539 356.12 348.739 355.784C347.939 355.432 347.299 354.952 346.819 354.344C346.339 353.736 346.051 353.032 345.955 352.232H349.051C349.147 352.696 349.403 353.096 349.819 353.432C350.251 353.752 350.803 353.912 351.475 353.912C352.147 353.912 352.635 353.776 352.939 353.504C353.259 353.232 353.419 352.92 353.419 352.568C353.419 352.056 353.195 351.712 352.747 351.536C352.299 351.344 351.675 351.16 350.875 350.984C350.363 350.872 349.843 350.736 349.315 350.576C348.787 350.416 348.299 350.216 347.851 349.976C347.419 349.72 347.067 349.4 346.795 349.016C346.523 348.616 346.387 348.128 346.387 347.552C346.387 346.496 346.803 345.608 347.635 344.888C348.483 344.168 349.667 343.808 351.187 343.808C352.595 343.808 353.715 344.136 354.547 344.792C355.395 345.448 355.899 346.352 356.059 347.504H353.155C352.979 346.624 352.315 346.184 351.163 346.184C350.587 346.184 350.139 346.296 349.819 346.52C349.515 346.744 349.363 347.024 349.363 347.36C349.363 347.712 349.595 347.992 350.059 348.2C350.523 348.408 351.139 348.6 351.907 348.776C352.739 348.968 353.499 349.184 354.187 349.424C354.891 349.648 355.451 349.992 355.867 350.456C356.283 350.904 356.491 351.552 356.491 352.4C356.507 353.136 356.315 353.8 355.915 354.392C355.515 354.984 354.939 355.448 354.187 355.784C353.435 356.12 352.547 356.288 351.523 356.288Z" fill="#F5F9FF"/>
<circle cx="142" cy="125" r="125" fill="#FECD7D"/>
<path d="M97.0664 125.864C93.2744 125.864 90.0824 125.168 87.4904 123.776C84.8984 122.384 82.8104 120.512 81.2264 118.16C79.6424 115.808 78.4904 113.192 77.7704 110.312C77.0984 107.432 76.7624 104.48 76.7624 101.456C76.7624 95.84 77.5544 90.968 79.1384 86.84C80.7224 82.664 83.0024 79.448 85.9784 77.192C88.9544 74.888 92.5544 73.736 96.7784 73.736C100.234 73.736 103.162 74.432 105.562 75.824C108.01 77.168 109.906 78.944 111.25 81.152C112.594 83.36 113.386 85.736 113.626 88.28H105.058C104.626 86.072 103.69 84.368 102.25 83.168C100.81 81.968 98.9624 81.368 96.7064 81.368C93.4904 81.368 90.8984 82.856 88.9304 85.832C86.9624 88.76 85.9064 93.248 85.7624 99.296C86.9144 97.328 88.6424 95.696 90.9464 94.4C93.2504 93.104 95.8184 92.456 98.6504 92.456C101.434 92.456 104.05 93.128 106.498 94.472C108.946 95.816 110.914 97.712 112.402 100.16C113.938 102.608 114.706 105.488 114.706 108.8C114.706 111.824 113.962 114.632 112.474 117.224C111.034 119.816 108.97 121.904 106.282 123.488C103.642 125.072 100.57 125.864 97.0664 125.864ZM96.5624 117.944C99.2504 117.944 101.458 117.128 103.186 115.496C104.962 113.816 105.85 111.704 105.85 109.16C105.85 106.472 104.962 104.312 103.186 102.68C101.41 101.048 99.1544 100.232 96.4184 100.232C94.6424 100.232 93.0344 100.64 91.5944 101.456C90.2024 102.224 89.0984 103.28 88.2824 104.624C87.4664 105.92 87.0584 107.384 87.0584 109.016C87.0584 111.608 87.9464 113.744 89.7224 115.424C91.5464 117.104 93.8264 117.944 96.5624 117.944ZM144.427 125.864C139.771 125.864 135.787 124.784 132.475 122.624C129.163 120.416 126.595 117.368 124.771 113.48C122.995 109.544 122.107 104.984 122.107 99.8C122.107 94.664 122.995 90.128 124.771 86.192C126.595 82.256 129.163 79.208 132.475 77.048C135.787 74.84 139.771 73.736 144.427 73.736C149.083 73.736 153.067 74.84 156.379 77.048C159.691 79.208 162.235 82.256 164.011 86.192C165.835 90.128 166.747 94.664 166.747 99.8C166.747 104.984 165.835 109.544 164.011 113.48C162.235 117.368 159.691 120.416 156.379 122.624C153.067 124.784 149.083 125.864 144.427 125.864ZM144.427 117.584C148.219 117.584 151.315 116 153.715 112.832C156.115 109.664 157.315 105.32 157.315 99.8C157.315 94.28 156.115 89.936 153.715 86.768C151.315 83.6 148.219 82.016 144.427 82.016C140.587 82.016 137.467 83.6 135.067 86.768C132.715 89.936 131.539 94.28 131.539 99.8C131.539 105.32 132.715 109.664 135.067 112.832C137.467 116 140.587 117.584 144.427 117.584ZM173.305 125V118.304C176.377 115.76 179.353 113.24 182.233 110.744C185.161 108.248 187.753 105.776 190.009 103.328C192.313 100.88 194.137 98.504 195.481 96.2C196.873 93.848 197.569 91.568 197.569 89.36C197.569 87.296 196.993 85.472 195.841 83.888C194.737 82.304 192.889 81.512 190.297 81.512C187.657 81.512 185.665 82.376 184.321 84.104C182.977 85.832 182.305 87.92 182.305 90.368H173.377C173.473 86.672 174.289 83.6 175.825 81.152C177.361 78.656 179.401 76.808 181.945 75.608C184.489 74.36 187.345 73.736 190.513 73.736C195.649 73.736 199.633 75.152 202.465 77.984C205.345 80.768 206.785 84.392 206.785 88.856C206.785 91.64 206.137 94.352 204.841 96.992C203.593 99.632 201.937 102.176 199.873 104.624C197.809 107.072 195.577 109.376 193.177 111.536C190.777 113.648 188.449 115.616 186.193 117.44H208.009V125H173.305ZM73.7136 172V146.8H78.3216V157.276H89.6256V146.8H94.2336V172H89.6256V161.02H78.3216V172H73.7136ZM105.18 172.432C103.644 172.432 102.384 172.192 101.4 171.712C100.416 171.208 99.6836 170.548 99.2036 169.732C98.7236 168.916 98.4836 168.016 98.4836 167.032C98.4836 165.376 99.1316 164.032 100.428 163C101.724 161.968 103.668 161.452 106.26 161.452H110.796V161.02C110.796 159.796 110.448 158.896 109.752 158.32C109.056 157.744 108.192 157.456 107.16 157.456C106.224 157.456 105.408 157.684 104.712 158.14C104.016 158.572 103.584 159.22 103.416 160.084H98.9156C99.0356 158.788 99.4676 157.66 100.212 156.7C100.98 155.74 101.964 155.008 103.164 154.504C104.364 153.976 105.708 153.712 107.196 153.712C109.74 153.712 111.744 154.348 113.208 155.62C114.672 156.892 115.404 158.692 115.404 161.02V172H111.48L111.048 169.12C110.52 170.08 109.776 170.872 108.816 171.496C107.88 172.12 106.668 172.432 105.18 172.432ZM106.224 168.832C107.544 168.832 108.564 168.4 109.284 167.536C110.028 166.672 110.496 165.604 110.688 164.332H106.764C105.54 164.332 104.664 164.56 104.136 165.016C103.608 165.448 103.344 165.988 103.344 166.636C103.344 167.332 103.608 167.872 104.136 168.256C104.664 168.64 105.36 168.832 106.224 168.832ZM128.549 172.432C126.725 172.432 125.117 172.036 123.725 171.244C122.333 170.452 121.229 169.348 120.413 167.932C119.621 166.516 119.225 164.896 119.225 163.072C119.225 161.248 119.621 159.628 120.413 158.212C121.229 156.796 122.333 155.692 123.725 154.9C125.117 154.108 126.725 153.712 128.549 153.712C130.829 153.712 132.749 154.312 134.309 155.512C135.869 156.688 136.865 158.32 137.297 160.408H132.437C132.197 159.544 131.717 158.872 130.997 158.392C130.301 157.888 129.473 157.636 128.513 157.636C127.241 157.636 126.161 158.116 125.273 159.076C124.385 160.036 123.941 161.368 123.941 163.072C123.941 164.776 124.385 166.108 125.273 167.068C126.161 168.028 127.241 168.508 128.513 168.508C129.473 168.508 130.301 168.268 130.997 167.788C131.717 167.308 132.197 166.624 132.437 165.736H137.297C136.865 167.752 135.869 169.372 134.309 170.596C132.749 171.82 130.829 172.432 128.549 172.432ZM141.387 172V146.08H145.995V161.38L152.331 154.144H157.803L150.495 162.28L158.991 172H153.231L145.995 163.036V172H141.387ZM169.047 172.432C167.247 172.432 165.651 172.048 164.259 171.28C162.867 170.512 161.775 169.432 160.983 168.04C160.191 166.648 159.795 165.04 159.795 163.216C159.795 161.368 160.179 159.724 160.947 158.284C161.739 156.844 162.819 155.728 164.187 154.936C165.579 154.12 167.211 153.712 169.083 153.712C170.835 153.712 172.383 154.096 173.727 154.864C175.071 155.632 176.115 156.688 176.859 158.032C177.627 159.352 178.011 160.828 178.011 162.46C178.011 162.724 177.999 163 177.975 163.288C177.975 163.576 177.963 163.876 177.939 164.188H164.367C164.463 165.58 164.943 166.672 165.807 167.464C166.695 168.256 167.763 168.652 169.011 168.652C169.947 168.652 170.727 168.448 171.351 168.04C171.999 167.608 172.479 167.056 172.791 166.384H177.471C177.135 167.512 176.571 168.544 175.779 169.48C175.011 170.392 174.051 171.112 172.899 171.64C171.771 172.168 170.487 172.432 169.047 172.432ZM169.083 157.456C167.955 157.456 166.959 157.78 166.095 158.428C165.231 159.052 164.679 160.012 164.439 161.308H173.331C173.259 160.132 172.827 159.196 172.035 158.5C171.243 157.804 170.259 157.456 169.083 157.456ZM181.887 172V154.144H185.991L186.423 157.492C187.071 156.34 187.947 155.428 189.051 154.756C190.179 154.06 191.499 153.712 193.011 153.712V158.572H191.715C190.707 158.572 189.807 158.728 189.015 159.04C188.223 159.352 187.599 159.892 187.143 160.66C186.711 161.428 186.495 162.496 186.495 163.864V172H181.887ZM203.54 172.432C201.956 172.432 200.564 172.18 199.364 171.676C198.164 171.148 197.204 170.428 196.484 169.516C195.764 168.604 195.332 167.548 195.188 166.348H199.832C199.976 167.044 200.36 167.644 200.984 168.148C201.632 168.628 202.46 168.868 203.468 168.868C204.476 168.868 205.208 168.664 205.664 168.256C206.144 167.848 206.384 167.38 206.384 166.852C206.384 166.084 206.048 165.568 205.376 165.304C204.704 165.016 203.768 164.74 202.568 164.476C201.8 164.308 201.02 164.104 200.228 163.864C199.436 163.624 198.704 163.324 198.032 162.964C197.384 162.58 196.856 162.1 196.448 161.524C196.04 160.924 195.836 160.192 195.836 159.328C195.836 157.744 196.46 156.412 197.708 155.332C198.98 154.252 200.756 153.712 203.036 153.712C205.148 153.712 206.828 154.204 208.076 155.188C209.348 156.172 210.104 157.528 210.344 159.256H205.988C205.724 157.936 204.728 157.276 203 157.276C202.136 157.276 201.464 157.444 200.984 157.78C200.528 158.116 200.3 158.536 200.3 159.04C200.3 159.568 200.648 159.988 201.344 160.3C202.04 160.612 202.964 160.9 204.116 161.164C205.364 161.452 206.504 161.776 207.536 162.136C208.592 162.472 209.432 162.988 210.056 163.684C210.68 164.356 210.992 165.328 210.992 166.6C211.016 167.704 210.728 168.7 210.128 169.588C209.528 170.476 208.664 171.172 207.536 171.676C206.408 172.18 205.076 172.432 203.54 172.432Z" fill="#89072E"/>
</svg>
