<svg
  viewBox="0 0 4267 929"
  xmlns="http://www.w3.org/2000/svg"
  fillRule="evenodd"
  clipRule="evenodd"
  strokeLinejoin="round"
  strokeMiterlimit="{2}"
>
  <path
    d="M470.566 571.714c7.239 58.641 1.496 122.949-27.914 170.528-17.705 28.641-44.122 51.513-82.371 63.856-38.499 12.426-89.865 14.441-157.585-.466a244.297 244.297 0 01-12.283-3.031l280.153-230.887zM197.023 677.939l52.686-181.667 209.243 51.109-294.438 242.651 32.497-112.051.02-.011-.008-.031zm-98.358-208.62l70.877 209.226-29.628 102.159c-7.548-4.852-14.356-10.17-20.477-15.913-19.868-18.636-33.146-42.308-40.789-70.231-15.412-56.333-7.667-129.241 15.157-208.911a851.198 851.198 0 014.86-16.33zm125.544 20.727L182.31 634.514l-57.138-168.658 99.037 24.19zm118.058-177.794c15.959 37.499 33.92 74.137 53.34 109.974a1456.144 1456.144 0 0025.204 44.633c10.367 17.627 21.097 35.038 32.242 52.188l-333.859-81.548 223.008-125.406.065.159zM120.272 406.89c43.407-113.776 108.574-230.196 167.804-319.071-.694 20.129.975 41.291 4.42 62.92 7.005 43.936 21.5 90.885 39.708 136.976L120.272 406.89zM837.526 705.555c-38.457 0-72.975-8.108-103.554-24.328-30.585-16.216-54.446-38.688-71.59-67.416-17.144-29.189-25.713-62.087-25.713-98.692 0-36.604 8.569-69.269 25.713-97.997 17.144-28.727 40.774-51.199 70.892-67.416 30.58-16.218 65.334-24.326 104.252-24.326 36.605 0 68.574 7.413 95.912 22.241 27.8 14.827 48.652 36.141 62.554 63.941l-66.723 38.921c-10.656-17.144-24.092-29.886-40.313-38.226-15.753-8.804-33.128-13.205-52.123-13.205-32.436 0-59.307 10.657-80.62 31.971-21.318 20.85-31.975 48.883-31.975 84.096 0 35.215 10.426 63.477 31.277 84.795 21.313 20.846 48.421 31.272 81.318 31.272 18.995 0 36.37-4.17 52.123-12.508 16.221-8.805 29.657-21.78 40.313-38.923l66.723 38.923c-14.364 27.8-35.446 49.344-63.246 64.636-27.338 14.825-59.077 22.241-95.22 22.241zm558.138-376.005v371.138h-82.708v-47.261c-13.897 16.682-31.277 29.656-52.123 38.923-20.851 8.805-43.323 13.205-67.42 13.205-49.575 0-88.728-13.667-117.457-41.005-28.261-27.8-42.394-68.811-42.394-123.021V329.55h86.876v200.164c0 33.364 7.411 58.384 22.241 75.061 15.288 16.221 36.836 24.329 64.636 24.329 31.041 0 55.6-9.498 73.672-28.498 18.534-19.461 27.8-47.261 27.8-83.4V329.55h86.877zm519.641-115.373v486.511h-90.354V492.184h-251.595v208.504h-90.353V214.177h90.353v200.86h251.595v-200.86h90.354zm450.072 115.373v371.138h-82.708v-47.954c-14.364 17.605-32.2 30.811-53.518 39.616-20.846 8.805-44.015 13.205-69.497 13.205-36.144 0-68.58-7.877-97.303-23.631-28.266-15.754-50.507-37.995-66.723-66.723-15.754-28.728-23.631-62.087-23.631-100.082 0-37.993 7.877-71.123 23.631-99.387 16.216-28.727 38.457-50.968 66.723-66.722 28.723-15.753 61.159-23.63 97.303-23.63 24.092 0 46.102 4.17 66.025 12.51 20.385 8.34 37.995 20.619 52.821 36.836V329.55h86.877zm-195.995 301.636c31.969 0 58.38-10.657 79.231-31.97 20.851-21.312 31.277-49.343 31.277-84.097 0-34.75-10.426-62.783-31.277-84.096-20.851-21.314-47.262-31.971-79.231-31.971-31.969 0-58.379 10.657-79.231 31.971-20.389 21.313-30.579 49.346-30.579 84.096 0 34.754 10.19 62.785 30.579 84.097 20.852 21.313 47.262 31.97 79.231 31.97zm445.19 74.369c-38.457 0-72.975-8.108-103.554-24.328-30.585-16.216-54.446-38.688-71.59-67.416-17.143-29.189-25.713-62.087-25.713-98.692 0-36.604 8.57-69.269 25.713-97.997 17.144-28.727 40.775-51.199 70.893-67.416 30.579-16.218 65.333-24.326 104.251-24.326 36.605 0 68.574 7.413 95.913 22.241 27.8 14.827 48.651 36.141 62.553 63.941l-66.723 38.921c-10.656-17.144-24.092-29.886-40.312-38.226-15.754-8.804-33.129-13.205-52.124-13.205-32.435 0-59.307 10.657-80.625 31.971-21.313 20.85-31.969 48.883-31.969 84.096 0 35.215 10.425 63.477 31.277 84.795 21.312 20.846 48.42 31.272 81.317 31.272 18.995 0 36.37-4.17 52.124-12.508 16.22-8.805 29.656-21.78 40.312-38.923l66.723 38.923c-14.364 27.8-35.446 49.344-63.246 64.636-27.338 14.825-59.077 22.241-95.22 22.241zM2964.9 541.529l-64.636 61.164v97.995h-86.877V184.986h86.877v311.368l180.01-166.804h104.252l-154.99 155.684 169.585 215.454h-105.642L2964.9 541.529zm252.195-211.979h86.877v371.138h-86.877V329.55zm43.784-61.162c-15.753 0-28.958-4.864-39.615-14.595-10.656-10.194-15.985-22.704-15.985-37.531 0-14.827 5.329-27.106 15.985-36.836 10.657-10.193 23.862-15.29 39.615-15.29 15.754 0 28.959 4.865 39.616 14.595 10.656 9.267 15.984 21.082 15.984 35.446 0 15.291-5.328 28.264-15.984 38.921-10.19 10.194-23.4 15.29-39.616 15.29zm332.959 56.992c46.795 0 84.329 13.669 112.59 41.006 28.267 27.337 42.4 67.88 42.4 121.628v212.674h-86.877V499.134c0-32.434-7.646-56.76-22.938-72.977-15.292-16.68-37.067-25.02-65.334-25.02-31.969 0-57.22 9.73-75.753 29.191-18.534 18.997-27.8 46.566-27.8 82.709v187.651h-86.877V329.55h82.707v47.956c14.359-17.143 32.431-30.117 54.211-38.921 21.774-8.803 46.333-13.205 73.671-13.205zm602.2 4.17v314.841c0 130.666-66.723 195.995-200.164 195.995-35.682 0-69.502-4.631-101.477-13.898-31.969-8.805-58.379-21.779-79.23-38.923l38.923-65.328c16.215 13.436 36.605 24.092 61.159 31.969 25.02 8.339 50.272 12.508 75.759 12.508 40.774 0 70.661-9.267 89.656-27.8 18.995-18.533 28.498-46.795 28.498-84.79v-19.461c-14.831 16.215-32.898 28.497-54.216 36.835-21.313 8.339-44.713 12.513-70.195 12.513-35.215 0-67.184-7.415-95.913-22.241-28.261-15.292-50.733-36.605-67.415-63.943-16.215-27.339-24.328-58.616-24.328-93.826 0-35.216 8.113-66.26 24.328-93.134 16.682-27.337 39.154-48.419 67.415-63.246 28.729-14.828 60.698-22.241 95.913-22.241 26.877 0 51.2 4.402 72.98 13.205 22.241 8.804 40.774 22.241 55.6 40.311V329.55h82.707zm-198.082 280.789c32.898 0 59.775-9.733 80.621-29.194 21.318-19.923 31.974-45.636 31.974-77.144 0-31.046-10.656-56.298-31.974-75.758-20.846-19.461-47.723-29.191-80.621-29.191-33.359 0-60.697 9.73-82.01 29.191-20.851 19.46-31.277 44.712-31.277 75.758 0 31.508 10.426 57.221 31.277 77.144 21.313 19.461 48.651 29.194 82.01 29.194z"
    fill="#fff"
    fillRule="nonzero"
  />
</svg>
