<svg  viewBox="0 0 1135 181" fill="none" xmlns="http://www.w3.org/2000/svg">
<path d="M85.6128 113.475C87.0245 124.91 85.9046 137.45 80.1697 146.728C76.7171 152.313 71.5658 156.773 64.1073 159.18C56.6 161.603 46.5836 161.996 33.3783 159.089C32.5558 158.908 31.7574 158.711 30.983 158.498L85.6128 113.475ZM32.272 134.189L42.5458 98.7639L83.3482 108.73L25.9327 156.047L32.2696 134.197L32.2736 134.195L32.272 134.189ZM13.0921 93.508L26.9131 134.307L21.1357 154.228C19.6639 153.283 18.3364 152.245 17.1427 151.125C13.2684 147.491 10.6792 142.875 9.18891 137.43C6.18358 126.445 7.69386 112.228 12.1445 96.6923C12.4476 95.6354 12.7634 94.5737 13.0921 93.508ZM37.5732 97.5497L29.403 125.721L18.261 92.8327L37.5732 97.5497ZM60.5946 62.88C63.7065 70.1922 67.2089 77.3367 70.9958 84.3248C72.583 87.2536 74.2208 90.1561 75.9106 93.0283C77.9323 96.4656 80.0246 99.8607 82.1978 103.205L17.0954 87.3031L60.5818 62.8489L60.5946 62.88ZM17.3055 81.3344C25.7699 59.1481 38.4775 36.4462 50.0274 19.1156C49.8919 23.0406 50.2174 27.1672 50.8892 31.3849C52.2552 39.9524 55.0817 49.1075 58.6322 58.0952L17.3055 81.3344Z" fill="white"/>
<path d="M157.17 139.574C149.671 139.574 142.94 137.993 136.977 134.83C131.013 131.668 126.36 127.286 123.017 121.684C119.674 115.992 118.003 109.577 118.003 102.439C118.003 95.3013 119.674 88.9315 123.017 83.3296C126.36 77.7278 130.968 73.3457 136.841 70.1834C142.804 67.021 149.581 65.4399 157.17 65.4399C164.308 65.4399 170.542 66.8855 175.873 69.7768C181.294 72.6681 185.36 76.8243 188.071 82.2454L175.06 89.835C172.982 86.492 170.362 84.0073 167.199 82.3809C164.127 80.6642 160.739 79.8059 157.035 79.8059C150.71 79.8059 145.47 81.884 141.314 86.0402C137.157 90.1061 135.079 95.5724 135.079 102.439C135.079 109.306 137.112 114.817 141.178 118.974C145.334 123.039 150.62 125.072 157.035 125.072C160.739 125.072 164.127 124.259 167.199 122.633C170.362 120.916 172.982 118.386 175.06 115.043L188.071 122.633C185.27 128.054 181.159 132.255 175.738 135.237C170.407 138.128 164.218 139.574 157.17 139.574ZM266.007 66.2531V138.625H249.879V129.409C247.169 132.662 243.78 135.192 239.715 136.999C235.649 138.716 231.267 139.574 226.568 139.574C216.901 139.574 209.266 136.909 203.664 131.578C198.153 126.157 195.397 118.16 195.397 107.589V66.2531H212.338V105.285C212.338 111.791 213.783 116.67 216.675 119.922C219.656 123.085 223.858 124.666 229.279 124.666C235.332 124.666 240.121 122.814 243.645 119.109C247.259 115.314 249.066 109.893 249.066 102.846V66.2531H266.007ZM367.337 43.7553V138.625H349.718V97.9667H300.657V138.625H283.038V43.7553H300.657V82.9231H349.718V43.7553H367.337ZM455.101 66.2531V138.625H438.973V129.274C436.172 132.707 432.694 135.282 428.537 136.999C424.472 138.716 419.954 139.574 414.985 139.574C407.937 139.574 401.612 138.038 396.011 134.966C390.499 131.894 386.162 127.557 383 121.955C379.928 116.353 378.392 109.848 378.392 102.439C378.392 95.0303 379.928 88.5701 383 83.0586C386.162 77.4567 390.499 73.1198 396.011 70.0478C401.612 66.9759 407.937 65.4399 414.985 65.4399C419.683 65.4399 423.975 66.2531 427.86 67.8794C431.835 69.5057 435.269 71.9001 438.16 75.0624V66.2531H455.101ZM416.882 125.072C423.116 125.072 428.266 122.994 432.332 118.838C436.398 114.682 438.431 109.216 438.431 102.439C438.431 95.6627 436.398 90.1964 432.332 86.0402C428.266 81.884 423.116 79.8059 416.882 79.8059C410.648 79.8059 405.498 81.884 401.432 86.0402C397.456 90.1964 395.469 95.6627 395.469 102.439C395.469 109.216 397.456 114.682 401.432 118.838C405.498 122.994 410.648 125.072 416.882 125.072ZM503.694 139.574C496.195 139.574 489.464 137.993 483.501 134.83C477.537 131.668 472.884 127.286 469.541 121.684C466.198 115.992 464.527 109.577 464.527 102.439C464.527 95.3013 466.198 88.9315 469.541 83.3296C472.884 77.7278 477.492 73.3457 483.365 70.1834C489.328 67.021 496.105 65.4399 503.694 65.4399C510.832 65.4399 517.066 66.8855 522.397 69.7768C527.818 72.6681 531.884 76.8243 534.595 82.2454L521.584 89.835C519.506 86.492 516.886 84.0073 513.723 82.3809C510.651 80.6642 507.263 79.8059 503.559 79.8059C497.234 79.8059 491.994 81.884 487.837 86.0402C483.681 90.1061 481.603 95.5724 481.603 102.439C481.603 109.306 483.636 114.817 487.702 118.974C491.858 123.039 497.144 125.072 503.559 125.072C507.263 125.072 510.651 124.259 513.723 122.633C516.886 120.916 519.506 118.386 521.584 115.043L534.595 122.633C531.794 128.054 527.683 132.255 522.262 135.237C516.931 138.128 510.742 139.574 503.694 139.574ZM572.008 107.589L559.404 119.516V138.625H542.463V38.0631H559.404V98.7799L594.506 66.2531H614.835L584.612 96.6114L617.681 138.625H597.081L572.008 107.589ZM621.186 66.2531H638.127V138.625H621.186V66.2531ZM629.724 54.3265C626.652 54.3265 624.077 53.3779 621.999 51.4805C619.921 49.4927 618.882 47.0532 618.882 44.1619C618.882 41.2706 619.921 38.8763 621.999 36.9789C624.077 34.9912 626.652 33.9973 629.724 33.9973C632.796 33.9973 635.371 34.946 637.449 36.8434C639.527 38.6504 640.566 40.9544 640.566 43.7553C640.566 46.737 639.527 49.2668 637.449 51.3449C635.462 53.3327 632.886 54.3265 629.724 54.3265ZM694.651 65.4399C703.776 65.4399 711.095 68.1053 716.606 73.4361C722.118 78.7668 724.874 86.6727 724.874 97.1535V138.625H707.933V99.322C707.933 92.9973 706.442 88.2538 703.46 85.0915C700.478 81.8388 696.232 80.2125 690.72 80.2125C684.486 80.2125 679.562 82.1099 675.948 85.9047C672.334 89.6091 670.527 94.9851 670.527 102.033V138.625H653.586V66.2531H669.714V75.6045C672.514 72.2615 676.038 69.7316 680.285 68.0149C684.531 66.2982 689.32 65.4399 694.651 65.4399ZM812.08 66.2531V127.647C812.08 153.127 799.069 165.866 773.048 165.866C766.09 165.866 759.495 164.963 753.26 163.156C747.026 161.439 741.876 158.909 737.81 155.566L745.4 142.827C748.562 145.447 752.538 147.525 757.326 149.061C762.205 150.687 767.129 151.5 772.099 151.5C780.05 151.5 785.878 149.693 789.582 146.079C793.286 142.465 795.139 136.954 795.139 129.545V125.75C792.247 128.912 788.724 131.307 784.567 132.933C780.411 134.559 775.848 135.373 770.879 135.373C764.012 135.373 757.778 133.927 752.176 131.036C746.665 128.054 742.283 123.898 739.03 118.567C735.868 113.236 734.286 107.137 734.286 100.271C734.286 93.4039 735.868 87.3503 739.03 82.1099C742.283 76.7791 746.665 72.6681 752.176 69.7768C757.778 66.8855 764.012 65.4399 770.879 65.4399C776.12 65.4399 780.863 66.2982 785.11 68.0149C789.447 69.7316 793.061 72.3518 795.952 75.8756V66.2531H812.08ZM773.454 121.007C779.869 121.007 785.11 119.109 789.175 115.314C793.332 111.429 795.41 106.415 795.41 100.271C795.41 94.2171 793.332 89.2929 789.175 85.4981C785.11 81.7033 779.869 79.8059 773.454 79.8059C766.949 79.8059 761.618 81.7033 757.462 85.4981C753.396 89.2929 751.363 94.2171 751.363 100.271C751.363 106.415 753.396 111.429 757.462 115.314C761.618 119.109 766.949 121.007 773.454 121.007ZM921.818 123.717V138.625H851.885V126.834L889.562 91.0548C893.808 86.9889 896.654 83.4652 898.1 80.4835C899.636 77.4116 900.404 74.3848 900.404 71.4031C900.404 66.9759 898.913 63.5877 895.932 61.2385C892.95 58.8893 888.568 57.7148 882.785 57.7148C873.118 57.7148 865.709 61.0126 860.559 67.6083L848.226 58.1213C851.93 53.152 856.899 49.312 863.134 46.6014C869.458 43.8005 876.506 42.4 884.276 42.4C894.576 42.4 902.798 44.8396 908.942 49.7186C915.086 54.5976 918.158 61.2385 918.158 69.6413C918.158 74.7913 917.074 79.6252 914.906 84.1428C912.737 88.6604 908.581 93.8105 902.437 99.5931L877.093 123.717H921.818ZM964.387 139.981C956.798 139.981 950.021 138.083 944.058 134.288C938.095 130.403 933.396 124.801 929.963 117.483C926.53 110.074 924.813 101.31 924.813 91.1903C924.813 81.0708 926.53 72.3518 929.963 65.0333C933.396 57.6244 938.095 52.0226 944.058 48.2278C950.021 44.3426 956.798 42.4 964.387 42.4C971.977 42.4 978.753 44.3426 984.717 48.2278C990.77 52.0226 995.514 57.6244 998.947 65.0333C1002.38 72.3518 1004.1 81.0708 1004.1 91.1903C1004.1 101.31 1002.38 110.074 998.947 117.483C995.514 124.801 990.77 130.403 984.717 134.288C978.753 138.083 971.977 139.981 964.387 139.981ZM964.387 124.666C971.164 124.666 976.494 121.865 980.38 116.263C984.355 110.661 986.343 102.304 986.343 91.1903C986.343 80.077 984.355 71.7194 980.38 66.1175C976.494 60.5157 971.164 57.7148 964.387 57.7148C957.701 57.7148 952.37 60.5157 948.395 66.1175C944.51 71.7194 942.567 80.077 942.567 91.1903C942.567 102.304 944.51 110.661 948.395 116.263C952.37 121.865 957.701 124.666 964.387 124.666ZM1077.28 123.717V138.625H1007.35V126.834L1045.02 91.0548C1049.27 86.9889 1052.12 83.4652 1053.56 80.4835C1055.1 77.4116 1055.86 74.3848 1055.86 71.4031C1055.86 66.9759 1054.37 63.5877 1051.39 61.2385C1048.41 58.8893 1044.03 57.7148 1038.25 57.7148C1028.58 57.7148 1021.17 61.0126 1016.02 67.6083L1003.69 58.1213C1007.39 53.152 1012.36 49.312 1018.59 46.6014C1024.92 43.8005 1031.97 42.4 1039.74 42.4C1050.04 42.4 1058.26 44.8396 1064.4 49.7186C1070.55 54.5976 1073.62 61.2385 1073.62 69.6413C1073.62 74.7913 1072.53 79.6252 1070.37 84.1428C1068.2 88.6604 1064.04 93.8105 1057.9 99.5931L1032.55 123.717H1077.28ZM1113.47 43.7553V138.625H1095.85V58.5279H1075.79V43.7553H1113.47Z" fill="white"/>
</svg>
