<svg width="18" height="18" viewBox="0 0 18 18" fill="none" xmlns="http://www.w3.org/2000/svg">
<path d="M5.01003 1.62489L3.71916 0.334015C1.55266 1.98597 0.126379 4.53161 0 7.42027H1.80542C1.86936 6.27547 2.19072 5.15983 2.74556 4.15643C3.3004 3.15303 4.07443 2.2877 5.01003 1.62489ZM16.1946 7.42027H18C17.8646 4.53161 16.4383 1.98597 14.2808 0.334015L12.999 1.62489C13.9306 2.29097 14.7012 3.15724 15.2542 4.16011C15.8071 5.16298 16.1285 6.27696 16.1946 7.42027ZM14.4163 7.87163C14.4163 5.10031 12.9358 2.78035 10.3541 2.16651V0.198608H7.64594V2.16651C5.05517 2.78035 3.58375 5.09129 3.58375 7.87163V12.3852L1.77834 14.1906V15.0933H16.2217V14.1906L14.4163 12.3852V7.87163ZM9 17.8014C9.12638 17.8014 9.24373 17.7924 9.36108 17.7653C9.94784 17.6389 10.4263 17.2417 10.661 16.7001C10.7513 16.4835 10.7964 16.2488 10.7964 15.996H7.18556C7.19458 16.989 7.99799 17.8014 9 17.8014Z" fill="white"/>
</svg>
