<svg width="18" height="18" viewBox="0 0 18 18" fill="none" xmlns="http://www.w3.org/2000/svg">
<path d="M14.4 8.09999C14.4 7.23689 13.788 6.51509 12.9771 6.34139C13.3011 5.80049 13.5 5.17499 13.5 4.49999C13.5 2.51459 11.8854 0.899994 9.9 0.899994C8.5356 0.899994 7.3602 1.67129 6.75 2.79359C6.1398 1.67129 4.9644 0.899994 3.6 0.899994C1.6146 0.899994 0 2.51459 0 4.49999C0 5.31179 0.2808 6.05339 0.7353 6.65639C0.508077 6.82246 0.32312 7.03967 0.195383 7.29045C0.0676468 7.54123 0.000715162 7.81855 0 8.09999V15.3C0 16.2927 0.8073 17.1 1.8 17.1H12.6C13.5927 17.1 14.4 16.2927 14.4 15.3V12.9267L18 14.7267V8.42669L14.4 10.2267V8.09999ZM9.9 2.69999C10.8927 2.69999 11.7 3.50729 11.7 4.49999C11.7 5.49269 10.8927 6.29999 9.9 6.29999C8.9073 6.29999 8.1 5.49269 8.1 4.49999C8.1 3.50729 8.9073 2.69999 9.9 2.69999ZM3.6 2.69999C4.5927 2.69999 5.4 3.50729 5.4 4.49999C5.4 5.49269 4.5927 6.29999 3.6 6.29999C2.6073 6.29999 1.8 5.49269 1.8 4.49999C1.8 3.50729 2.6073 2.69999 3.6 2.69999Z" fill="white"/>
</svg>
