<svg width="18" height="18" viewBox="0 0 18 18" fill="none" xmlns="http://www.w3.org/2000/svg">
<path d="M15 3H16.96C17.53 3 18 3.47 18 4.04V16.96C18 17.53 17.53 18 16.96 18H4.04C3.47 18 3 17.53 3 16.96V15H1.04C0.47 15 0 14.53 0 13.96V1.04C0 0.47 0.47 0 1.04 0H13.96C14.53 0 15 0.47 15 1.04V3ZM2 13H13V2H2V13ZM7 4.5C7 3.67 6.33 3 5.5 3C4.67 3 4 3.67 4 4.5C4 5.33 4.67 6 5.5 6C6.33 6 7 5.33 7 4.5ZM9 9C9 9 10 4 12 4V12H3V6C5 6 5 9 5 9C5 9 5.33 7 7 7C8.67 7 9 9 9 9ZM16 16V5H15V13.96C15 14.53 14.53 15 13.96 15H5V16H16Z" fill="white"/>
</svg>
