<svg width="18" height="20" viewBox="0 0 18 20" fill="none" xmlns="http://www.w3.org/2000/svg">
<path d="M7.48221 1.30684C7.69678 1.09242 7.95526 0.927034 8.23987 0.822074C8.52448 0.717113 8.82845 0.67507 9.13086 0.698838C9.43328 0.722605 9.72695 0.811618 9.99167 0.959751C10.2564 1.10788 10.4859 1.31162 10.6643 1.55693L10.9629 1.96846L4.92254 8.00883L4.56794 7.77274C4.30954 7.60035 4.09261 7.37278 3.93279 7.10643C3.77297 6.84009 3.67424 6.54159 3.64371 6.23248C3.61318 5.92336 3.65162 5.61133 3.75625 5.31886C3.86089 5.0264 4.02911 4.76079 4.24879 4.54119L7.48221 1.30778V1.30684Z" fill="white"/>
<path d="M6.11153 8.80015L8.50043 10.394C8.58255 10.4481 8.65067 10.519 8.70293 10.6012L9.85445 12.4096L15.4637 6.79945L13.4574 5.34091C13.3983 5.29765 13.3463 5.24538 13.3034 5.186L11.7973 3.11438L6.1106 8.80108L6.11153 8.80015Z" fill="white"/>
<path d="M10.8744 14.0118L10.6243 13.6199L16.6105 7.63269L17.0864 7.97983C17.3317 8.15827 17.5355 8.38774 17.6836 8.65246C17.8317 8.91718 17.9208 9.21085 17.9445 9.51326C17.9683 9.81567 17.9262 10.1196 17.8213 10.4043C17.7163 10.6889 17.5509 10.9473 17.3365 11.1619L14.1302 14.3692C13.9078 14.5917 13.6384 14.7613 13.3417 14.8657C13.045 14.97 12.7287 15.0064 12.416 14.9721C12.1034 14.9378 11.8025 14.8337 11.5355 14.6675C11.2685 14.5013 11.0422 14.2772 10.8734 14.0118H10.8744Z" fill="white"/>
<path d="M6.18708 10.254L0.51997 15.8138C0.359674 15.9639 0.231094 16.1446 0.141833 16.3452C0.0525727 16.5458 0.00444399 16.7622 0.000293472 16.9818C-0.00385705 17.2013 0.0360547 17.4194 0.117669 17.6233C0.199282 17.8271 0.320941 18.0125 0.475451 18.1685C0.629961 18.3245 0.814184 18.448 1.01723 18.5316C1.22027 18.6151 1.43801 18.6572 1.65757 18.6551C1.87714 18.6531 2.09406 18.607 2.29552 18.5197C2.49698 18.4324 2.67889 18.3056 2.83048 18.1467L8.50879 12.4684L7.77159 11.3104L6.18708 10.254Z" fill="white"/>
<path d="M11.2344 16.5081C11.0488 16.5081 10.8708 16.5819 10.7395 16.7131C10.6083 16.8444 10.5345 17.0224 10.5345 17.208C10.5345 17.3936 10.6083 17.5716 10.7395 17.7029C10.8708 17.8341 11.0488 17.9079 11.2344 17.9079H9.36809C9.18247 17.9079 9.00445 17.9816 8.8732 18.1129C8.74195 18.2441 8.66821 18.4221 8.66821 18.6077C8.66821 18.7934 8.74195 18.9714 8.8732 19.1026C9.00445 19.2339 9.18247 19.3076 9.36809 19.3076H17.3C17.4856 19.3076 17.6636 19.2339 17.7949 19.1026C17.9261 18.9714 17.9999 18.7934 17.9999 18.6077C17.9999 18.4221 17.9261 18.2441 17.7949 18.1129C17.6636 17.9816 17.4856 17.9079 17.3 17.9079H15.4337C15.6193 17.9079 15.7973 17.8341 15.9285 17.7029C16.0598 17.5716 16.1335 17.3936 16.1335 17.208C16.1335 17.0224 16.0598 16.8444 15.9285 16.7131C15.7973 16.5819 15.6193 16.5081 15.4337 16.5081H11.2344Z" fill="white"/>
</svg>
