<svg width="18" height="18" viewBox="0 0 18 18" fill="none" xmlns="http://www.w3.org/2000/svg">
<path d="M15.7346 17.9824H2.2478C1.62732 17.9824 1.09756 17.7629 0.658536 17.3239C0.219512 16.8849 0 16.3551 0 15.7346V2.2478C0 1.62732 0.219512 1.09756 0.658536 0.658537C1.09756 0.219512 1.62732 0 2.2478 0H15.7346C16.3551 0 16.8849 0.219512 17.3239 0.658537C17.7629 1.09756 17.9824 1.62732 17.9824 2.2478V15.7346C17.9824 16.3551 17.7629 16.8849 17.3239 17.3239C16.8849 17.7629 16.3551 17.9824 15.7346 17.9824ZM5.61951 12.9249C5.61951 12.7727 5.5639 12.641 5.45268 12.5298C5.34146 12.4185 5.20976 12.3629 5.05756 12.3629H3.93366C3.78146 12.3629 3.64976 12.4185 3.53854 12.5298C3.42732 12.641 3.37171 12.7727 3.37171 12.9249V15.1727C3.37171 15.3249 3.42732 15.4566 3.53854 15.5678C3.64976 15.679 3.78146 15.7346 3.93366 15.7346H5.05756C5.20976 15.7346 5.34146 15.679 5.45268 15.5678C5.5639 15.4566 5.61951 15.3249 5.61951 15.1727V12.9249ZM10.1151 8.42927C10.1151 8.27707 10.0595 8.14537 9.94829 8.03415C9.83707 7.92293 9.70537 7.86732 9.55317 7.86732H8.42927C8.27707 7.86732 8.14536 7.92293 8.03415 8.03415C7.92293 8.14537 7.86732 8.27707 7.86732 8.42927V15.1727C7.86732 15.3249 7.92293 15.4566 8.03415 15.5678C8.14536 15.679 8.27707 15.7346 8.42927 15.7346H9.55317C9.70537 15.7346 9.83707 15.679 9.94829 15.5678C10.0595 15.4566 10.1151 15.3249 10.1151 15.1727V8.42927ZM14.6107 2.80976C14.6107 2.65756 14.5551 2.52585 14.4439 2.41463C14.3327 2.30341 14.201 2.2478 14.0488 2.2478H12.9249C12.7727 2.2478 12.641 2.30341 12.5298 2.41463C12.4185 2.52585 12.3629 2.65756 12.3629 2.80976V15.1727C12.3629 15.3249 12.4185 15.4566 12.5298 15.5678C12.641 15.679 12.7727 15.7346 12.9249 15.7346H14.0488C14.201 15.7346 14.3327 15.679 14.4439 15.5678C14.5551 15.4566 14.6107 15.3249 14.6107 15.1727V2.80976Z" fill="white"/>
</svg>
