<svg width="18" height="18" viewBox="0 0 18 18" fill="none" xmlns="http://www.w3.org/2000/svg">
<path d="M2.67641 0.384078C2.67641 0.384078 0.836841 4.95271 0.00285422 11.8106C-0.0718446 12.4238 1.34023 11.8751 1.82743 11.6894C2.92841 4.93501 4.50038 0.306679 4.50038 0.306679C4.04139 0.22808 2.67641 0.384078 2.67641 0.384078" fill="white"/>
<path d="M10.5842 0.885108C11.2327 1.93599 10.9492 3.60187 10.5566 5.25454C9.90856 7.9257 8.38069 10.6872 5.90843 10.6872C3.57086 10.6872 3.32786 8.1504 3.94976 5.55274C4.32745 3.97866 4.94934 2.37279 5.89493 1.3069C6.62481 0.494514 7.6247 0.00012207 8.62428 0.00012207C9.59687 0.00012207 10.2596 0.194519 10.5842 0.885108ZM5.82743 5.56864C5.30063 7.7466 5.54423 8.84129 6.40942 8.84129C7.3136 8.84129 8.16499 7.46011 8.71998 5.19394C9.23297 3.03248 8.98968 2.04039 8.12479 2.04039C7.3001 2.04039 6.39562 3.24157 5.82743 5.56864Z" fill="white"/>
<path d="M17.6148 0.886008C18.2634 1.93599 17.9796 3.60187 17.5878 5.25424C16.9389 7.9254 15.4125 10.6875 12.9397 10.6875C10.6021 10.6875 10.3585 8.1501 10.9804 5.55304C11.3593 3.97836 11.9803 2.37249 12.9265 1.3066C13.656 0.496014 14.6556 0.00012207 15.6558 0.00012207C16.629 0.00012207 17.2905 0.194519 17.6148 0.886008V0.886008ZM12.8587 5.56894C12.3319 7.7463 12.5749 8.84158 13.4395 8.84158C14.3454 8.84158 15.1965 7.45951 15.75 5.19484C16.2633 3.03157 16.0206 2.04009 15.1554 2.04009C14.3313 2.04039 13.4257 3.24157 12.8587 5.56894" fill="white"/>
<path d="M13.6684 13.974C12.059 13.974 3.66629 14.6343 0.36064 14.906C0.135344 14.0499 0.429639 13.2888 0.810633 12.9192C2.47141 12.6066 13.5124 11.7534 14.344 12.2403C14.2054 12.8436 13.963 13.605 13.6684 13.974Z" fill="white"/>
<path d="M12.2579 17.3335C10.6142 17.3335 5.37959 17.6983 2.00374 17.9998C1.77395 17.0461 2.07454 16.2038 2.46334 15.7937C4.15951 15.4466 12.0986 14.8676 12.9473 15.4076C12.8063 16.0778 12.5585 16.9226 12.2579 17.3335Z" fill="white"/>
</svg>
