<svg width="18" height="18" viewBox="0 0 18 18" fill="none" xmlns="http://www.w3.org/2000/svg">
<path d="M15.0846 8.18917C14.2495 7.12036 13.1057 6.42144 11.857 6.21702C10.8068 6.03791 9.73685 6.06799 8.69575 6.30589C8.8123 7.21641 8.78779 8.14291 8.6233 9.04394C7.94739 0.839788 3.1339 0.40142 0 0C1.13011 0.497426 2.11228 1.34675 2.83261 2.44946H3.82305L3.64635 3.59581H4.19767L4.05631 4.46854L4.11197 4.58338H3.43165L3.29735 5.35327H2.18498L1.90755 6.95096H3.24169L3.33358 6.41673H4.64032L4.83912 5.2644H5.42048L5.26056 6.28592H6.06635L5.87639 7.50316H6.75992L6.47277 9.35149H6.22804L6.10964 10.1144H5.02996L4.78787 11.6122H6.03719L6.11141 11.1539H7.09743L6.85534 12.7076H6.02747C6.05893 14.4944 5.86193 16.2769 5.44257 18C8.10908 17.1612 9.48386 12.9403 12.7538 11.2468C15.5811 9.78287 18.0453 11.2468 17.9994 10.6576C17.911 9.55919 15.6942 8.33097 15.0837 8.18717L15.0846 8.18917ZM12.5161 8.07933C11.9604 7.50815 13.0754 7.614 13.9192 8.38788C13.6799 8.45985 13.4293 8.46946 13.1863 8.41602C12.9432 8.36257 12.7141 8.24744 12.5161 8.07933Z" fill="white"/>
</svg>
