<svg width="111" height="100" viewBox="0 0 111 100" fill="none" xmlns="http://www.w3.org/2000/svg">
<path d="M55.51 99.9999C55.9642 99.9999 56.3983 99.8195 56.719 99.4989L109.719 46.4781C110.387 45.8102 110.387 44.7281 109.719 44.06L84.306 18.6363C83.9854 18.3157 83.5512 18.1353 83.0971 18.1353H27.9128C27.4587 18.1353 27.0245 18.3157 26.7039 18.6363L1.28097 44.06C0.613048 44.728 0.613048 45.81 1.28097 46.4781L54.301 99.4989C54.6215 99.8195 55.0556 99.9999 55.51 99.9999ZM37.9835 46.1242L53.0515 93.4126L5.76305 46.1242H37.9835ZM63.9415 21.5554L71.2204 44.4142H39.7778L47.0616 21.5554H63.9415ZM105.237 46.1242L57.9479 93.432L73.0147 46.1242H105.237ZM71.2204 46.1242L55.5033 95.4727L39.7778 46.124H71.2204V46.1242ZM105.237 44.4142H73.0149L65.7358 21.5554H82.3889L105.237 44.4142ZM28.6209 21.5554H45.2671L37.9835 44.4142H5.76305L28.6209 21.5554Z" fill="#89072E"/>
<path d="M80.397 56.0565H82.2674V57.9269C82.2674 58.3995 82.6497 58.7819 83.1224 58.7819C83.595 58.7819 83.9774 58.3995 83.9774 57.9269V56.0565H85.8478C86.3204 56.0565 86.7028 55.6741 86.7028 55.2015C86.7028 54.7288 86.3204 54.3465 85.8478 54.3465H83.9774V52.4761C83.9774 52.0034 83.595 51.6211 83.1224 51.6211C82.6497 51.6211 82.2674 52.0034 82.2674 52.4761V54.3465H80.397C79.9243 54.3465 79.542 54.7288 79.542 55.2015C79.542 55.6741 79.9243 56.0565 80.397 56.0565Z" fill="#CA4353"/>
<path d="M80.397 32.8817H82.2674V34.7521C82.2674 35.2247 82.6497 35.6071 83.1224 35.6071C83.595 35.6071 83.9774 35.2247 83.9774 34.7521V32.8817H85.8478C86.3204 32.8817 86.7028 32.4993 86.7028 32.0267C86.7028 31.554 86.3204 31.1717 85.8478 31.1717H83.9774V29.3013C83.9774 28.8286 83.595 28.4463 83.1224 28.4463C82.6497 28.4463 82.2674 28.8286 82.2674 29.3013V31.1717H80.397C79.9243 31.1717 79.542 31.554 79.542 32.0267C79.542 32.4993 79.9243 32.8817 80.397 32.8817Z" fill="#CA4353"/>
<path d="M56.3147 38.3326H58.1851V40.203C58.1851 40.6756 58.5675 41.058 59.0401 41.058C59.5128 41.058 59.8951 40.6756 59.8951 40.203V38.3326H61.7655C62.2382 38.3326 62.6205 37.9503 62.6205 37.4776C62.6205 37.005 62.2382 36.6226 61.7655 36.6226H59.8951V34.7522C59.8951 34.2796 59.5128 33.8972 59.0401 33.8972C58.5675 33.8972 58.1851 34.2796 58.1851 34.7522V36.6226H56.3147C55.8421 36.6226 55.4597 37.005 55.4597 37.4776C55.4597 37.9503 55.8421 38.3326 56.3147 38.3326Z" fill="#CA4353"/>
<path d="M56.3551 71.2323V69.3619H58.2255C58.6981 69.3619 59.0805 68.9796 59.0805 68.5069C59.0805 68.0343 58.6981 67.6519 58.2255 67.6519H56.3551V65.7815C56.3551 65.3089 55.9727 64.9265 55.5001 64.9265C55.0274 64.9265 54.6451 65.3089 54.6451 65.7815V67.6519H52.7747C52.302 67.6519 51.9197 68.0343 51.9197 68.5069C51.9197 68.9796 52.302 69.3619 52.7747 69.3619H54.6451V71.2323C54.6451 71.7049 55.0274 72.0873 55.5001 72.0873C55.9727 72.0873 56.3551 71.7048 56.3551 71.2323Z" fill="#CA4353"/>
<path d="M23.3792 39.473H25.2496V41.3434C25.2496 41.816 25.6319 42.1984 26.1046 42.1984C26.5772 42.1984 26.9596 41.816 26.9596 41.3434V39.473H28.83C29.3026 39.473 29.685 39.0906 29.685 38.618C29.685 38.1453 29.3026 37.763 28.83 37.763H26.9596V35.8926C26.9596 35.42 26.5772 35.0376 26.1046 35.0376C25.6319 35.0376 25.2496 35.42 25.2496 35.8926V37.763H23.3792C22.9065 37.763 22.5242 38.1453 22.5242 38.618C22.5242 39.0906 22.9067 39.473 23.3792 39.473Z" fill="#CA4353"/>
<path d="M31.3596 57.8373H33.23V59.7076C33.23 60.1803 33.6124 60.5626 34.085 60.5626C34.5577 60.5626 34.94 60.1803 34.94 59.7076V57.8373H36.8104C37.2831 57.8373 37.6654 57.4549 37.6654 56.9823C37.6654 56.5096 37.2831 56.1273 36.8104 56.1273H34.94V54.2569C34.94 53.7842 34.5577 53.4019 34.085 53.4019C33.6124 53.4019 33.23 53.7842 33.23 54.2569V56.1273H31.3596C30.887 56.1273 30.5046 56.5096 30.5046 56.9823C30.5046 57.4549 30.887 57.8373 31.3596 57.8373Z" fill="#CA4353"/>
<path d="M89.8232 17.3376L94.6326 11.5513C95.2371 10.8249 95.1369 9.74695 94.4122 9.14332C93.6823 8.53884 92.6054 8.64144 92.0042 9.36545L87.1948 15.1517C86.5903 15.8782 86.6905 16.9561 87.4152 17.5598C87.7358 17.8253 88.1233 17.9548 88.5074 17.9548C88.9981 17.9546 89.4858 17.7443 89.8232 17.3376Z" fill="#CA4353"/>
<path d="M66.2206 9.53981C67.0038 9.53981 67.7102 8.99791 67.8889 8.20139L69.2516 2.08113C69.4552 1.15927 68.8759 0.245961 67.954 0.0404196C67.0388 -0.160676 66.1188 0.417132 65.9118 1.33797L64.5491 7.45822C64.3454 8.38008 64.9247 9.29339 65.8466 9.49894C65.9718 9.52647 66.0971 9.53981 66.2206 9.53981Z" fill="#CA4353"/>
<path d="M44.7788 9.53967C44.9025 9.53967 45.0276 9.52634 45.153 9.4988C46.0748 9.29343 46.6542 8.37995 46.4505 7.45809L45.0878 1.33784C44.8808 0.415976 43.964 -0.161832 43.0456 0.0402893C42.1237 0.24566 41.5444 1.15914 41.748 2.081L43.1107 8.20126C43.2893 8.99778 43.9957 9.53967 44.7788 9.53967Z" fill="#CA4353"/>
<path d="M22.4924 17.9542C22.8765 17.9542 23.264 17.8248 23.5846 17.5592C24.311 16.9556 24.4095 15.8768 23.805 15.1512L18.9939 9.36491C18.3912 8.63765 17.3158 8.53744 16.5859 9.14278C15.8595 9.74641 15.761 10.8252 16.3655 11.5508L21.1766 17.3371C21.5138 17.7448 22.0015 17.9542 22.4924 17.9542Z" fill="#CA4353"/>
</svg>
