<svg id="ac980c3c-2a8f-4f30-810e-c45d0cb06585" data-name="Layer 1" xmlns="http://www.w3.org/2000/svg" viewBox="0 0 2500 793.3"><title>ciena</title><path d="M584.5,15.4a97.4,97.4,0,1,0,97.4,97.4A97.39,97.39,0,0,0,584.5,15.4Zm457.7,230.2c-154.7,0-272.4,135.4-274.9,286.9-.7,47.5,9.4,92.2,27.4,129.4-102.2,29.8-122-19.2-125.4-111.4-4.2-111.1-4.7-268.2-4.7-268.2H501.1V605.2c0,67,16.3,170.8,132.1,191.5,72.2,12.9,142.6-1.3,236.9-44,45.1,32.3,105.2,53.4,171.5,53.4,91.6,0,166.1-40.3,221.5-77.4V626.6c-68.9,44.3-169.7,76.4-232.2,30.7,63.8-44.3,124.8-97.6,164.8-161.5,63.8-101.8,22.1-250.2-153.5-250.2ZM292.2,261C131,261,0,359.4,0,536.5,0,716.6,126.9,808.7,278.2,808.7c43.8,0,112.3-8.8,152.1-28.7V641.3C395.9,654.6,355.4,660,323.5,660c-65.4,0-142.1-38.6-142.1-120.1,0-93.2,72.5-128.1,144.8-128.1,34.8,0,74.4,10.6,104.1,19.3V283.6c-41-12.2-99-22.6-138.1-22.6Zm1833.5,1.3c-76.3.2-147,19.6-214.8,42V435.7c58.7-21.8,129.7-32,184.8-32,70.6,0,104.1,30.7,104.1,84.8v8.6c-30-10.7-77.1-20-125.4-20-122.8,0-204.8,55.8-204.8,164.1v2c0,104.5,75.8,161.5,175.5,161.5,68.6,0,118.3-25.7,154.1-65.4v54.1h177.5V492.5c0-73.6-12.4-127.5-52.1-166.1-41.6-41.7-105.1-64.3-198.9-64.1Zm-473.1.7c-72.6,0-119.9,41.1-153.4,84.1l-7.3,9.4V277H1316.4V793.4h175.5V510.5c0-59,34.3-92.1,81.4-92.1,46.3,0,77.4,33.3,77.4,92.1V793.4h176.1V451.8c0-117.1-65.5-188.8-174.2-188.8ZM1052.2,391.7c44.7.9,74.7,44.5,22,111.4-24.3,30.8-60.2,60.5-102.8,88.1-59.4-108.9,14.3-185.8,61.4-196.8a93.09,93.09,0,0,1,10-2c3.1-.3,6.4-.7,9.4-.7ZM2130.4,565.9c27.2,0,51.3,7.9,71.4,16.7.1,67-37.6,107.4-90.7,107.4-37.7,0-64.7-21.6-64.7-57.4v-2C2046.3,592,2077.2,565.9,2130.4,565.9Zm336.9,163.5c-17.6,0-32,13.5-32,32a31.78,31.78,0,0,0,32,32c17.6,0,32.7-13.6,32.7-32,0-18.2-15.1-32-32.7-32Zm0,4.6a27.35,27.35,0,0,1,.1,54.7c-15.1,0-26.7-12-26.7-27.3-.1-15.8,11.5-27.4,26.6-27.4Zm-11.3,8.7v37.4h4.7v-16h6.7l10,16h6l-10.7-16c5.5-.6,10-3.4,10-10,0-7.4-4.5-11.3-13.4-11.3H2456Zm4.6,4.7h8c4,0,8.7.9,8.7,6,0,5.9-4.8,6-10,6h-6.7Z" transform="translate(0 -15.4)" fill="#ffffff" fill-rule="evenodd"/></svg>