<svg width="274" height="86" viewBox="0 0 274 86" fill="none" xmlns="http://www.w3.org/2000/svg">
<path fill-rule="evenodd" clip-rule="evenodd" d="M64.6917 5.56674e-08C62.588 5.56674e-08 60.5317 0.61927 58.7826 1.7795C57.0335 2.93973 55.6702 4.58881 54.8652 6.5182C54.0602 8.4476 53.8496 10.5706 54.2599 12.6189C54.6703 14.6671 55.6833 16.5485 57.1708 18.0252C58.6583 19.5019 60.5535 20.5076 62.6167 20.915C64.6799 21.3224 66.8184 21.1133 68.7619 20.3141C70.7054 19.5149 72.3665 18.1616 73.5352 16.4252C74.7039 14.6888 75.3277 12.6473 75.3277 10.5589C75.3279 9.17227 75.0529 7.79917 74.5184 6.51803C73.9839 5.2369 73.2005 4.07284 72.2128 3.09232C71.2251 2.11181 70.0526 1.33405 68.7621 0.803461C67.4716 0.272875 66.0884 -0.000142334 64.6917 5.56674e-08ZM114.672 24.9555C97.7793 24.9555 84.9264 39.6339 84.6534 56.0577C84.577 61.2071 85.6799 66.0529 87.6455 70.0857C76.4853 73.3163 74.3231 68.0043 73.9518 58.0091C73.4932 45.965 73.4386 28.9341 73.4386 28.9341H55.5844V63.939C55.5844 71.2023 57.3643 82.4551 70.0097 84.6991C77.8939 86.0976 85.5816 84.5582 95.8792 79.9292C100.804 83.4307 107.367 85.7181 114.607 85.7181C124.61 85.7181 132.745 81.3493 138.795 77.3274V66.2589C131.271 71.0614 120.264 74.5413 113.439 69.587C120.405 64.7846 127.067 59.0064 131.435 52.0792C138.402 41.0432 133.848 24.9555 114.672 24.9555ZM32.7725 26.625C15.1695 26.625 0.864258 37.2923 0.864258 56.4914C0.864258 76.0156 14.7217 86 31.2437 86C36.0267 86 43.5069 85.046 47.853 82.8887V67.8525C44.0965 69.2943 39.6739 69.8797 36.1905 69.8797C29.0488 69.8797 20.6731 65.6952 20.6731 56.86C20.6731 46.7563 28.5901 42.9729 36.4853 42.9729C40.2855 42.9729 44.6098 44.122 47.853 45.0652V29.075C43.3758 27.7524 37.0422 26.625 32.7725 26.625ZM232.991 26.7659C224.659 26.7876 216.938 28.8907 209.535 31.319V45.5639C215.945 43.2006 223.698 42.0948 229.715 42.0948C237.424 42.0948 241.082 45.4229 241.082 51.2878V52.2201C237.806 51.0601 232.663 50.0519 227.389 50.0519C213.979 50.0519 205.025 56.1011 205.025 67.8417V68.0585C205.025 79.3871 213.302 85.5664 224.189 85.5664C231.68 85.5664 237.108 82.7803 241.017 78.4765V84.3414H260.4V51.7214C260.4 43.7426 259.046 37.8994 254.711 33.7149C250.168 29.1943 243.234 26.7442 232.991 26.7659ZM181.328 26.8418C173.4 26.8418 168.235 31.2974 164.577 35.9589L163.78 36.9779V28.3595H144.615V84.3414H163.78V53.6728C163.78 47.2767 167.525 43.6884 172.669 43.6884C177.725 43.6884 181.121 47.2984 181.121 53.6728V84.3414H200.351V47.3092C200.351 34.6146 193.198 26.8418 181.328 26.8418ZM115.764 40.7939C120.646 40.8915 123.922 45.6181 118.167 52.8705C115.513 56.2095 111.593 59.4292 106.941 62.4213C100.455 50.6157 108.503 42.2791 113.646 41.0866C114.006 40.9946 114.37 40.9222 114.738 40.8698C115.077 40.8373 115.437 40.7939 115.764 40.7939ZM233.504 59.6786C236.474 59.6786 239.106 60.535 241.301 61.489C241.312 68.7523 237.195 73.132 231.396 73.132C227.28 73.132 224.331 70.7904 224.331 66.9094V66.6925C224.32 62.508 227.694 59.6786 233.504 59.6786ZM270.293 77.4033C268.372 77.4033 266.799 78.8668 266.799 80.8723C266.796 81.3288 266.884 81.7813 267.059 82.2036C267.233 82.6259 267.49 83.0096 267.815 83.3324C268.141 83.6551 268.527 83.9105 268.952 84.0837C269.378 84.257 269.834 84.3445 270.293 84.3414C272.215 84.3414 273.864 82.867 273.864 80.8723C273.864 78.8993 272.215 77.4033 270.293 77.4033ZM270.293 77.9019C271.086 77.9005 271.846 78.2115 272.407 78.7665C272.968 79.3215 273.284 80.0751 273.285 80.8615C273.287 81.6478 272.974 82.4025 272.415 82.9596C271.856 83.5166 271.096 83.8304 270.304 83.8318C268.655 83.8318 267.389 82.5309 267.389 80.8723C267.378 79.1595 268.645 77.9019 270.293 77.9019ZM269.059 78.8451V82.8995H269.573V81.165H270.304L271.396 82.8995H272.052L270.883 81.165C271.484 81.1 271.975 80.7964 271.975 80.0809C271.975 79.2787 271.484 78.8559 270.512 78.8559H269.059V78.8451ZM269.562 79.3546H270.435C270.872 79.3546 271.385 79.4522 271.385 80.005C271.385 80.6446 270.861 80.6555 270.293 80.6555H269.562V79.3546Z" fill="#C92027"/>
</svg>
