<svg width="228" height="85" viewBox="0 0 228 85" fill="none" xmlns="http://www.w3.org/2000/svg">
<rect width="228" height="85" fill="black"/>
<path d="M29.7514 58.5C33.6014 58.5 36.7514 56.55 38.2514 53.25V58H43.0514V20.5H37.9514V38.05C36.4514 35.05 33.4014 33.2 29.7514 33.2C23.0514 33.2 17.9514 38.3 17.9514 45.85C17.9514 53.4 23.0514 58.5 29.7514 58.5ZM30.5514 54.05C26.2014 54.05 23.1514 50.55 23.1514 45.85C23.1514 41.15 26.2014 37.65 30.5514 37.65C34.9014 37.65 37.9514 41.15 37.9514 45.85C37.9514 50.55 34.9014 54.05 30.5514 54.05ZM59.6713 58.5C65.2713 58.5 69.4713 55.4 71.0713 51.25L66.5713 50.45C65.3713 52.75 63.0213 54.35 59.6713 54.35C55.3713 54.35 52.2213 51.2 52.0713 47.05H71.5713C71.6213 46.7 71.6713 46.15 71.6713 45.75C71.6713 38.65 66.7213 33.2 59.2713 33.2C51.8713 33.2 46.8713 38.6 46.8713 45.85C46.8713 52.9 51.5213 58.5 59.6713 58.5ZM59.2713 37.3C63.1213 37.3 66.0213 40 66.4713 43.75H52.0713C52.5213 40 55.4213 37.3 59.2713 37.3ZM92.1893 58.5C100.389 58.5 106.639 53.8 108.339 46.1L103.839 44.8C102.139 50.5 97.5893 53.6 92.1893 53.6C84.7893 53.6 79.4893 47.75 79.4893 40.5C79.4893 33.25 84.7893 27.4 92.1893 27.4C97.5893 27.4 102.139 30.5 103.839 36.2L108.339 34.9C106.639 27.2 100.389 22.5 92.1893 22.5C81.6893 22.5 74.1393 30.45 74.1393 40.5C74.1393 50.55 81.6893 58.5 92.1893 58.5ZM128.775 58.5C139.275 58.5 146.825 50.55 146.825 40.5C146.825 30.45 139.275 22.5 128.775 22.5C118.275 22.5 110.725 30.45 110.725 40.5C110.725 50.55 118.275 58.5 128.775 58.5ZM128.775 53.6C121.375 53.6 116.075 47.75 116.075 40.5C116.075 33.25 121.375 27.4 128.775 27.4C136.175 27.4 141.475 33.25 141.475 40.5C141.475 47.75 136.175 53.6 128.775 53.6ZM151.056 58H164.606C175.606 58 181.656 50.2 181.656 40.5C181.656 30.8 175.606 23 164.606 23H151.056V58ZM156.256 53.2V27.8H164.006C172.156 27.8 176.356 33.55 176.356 40.5C176.356 47.45 172.156 53.2 164.006 53.2H156.256ZM208.684 58V53.2H191.084V42.55H206.684V37.8H191.084V27.8H208.684V23H185.884V58H208.684Z" fill="white"/>
</svg>
