<svg width="87" height="100" viewBox="0 0 87 100" fill="none" xmlns="http://www.w3.org/2000/svg">
<path d="M85.9142 41.8415L72.5809 35.1748V35.1915C72.3514 35.0691 72.0959 35.0034 71.8359 34.9998H58.5025V31.6665C58.5025 30.3404 57.9757 29.0687 57.0381 28.131C56.1004 27.1933 54.8286 26.6665 53.5025 26.6665H33.5025C32.1764 26.6665 30.9047 27.1933 29.967 28.131C29.0293 29.0687 28.5025 30.3404 28.5025 31.6665V33.6398C27.7226 33.9178 27.0239 34.3851 26.4692 34.9998H8.50252C6.29239 34.9998 4.17277 35.8778 2.60997 37.4406C1.04716 39.0034 0.169189 41.123 0.169189 43.3332C0.169189 45.5433 1.04716 47.6629 2.60997 49.2257C4.17277 50.7885 6.29239 51.6665 8.50252 51.6665H25.1692V53.3332C25.169 53.5917 25.2289 53.8468 25.3442 54.0782L27.6175 58.6232C27.3814 58.7678 27.1859 58.9699 27.0492 59.2107C26.9125 59.4515 26.8391 59.723 26.8359 59.9998V73.3332C26.8359 73.7752 27.0114 74.1991 27.324 74.5117C27.6366 74.8242 28.0605 74.9998 28.5025 74.9998H30.1692V98.3332C30.1692 98.7752 30.3448 99.1991 30.6573 99.5117C30.9699 99.8242 31.3938 99.9998 31.8359 99.9998H55.1692C55.6112 99.9998 56.0351 99.8242 56.3477 99.5117C56.6603 99.1991 56.8359 98.7752 56.8359 98.3332V74.9998H58.5025C58.9446 74.9998 59.3685 74.8242 59.681 74.5117C59.9936 74.1991 60.1692 73.7752 60.1692 73.3332V59.9998C60.1692 59.5578 59.9936 59.1339 59.681 58.8213C59.3685 58.5088 58.9446 58.3332 58.5025 58.3332V51.6665H71.8359C72.0937 51.6619 72.3467 51.5962 72.5742 51.4748V51.4915L85.9075 44.8248C86.1849 44.6866 86.4182 44.4738 86.5813 44.2103C86.7444 43.9468 86.8307 43.6431 86.8307 43.3332C86.8307 43.0233 86.7444 42.7195 86.5813 42.456C86.4182 42.1925 86.1849 41.9797 85.9075 41.8415H85.9142ZM55.1692 31.6665V39.9998C55.1692 40.4419 54.9936 40.8658 54.681 41.1784C54.3685 41.4909 53.9446 41.6665 53.5025 41.6665C53.0605 41.6665 52.6366 41.4909 52.324 41.1784C52.0115 40.8658 51.8359 40.4419 51.8359 39.9998V29.9998H53.5025C53.9446 29.9998 54.3685 30.1754 54.681 30.488C54.9936 30.8006 55.1692 31.2245 55.1692 31.6665ZM48.5025 39.9998C48.5025 40.4419 48.3269 40.8658 48.0144 41.1784C47.7018 41.4909 47.2779 41.6665 46.8359 41.6665C46.3938 41.6665 45.9699 41.4909 45.6573 41.1784C45.3448 40.8658 45.1692 40.4419 45.1692 39.9998V29.9998H48.5025V39.9998ZM41.8359 39.9998C41.8359 40.4419 41.6603 40.8658 41.3477 41.1784C41.0351 41.4909 40.6112 41.6665 40.1692 41.6665C39.7272 41.6665 39.3032 41.4909 38.9907 41.1784C38.6781 40.8658 38.5025 40.4419 38.5025 39.9998V29.9998H41.8359V39.9998ZM36.8359 43.6998C36.9142 43.7698 37.0025 43.8348 37.0792 43.8998C36.9609 43.8615 36.8392 43.8315 36.7192 43.7965L36.8359 43.6998ZM33.5025 29.9998H35.1692V38.3332C35.1649 37.3027 34.8424 36.2988 34.2457 35.4587C33.649 34.6186 32.8074 33.9833 31.8359 33.6398V31.6665C31.8359 31.2245 32.0115 30.8006 32.324 30.488C32.6366 30.1754 33.0605 29.9998 33.5025 29.9998ZM16.8359 38.3332V48.3332H15.1692V38.3332H16.8359ZM3.50252 43.3332C3.50252 42.0071 4.02931 40.7353 4.96699 39.7976C5.90467 38.86 7.17644 38.3332 8.50252 38.3332H11.8359V48.3332H8.50252C7.17644 48.3332 5.90467 47.8064 4.96699 46.8687C4.02931 45.931 3.50252 44.6593 3.50252 43.3332ZM20.1692 48.3332V38.3332H25.1692V48.3332H20.1692ZM53.5025 96.6665H33.5025V74.9998H53.5025V96.6665ZM56.8359 71.6665H30.1692V61.6665H56.8359V71.6665ZM55.1692 58.3332H31.1992L28.5025 52.9398V38.3332C28.5025 37.8911 28.6781 37.4672 28.9907 37.1547C29.3032 36.8421 29.7272 36.6665 30.1692 36.6665C30.6112 36.6665 31.0351 36.8421 31.3477 37.1547C31.6603 37.4672 31.8359 37.8911 31.8359 38.3332V44.9998C31.8359 45.4419 32.0115 45.8658 32.324 46.1784C32.6366 46.4909 33.0605 46.6665 33.5025 46.6665C35.7118 46.6691 37.8299 47.548 39.3922 49.1102C40.9544 50.6724 41.8332 52.7905 41.8359 54.9998H45.1692C45.1658 53.8703 44.9974 52.7473 44.6692 51.6665H55.1692V58.3332ZM70.1692 48.3332H43.0625C42.0864 46.9391 40.8195 45.7734 39.3492 44.9165C40.0884 45.0573 40.8504 45.0204 41.5725 44.8089C42.2947 44.5973 42.9562 44.2172 43.5025 43.6998C44.4113 44.5359 45.601 44.9999 46.8359 44.9999C48.0707 44.9999 49.2604 44.5359 50.1692 43.6998C50.8836 44.3516 51.7724 44.7811 52.727 44.936C53.6816 45.0908 54.6606 44.9643 55.5444 44.5719C56.4283 44.1795 57.1787 43.5381 57.704 42.7262C58.2293 41.9142 58.5068 40.9669 58.5025 39.9998V38.3332H70.1692V48.3332ZM73.5025 47.3032V39.3632L81.4425 43.3332L73.5025 47.3032Z" fill="#89072E"/>
<path d="M45.169 0H41.8357V6.66667H45.169V0Z" fill="#CA4353"/>
<path d="M33.8975 1.04607L30.6777 1.90869L32.403 8.34826L35.6228 7.48564L33.8975 1.04607Z" fill="#CA4353"/>
<path d="M23.2788 4.97093L20.3921 6.6377L23.7256 12.4111L26.6123 10.7443L23.2788 4.97093Z" fill="#CA4353"/>
<path d="M14.0403 11.5143L11.6831 13.8711L16.3967 18.5856L18.754 16.2287L14.0403 11.5143Z" fill="#CA4353"/>
<path d="M6.80764 20.2237L5.14087 23.1104L10.9143 26.4439L12.581 23.5572L6.80764 20.2237Z" fill="#CA4353"/>
<path d="M10.9147 60.2233L5.14087 63.5562L6.80728 66.443L12.5811 63.1102L10.9147 60.2233Z" fill="#CA4353"/>
<path d="M16.3967 68.0828L11.6826 72.7969L14.0396 75.1539L18.7537 70.4399L16.3967 68.0828Z" fill="#CA4353"/>
<path d="M23.7256 74.2544L20.3921 80.0278L23.2788 81.6946L26.6123 75.9212L23.7256 74.2544Z" fill="#CA4353"/>
<path d="M63.2795 74.254L60.3926 75.9204L63.7254 81.6942L66.6123 80.0278L63.2795 74.254Z" fill="#CA4353"/>
<path d="M70.6087 68.0807L68.2515 70.4375L72.9651 75.152L75.3223 72.7951L70.6087 68.0807Z" fill="#CA4353"/>
<path d="M76.0916 60.2232L74.4248 63.1099L80.1982 66.4434L81.865 63.5567L76.0916 60.2232Z" fill="#CA4353"/>
<path d="M80.1972 20.2231L74.4238 23.5566L76.0906 26.4433L81.864 23.1098L80.1972 20.2231Z" fill="#CA4353"/>
<path d="M72.9662 11.514L68.2522 16.228L70.6092 18.5851L75.3233 13.871L72.9662 11.514Z" fill="#CA4353"/>
<path d="M63.7264 4.97132L60.3936 10.7451L63.2805 12.4115L66.6133 6.63774L63.7264 4.97132Z" fill="#CA4353"/>
<path d="M53.11 1.04536L51.3845 7.48486L54.6043 8.34759L56.3297 1.90809L53.11 1.04536Z" fill="#CA4353"/>
<path d="M81.8359 93.3332H60.1692V96.6665H83.5025C83.9445 96.6665 84.3685 96.4909 84.681 96.1783C84.9936 95.8658 85.1692 95.4419 85.1692 94.9998V86.6665H81.8359V93.3332Z" fill="#89072E"/>
<path d="M85.1693 80H81.8359V83.3333H85.1693V80Z" fill="#89072E"/>
<path d="M85.1693 73.3335H81.8359V76.6668H85.1693V73.3335Z" fill="#89072E"/>
<path d="M5.16927 86.6665H1.83594V94.9998C1.83594 95.4419 2.01153 95.8658 2.32409 96.1783C2.63665 96.4909 3.06058 96.6665 3.5026 96.6665H26.8359V93.3332H5.16927V86.6665Z" fill="#89072E"/>
<path d="M5.16927 80H1.83594V83.3333H5.16927V80Z" fill="#89072E"/>
<path d="M5.16927 73.3335H1.83594V76.6668H5.16927V73.3335Z" fill="#89072E"/>
</svg>
