<svg width="210" height="100" viewBox="0 0 210 100" fill="none" xmlns="http://www.w3.org/2000/svg">
<path d="M14.6418 53.5785H43.8502V40.594H0V99.9766H14.6418V79.0156H39.8686V66.1597H14.6418V53.5785ZM47.3747 40.594V99.9766H71.1025C89.5235 99.9766 102.846 87.7518 102.846 70.11C102.846 52.7311 89.535 40.594 71.1025 40.594H47.3747ZM61.9934 86.6999V53.8648H71.0736C80.5879 53.8648 87.9378 60.9414 87.9378 70.11C87.9378 79.5415 80.5879 86.6999 71.0736 86.6999H61.9934ZM169.29 40.594H158.392L137.558 72.2955L116.62 40.594H105.809V99.9766H120.422L120.335 70.0223L133.484 90.545V90.6327H141.615V90.545L154.694 70.1976V99.9999H169.307L169.29 40.594Z" fill="#202025"/>
<path d="M176.035 0.15531L188.618 17.2165C188.666 17.2798 188.732 17.327 188.809 17.3517C188.885 17.3764 188.967 17.3774 189.044 17.3545L209.404 10.8372C209.48 10.8143 209.561 10.8152 209.637 10.8398C209.712 10.8644 209.778 10.9115 209.826 10.9745C209.873 11.0376 209.9 11.1135 209.901 11.1919C209.903 11.2704 209.88 11.3474 209.836 11.4124L197.253 28.4793C197.205 28.5435 197.179 28.6211 197.179 28.7008C197.179 28.7805 197.205 28.8581 197.253 28.9223L209.836 45.9834C209.892 46.0676 209.912 46.1702 209.893 46.2691C209.873 46.3681 209.815 46.4555 209.731 46.5126C209.683 46.5441 209.629 46.5645 209.572 46.5725C209.516 46.5805 209.458 46.5757 209.404 46.5586L189.044 40.0471C188.967 40.0225 188.884 40.0226 188.808 40.0474C188.731 40.0723 188.665 40.1205 188.618 40.1851L176.035 57.2463C175.99 57.3178 175.922 57.3725 175.842 57.4018C175.762 57.4312 175.675 57.4336 175.593 57.4086C175.512 57.3835 175.441 57.3326 175.392 57.2636C175.343 57.1947 175.319 57.1117 175.323 57.0277V35.9342C175.323 35.855 175.298 35.7778 175.25 35.7137C175.203 35.6496 175.137 35.602 175.06 35.5776L154.718 29.0603C154.67 29.0448 154.625 29.0198 154.586 28.9869C154.548 28.954 154.517 28.9138 154.494 28.8687C154.472 28.8237 154.459 28.7746 154.456 28.7245C154.454 28.6744 154.461 28.6243 154.479 28.5771C154.498 28.5227 154.53 28.4732 154.571 28.4324C154.612 28.3916 154.663 28.3604 154.718 28.3413L175.078 21.824C175.154 21.7996 175.221 21.752 175.268 21.6879C175.315 21.6238 175.341 21.5466 175.34 21.4674V0.373896C175.343 0.273688 175.386 0.178591 175.459 0.108784C175.532 0.0389769 175.63 -4.4637e-05 175.732 3.83188e-08C175.791 0.0023536 175.848 0.017488 175.901 0.0443292C175.953 0.0711704 175.999 0.10906 176.035 0.15531Z" fill="#202025"/>
</svg>
