<svg width="1001" height="270" viewBox="0 0 1001 270" fill="none" xmlns="http://www.w3.org/2000/svg">
<path d="M994.863 39.3159H963.442C962.361 39.3985 961.327 39.805 960.471 40.4842C959.615 41.1635 958.976 42.0852 958.634 43.1334L935.527 135.79H934.467L892.858 39.7308C892.518 38.7934 891.891 37.9925 891.068 37.4469C890.246 36.9012 889.273 36.6399 888.294 36.7018H883.444C882.507 36.7409 881.598 37.0449 880.821 37.5799C880.044 38.1149 879.428 38.8597 879.043 39.7308L837.271 135.79H836.211L813.145 43.1334C802.881 54.1449 791.67 64.1989 779.646 73.175L822.844 229.566C823.14 230.642 823.766 231.593 824.632 232.28C825.497 232.967 826.556 233.354 827.653 233.383H831.973C832.922 233.33 833.842 233.026 834.642 232.502C835.442 231.979 836.095 231.253 836.537 230.396L885.441 118.569H886.215L935.282 230.603C935.724 231.461 936.377 232.186 937.177 232.71C937.977 233.234 938.897 233.537 939.846 233.591H944.248C945.352 233.57 946.42 233.188 947.293 232.5C948.167 231.812 948.8 230.856 949.097 229.773L999.835 46.0794C1000.2 45.2941 1000.35 44.4215 1000.27 43.5559C1000.18 42.6904 999.868 41.8648 999.356 41.1684C998.844 40.4721 998.155 39.9314 997.363 39.6049C996.571 39.2784 995.707 39.1785 994.863 39.3159V39.3159Z" fill="white"/>
<path d="M549.515 190.977C548.837 190.661 548.101 190.492 547.355 190.479H483.454V44.5027C483.413 43.1402 482.864 41.845 481.917 40.8812C480.97 39.9174 479.698 39.3575 478.36 39.3159H446.41C445.059 39.3159 443.763 39.8624 442.808 40.8351C441.852 41.8078 441.316 43.1271 441.316 44.5027V225.458C441.326 226.827 441.868 228.135 442.822 229.099C443.776 230.063 445.066 230.603 446.41 230.603H507.091C519.449 215.542 533.715 202.217 549.515 190.977V190.977Z" fill="white"/>
<path fill-rule="evenodd" clip-rule="evenodd" d="M715.227 135C715.227 127.678 713.802 120.688 711.214 114.293C719.353 109.148 728.352 103.2 737.364 96.6981C740.552 94.3981 743.788 91.9964 747.027 89.5035C754.152 103.104 758.182 118.581 758.182 135C758.182 189.224 714.224 233.182 660 233.182C653.269 233.182 646.697 232.504 640.347 231.214C643.64 226.519 646.654 221.612 649.365 216.518C653.835 208.122 657.435 199.311 660.128 190.228C690.57 190.158 715.227 165.459 715.227 135ZM609.063 156.38C606.3 149.804 604.773 142.581 604.773 135C604.773 104.499 629.499 79.7731 660 79.7731C660.062 79.7731 660.124 79.7732 660.186 79.7734C660.244 79.7736 660.302 79.7739 660.36 79.7742C665.379 63.4117 672.873 50.0133 681.033 39.076C674.257 37.5971 667.22 36.8179 660 36.8179C605.776 36.8179 561.818 80.7754 561.818 135C561.818 151.87 566.073 167.747 573.569 181.615C576.846 179.025 580.124 176.528 583.353 174.137C592.216 167.576 601.052 161.575 609.063 156.38Z" fill="white"/>
<circle cx="660.001" cy="135.001" r="12.1805" fill="white"/>
<path d="M651.231 152.561C650.307 151.323 648.97 150.471 647.472 150.166C645.974 149.861 644.418 150.124 643.097 150.905C623.819 162.334 558.866 200.598 538.897 237.868C522.018 269.547 557.402 266.856 577.697 263.004C586.6 261.318 594.972 257.468 602.1 251.782C616.795 240.722 628.925 226.511 637.633 210.154C646.34 193.796 651.413 175.69 652.492 157.117C652.622 155.493 652.174 153.877 651.231 152.561Z" fill="white"/>
<path d="M668.839 117.653C669.757 118.898 671.092 119.758 672.59 120.071C674.089 120.384 675.648 120.128 676.973 119.35C696.252 107.88 762.75 70.2371 782.719 32.7188C799.598 1.03946 764.254 3.73117 743.959 7.58239C735.061 9.30718 726.695 13.1687 719.556 18.8462C700.807 33.7541 671.361 61.3751 667.66 113.056C667.511 114.682 667.928 116.309 668.839 117.653Z" fill="white"/>
<path d="M304.427 44.5028C304.422 43.8202 304.55 43.1432 304.804 42.5114C305.058 41.8797 305.433 41.3057 305.907 40.8229C306.381 40.3402 306.945 39.9583 307.565 39.6996C308.186 39.4409 308.851 39.3106 309.521 39.3161H341.472C342.807 39.3674 344.073 39.9304 345.018 40.8922C345.962 41.854 346.515 43.1436 346.566 44.5028V190.479H410.385C411.736 190.479 413.032 191.025 413.987 191.998C414.943 192.971 415.479 194.29 415.479 195.666V225.458C415.468 226.827 414.927 228.135 413.973 229.099C413.019 230.063 411.729 230.604 410.385 230.604H309.521C308.854 230.609 308.193 230.48 307.575 230.224C306.957 229.968 306.395 229.59 305.922 229.111C305.448 228.633 305.072 228.064 304.816 227.437C304.559 226.81 304.427 226.137 304.427 225.458V44.5028Z" fill="white"/>
<path d="M149.236 44.5028C149.236 43.1272 149.773 41.808 150.728 40.8352C151.684 39.8625 152.979 39.3161 154.33 39.3161H265.464C266.136 39.3106 266.803 39.4407 267.426 39.6989C268.049 39.9571 268.615 40.3383 269.092 40.8205C269.57 41.3027 269.949 41.8763 270.207 42.5083C270.466 43.1403 270.599 43.8182 270.599 44.5028V74.2955C270.599 74.9802 270.466 75.658 270.207 76.29C269.949 76.9221 269.57 77.4957 269.092 77.9779C268.615 78.46 268.049 78.8412 267.426 79.0994C266.803 79.3576 266.136 79.4878 265.464 79.4823H191.13V113.383H252.26C253.606 113.423 254.888 113.98 255.847 114.942C256.807 115.904 257.375 117.2 257.436 118.57V148.362C257.436 149.742 256.9 151.065 255.946 152.045C254.992 153.024 253.696 153.58 252.341 153.591H191.212V190.479H265.464C266.136 190.473 266.803 190.603 267.426 190.862C268.049 191.12 268.615 191.501 269.092 191.983C269.57 192.465 269.949 193.039 270.207 193.671C270.466 194.303 270.599 194.981 270.599 195.666V225.458C270.594 226.139 270.456 226.813 270.196 227.44C269.935 228.067 269.555 228.636 269.078 229.114C268.601 229.591 268.037 229.969 267.417 230.225C266.796 230.48 266.133 230.609 265.464 230.603H154.33C152.979 230.603 151.684 230.057 150.728 229.084C149.773 228.112 149.236 226.792 149.236 225.417V44.5028Z" fill="white"/>
<path d="M-0.000322598 44.5028C-0.00575189 43.8202 0.122304 43.1432 0.376386 42.5114C0.630468 41.8797 1.00549 41.3057 1.47961 40.8229C1.95373 40.3402 2.51747 39.9583 3.13797 39.6996C3.75847 39.4409 4.42333 39.3106 5.09382 39.3161H116.228C117.579 39.3161 118.874 39.8625 119.83 40.8353C120.785 41.808 121.322 43.1272 121.322 44.5028V74.2956C121.322 75.6712 120.785 76.9904 119.83 77.9631C118.874 78.9359 117.579 79.4823 116.228 79.4823H41.8531V118.86H102.983C104.321 118.902 105.593 119.462 106.54 120.425C107.486 121.389 108.036 122.684 108.077 124.047V153.84C108.036 155.202 107.486 156.497 106.54 157.461C105.593 158.425 104.321 158.985 102.983 159.026H41.8531V225.417C41.8122 226.779 41.2624 228.074 40.3158 229.038C39.3692 230.002 38.0971 230.562 36.759 230.604H5.09382C4.42677 230.609 3.76527 230.48 3.14745 230.224C2.52963 229.968 1.96773 229.59 1.49416 229.111C1.02058 228.633 0.644706 228.064 0.388205 227.437C0.131704 226.81 -0.00034429 226.137 -0.000322598 225.458V44.5028Z" fill="white"/>
</svg>
