<svg width="278" height="75" viewBox="0 0 278 75" fill="none" xmlns="http://www.w3.org/2000/svg">
<path d="M276.499 10.1382H267.813C267.514 10.1623 267.228 10.2805 266.991 10.4782C266.755 10.6758 266.578 10.944 266.483 11.249L260.095 38.2094H259.802L248.299 10.2589C248.205 9.98619 248.032 9.75315 247.804 9.5944C247.577 9.43562 247.308 9.35959 247.037 9.3776H245.696C245.437 9.38897 245.186 9.47743 244.971 9.6331C244.756 9.78877 244.586 10.0055 244.48 10.2589L232.931 38.2094H232.638L226.261 11.249C223.424 14.453 220.324 17.3785 217 19.9902L228.943 65.4955C229.024 65.8086 229.198 66.0853 229.437 66.2852C229.676 66.4851 229.969 66.5977 230.272 66.6061H231.466C231.729 66.5907 231.983 66.5023 232.204 66.3498C232.425 66.1976 232.606 65.9864 232.728 65.737L246.248 33.1986H246.462L260.027 65.7972C260.15 66.0469 260.33 66.2579 260.551 66.4103C260.773 66.5628 261.027 66.651 261.289 66.6667H262.506C262.811 66.6606 263.107 66.5494 263.348 66.3492C263.59 66.149 263.765 65.8709 263.847 65.5557L277.874 12.1062C277.975 11.8777 278.016 11.6238 277.994 11.3719C277.969 11.1201 277.883 10.8799 277.742 10.6772C277.6 10.4746 277.409 10.3173 277.191 10.2223C276.972 10.1273 276.733 10.0982 276.499 10.1382Z" fill="#151D21"/>
<path d="M153 54.1884C152.812 54.0972 152.608 54.0484 152.401 54.0447H134.683V11.9137C134.672 11.5205 134.52 11.1467 134.257 10.8685C133.995 10.5903 133.642 10.4288 133.271 10.4167H124.412C124.038 10.4167 123.678 10.5745 123.414 10.8552C123.149 11.1359 123 11.5167 123 11.9137V64.1402C123.003 64.5353 123.153 64.9128 123.418 65.191C123.682 65.4692 124.04 65.6251 124.412 65.6251H141.237C144.664 61.2783 148.619 57.4325 153 54.1884Z" fill="#151D21"/>
<path fill-rule="evenodd" clip-rule="evenodd" d="M198.969 37.5C198.969 35.4026 198.57 33.4002 197.845 31.5683C200.124 30.0945 202.645 28.3907 205.169 26.5281C206.062 25.8693 206.968 25.1813 207.876 24.4672C209.871 28.3632 211 32.7967 211 37.5C211 53.0329 198.688 65.625 183.5 65.625C181.615 65.625 179.774 65.4308 177.995 65.0613C178.918 63.7163 179.762 62.3107 180.521 60.8515C181.773 58.4464 182.782 55.9224 183.536 53.3205C192.062 53.3004 198.969 46.2252 198.969 37.5ZM169.233 43.6245C168.459 41.7407 168.031 39.6716 168.031 37.5C168.031 28.7628 174.957 21.6798 183.5 21.6798C183.517 21.6798 183.535 21.6799 183.552 21.6799C183.568 21.68 183.585 21.6801 183.601 21.6802C185.007 16.993 187.106 13.1549 189.391 10.0218C187.493 9.59821 185.522 9.375 183.5 9.375C168.312 9.375 156 21.967 156 37.5C156 42.3326 157.192 46.8806 159.291 50.8532C160.209 50.1113 161.127 49.396 162.032 48.7111C164.514 46.8317 166.989 45.1126 169.233 43.6245Z" fill="#151D21"/>
<path d="M183.5 41.6667C185.433 41.6667 187 40.0344 187 38.0208C187 36.0073 185.433 34.375 183.5 34.375C181.567 34.375 180 36.0073 180 38.0208C180 40.0344 181.567 41.6667 183.5 41.6667Z" fill="#151D21"/>
<path d="M180.652 42.3954C180.402 42.0373 180.039 41.7908 179.633 41.7026C179.227 41.6143 178.805 41.6904 178.447 41.9164C173.221 45.2228 155.614 56.2926 150.201 67.0748C145.625 76.2396 155.217 75.4611 160.718 74.3467C163.132 73.8589 165.401 72.7451 167.334 71.1001C171.317 67.9005 174.605 63.7892 176.966 59.0571C179.326 54.3248 180.702 49.0867 180.994 43.7135C181.029 43.2437 180.908 42.7762 180.652 42.3954Z" fill="#151D21"/>
<path d="M186.334 32.594C186.587 32.9552 186.956 33.2048 187.369 33.2956C187.783 33.3864 188.214 33.3121 188.58 33.0864C193.903 29.7582 212.263 18.8355 217.776 7.94897C222.437 -1.24329 212.678 -0.462247 207.075 0.655244C204.618 1.15572 202.308 2.2762 200.337 3.92362C195.16 8.24938 187.03 16.264 186.008 31.2601C185.967 31.7319 186.082 32.204 186.334 32.594Z" fill="#151D21"/>
<path d="M85 11.9137C84.9986 11.7167 85.0344 11.5213 85.1053 11.339C85.1762 11.1567 85.2809 10.991 85.4132 10.8517C85.5455 10.7124 85.7029 10.6021 85.876 10.5275C86.0494 10.4528 86.235 10.4152 86.422 10.4168H95.3411C95.7137 10.4316 96.0671 10.5941 96.3309 10.8717C96.5945 11.1493 96.7488 11.5215 96.7631 11.9137V54.0444H114.578C114.955 54.0444 115.317 54.202 115.584 54.4828C115.85 54.7637 116 55.1443 116 55.5415V64.1398C115.997 64.5349 115.846 64.9125 115.58 65.1907C115.313 65.4689 114.953 65.625 114.578 65.625H86.422C86.2358 65.6265 86.0513 65.5892 85.8788 65.5154C85.7063 65.4415 85.5494 65.3324 85.4174 65.1941C85.285 65.0562 85.1801 64.892 85.1086 64.711C85.0369 64.53 85 64.3358 85 64.1398V11.9137Z" fill="#151D21"/>
<path d="M42 11.9138C42 11.5167 42.146 11.136 42.4057 10.8552C42.6656 10.5745 43.0178 10.4168 43.3851 10.4168H73.6037C73.7865 10.4152 73.9678 10.4528 74.1372 10.5273C74.3066 10.6018 74.4605 10.7118 74.5902 10.851C74.7202 10.9902 74.8233 11.1557 74.8934 11.3381C74.9638 11.5205 75 11.7162 75 11.9138V20.5124C75 20.71 74.9638 20.9056 74.8934 21.088C74.8233 21.2704 74.7202 21.436 74.5902 21.5752C74.4605 21.7143 74.3066 21.8243 74.1372 21.8988C73.9678 21.9734 73.7865 22.0109 73.6037 22.0094H53.3915V31.7936H70.0134C70.3794 31.8051 70.728 31.9659 70.9888 32.2435C71.2498 32.5212 71.4042 32.8952 71.4208 33.2906V41.8891C71.4208 42.2873 71.2751 42.6692 71.0157 42.952C70.7563 43.2346 70.4039 43.395 70.0354 43.3982H53.4138V54.0446H73.6037C73.7865 54.0429 73.9678 54.0804 74.1372 54.1552C74.3066 54.2296 74.4605 54.3396 74.5902 54.4787C74.7202 54.6178 74.8233 54.7835 74.8934 54.9659C74.9638 55.1483 75 55.344 75 55.5417V64.1401C74.9986 64.3366 74.9611 64.5312 74.8904 64.7121C74.8195 64.8931 74.7161 65.0573 74.5864 65.1953C74.4567 65.3329 74.3034 65.442 74.1348 65.5159C73.9659 65.5895 73.7856 65.6268 73.6037 65.625H43.3851C43.0178 65.625 42.6656 65.4674 42.4057 65.1866C42.146 64.9061 42 64.5251 42 64.1283V11.9138Z" fill="#151D21"/>
<path d="M4.64319e-05 11.9137C-0.0014751 11.7167 0.0344119 11.5213 0.105617 11.339C0.176822 11.1567 0.28192 10.991 0.41479 10.8517C0.54766 10.7124 0.705645 10.6021 0.879537 10.5275C1.05343 10.4528 1.23975 10.4152 1.42765 10.4168H32.5724C32.951 10.4168 33.314 10.5745 33.5819 10.8553C33.8495 11.136 34 11.5167 34 11.9137V20.5123C34 20.9094 33.8495 21.2901 33.5819 21.5708C33.314 21.8516 32.951 22.0093 32.5724 22.0093H11.7293V33.3742H28.8606C29.2356 33.3863 29.592 33.548 29.8574 33.8259C30.1225 34.1041 30.2767 34.4779 30.2882 34.8713V43.4699C30.2767 43.863 30.1225 44.2368 29.8574 44.515C29.592 44.7932 29.2356 44.9548 28.8606 44.9667H11.7293V64.128C11.7178 64.5211 11.5637 64.8948 11.2984 65.1731C11.0332 65.4513 10.6767 65.6129 10.3017 65.625H1.42765C1.24072 65.6265 1.05533 65.5892 0.882193 65.5154C0.709053 65.4415 0.551583 65.3324 0.418867 65.1941C0.286149 65.0562 0.180812 64.892 0.108929 64.711C0.0370462 64.53 4.03529e-05 64.3358 4.64319e-05 64.1398V11.9137Z" fill="#151D21"/>
</svg>
