<svg width="101" height="100" viewBox="0 0 101 100" fill="none" xmlns="http://www.w3.org/2000/svg">
<path d="M39.2097 70.9679H61.7904V61.2905H39.2097V70.9679ZM48.8871 67.7421V64.5163H52.1129V67.7421H48.8871ZM58.5646 67.7421H55.3387V64.5163H58.5646V67.7421ZM42.4355 64.5163H45.6613V67.7421H42.4355V64.5163Z" fill="#CA4353"/>
<path d="M61.7903 25.8066H58.5645V29.0324H61.7903V25.8066Z" fill="#CA4353"/>
<path d="M68.2419 25.8066H65.0161V29.0324H68.2419V25.8066Z" fill="#CA4353"/>
<path d="M55.3386 35.484H71.4676C73.2467 35.484 74.6934 34.0372 74.6934 32.2582V22.5808C74.6934 20.8018 73.2467 19.355 71.4676 19.355H55.3386C53.5596 19.355 52.1128 20.8018 52.1128 22.5808V32.2582C52.1128 34.0372 53.5596 35.484 55.3386 35.484ZM55.3386 22.5808H71.4676L71.4692 32.2582H55.3386V22.5808Z" fill="#CA4353"/>
<path d="M42.4355 35.4839H39.2097V38.7097H42.4355V35.4839Z" fill="#CA4353"/>
<path d="M65.0161 45.1611H61.7903V48.3869H65.0161V45.1611Z" fill="#CA4353"/>
<path d="M89.2097 38.7096H48.8871V32.258C48.8871 30.479 47.4403 29.0322 45.6613 29.0322H35.9839C34.2048 29.0322 32.7581 30.479 32.7581 32.258V38.7096H11.7903C5.56613 38.7096 0.5 43.7742 0.5 50V88.7096C0.5 94.9355 5.56613 100 11.7903 100H89.2097C95.4339 100 100.5 94.9355 100.5 88.7096V50C100.5 43.7742 95.4339 38.7096 89.2097 38.7096ZM68.2419 41.9355V51.6129H58.5645V41.9355H68.2419ZM35.9839 83.8709H65.0161V87.0967H35.9839V83.8709ZM65.0161 80.6451H35.9839V51.6129H55.3387C55.3387 53.3919 56.7855 54.8387 58.5645 54.8387H65.0161V80.6451ZM35.9839 32.258H45.6613L45.6629 41.9355H35.9839V32.258ZM35.9839 45.1613H45.6613C47.4403 45.1613 48.8871 43.7145 48.8871 41.9355H55.3387V48.3871H35.9839C34.2048 48.3871 32.7581 49.8338 32.7581 51.6129V87.0967C32.7581 88.8758 34.2048 90.3225 35.9839 90.3225H65.0161C66.7952 90.3225 68.2419 88.8758 68.2419 87.0967V54.8387C70.021 54.8387 71.4677 53.3919 71.4677 51.6129V41.9355H79.5323V46.3822C79.5323 47.2435 79.1968 48.0532 78.5871 48.6645L73.3581 53.8935C72.1387 55.1129 71.4677 56.7338 71.4677 58.4564V96.7742H29.5323V58.4564C29.5323 56.7338 28.8613 55.1145 27.6419 53.8935L22.4129 48.6645C21.8032 48.0532 21.4677 47.2435 21.4677 46.3822V41.9355H32.7581C32.7581 43.7145 34.2048 45.1613 35.9839 45.1613ZM10.1774 74.1935V70.9677H16.629V64.5161H19.8548V70.9677L26.3065 70.9725V74.1935H19.8548V80.6451H16.629V74.1935H10.1774ZM3.72581 88.7096V50C3.72581 45.5532 7.34355 41.9355 11.7903 41.9355H18.2419V46.3822C18.2419 48.1048 18.9129 49.7242 20.1323 50.9451L25.3613 56.1742C25.971 56.7855 26.3065 57.5951 26.3065 58.4564V67.7419H23.0806V64.5161C23.0806 62.7371 21.6339 61.2903 19.8548 61.2903H16.629C14.85 61.2903 13.4032 62.7371 13.4032 64.5161V67.7419H10.1774C8.39839 67.7419 6.95161 69.1887 6.95161 70.9677V74.1935C6.95161 75.9725 8.39839 77.4193 10.1774 77.4193H13.4032V80.6451C13.4032 82.4242 14.85 83.8709 16.629 83.8709H19.8548C21.6339 83.8709 23.0806 82.4242 23.0806 80.6451V77.4193H26.3065V96.7742H11.7903C7.34355 96.7742 3.72581 93.1564 3.72581 88.7096ZM89.2097 96.7742H74.6936V74.5484C75.5516 75.3226 76.6758 75.8064 77.9194 75.8064C80.5871 75.8064 82.7581 73.6355 82.7581 70.9677C82.7581 68.3 80.5871 66.129 77.9194 66.129C76.6758 66.129 75.5516 66.6145 74.6936 67.3871V58.4548C74.6936 57.5935 75.029 56.7838 75.6387 56.1725L80.8677 50.9435C82.0871 49.7258 82.7581 48.1048 82.7581 46.3822V41.9355H89.2097C93.6565 41.9355 97.2742 45.5532 97.2742 50V67.3871C96.4161 66.6129 95.2919 66.129 94.0484 66.129C91.3806 66.129 89.2097 68.3 89.2097 70.9677C89.2097 73.6355 91.3806 75.8064 94.0484 75.8064C95.2919 75.8064 96.4161 75.3209 97.2742 74.5484V88.7096C97.2742 93.1564 93.6565 96.7742 89.2097 96.7742ZM76.3064 70.9677C76.3064 70.079 77.029 69.3548 77.9194 69.3548C78.8097 69.3548 79.5323 70.079 79.5323 70.9677C79.5323 71.8564 78.8097 72.5806 77.9194 72.5806C77.029 72.5806 76.3064 71.8564 76.3064 70.9677ZM95.6613 70.9677C95.6613 71.8564 94.9387 72.5806 94.0484 72.5806C93.1581 72.5806 92.4355 71.8564 92.4355 70.9677C92.4355 70.079 93.1581 69.3548 94.0484 69.3548C94.9387 69.3548 95.6613 70.079 95.6613 70.9677Z" fill="#89072E"/>
<path d="M11.7904 54.8386C14.4581 54.8386 16.6291 52.6676 16.6291 49.9998C16.6291 47.3321 14.4581 45.1611 11.7904 45.1611C9.12263 45.1611 6.95166 47.3321 6.95166 49.9998C6.95166 52.6676 9.12263 54.8386 11.7904 54.8386ZM11.7904 48.3869C12.6807 48.3869 13.4033 49.1111 13.4033 49.9998C13.4033 50.8886 12.6807 51.6127 11.7904 51.6127C10.9 51.6127 10.1775 50.8886 10.1775 49.9998C10.1775 49.1111 10.9 48.3869 11.7904 48.3869Z" fill="#CA4353"/>
<path d="M89.2096 54.8386C91.8773 54.8386 94.0483 52.6676 94.0483 49.9998C94.0483 47.3321 91.8773 45.1611 89.2096 45.1611C86.5418 45.1611 84.3708 47.3321 84.3708 49.9998C84.3708 52.6676 86.5418 54.8386 89.2096 54.8386ZM89.2096 48.3869C90.0999 48.3869 90.8225 49.1111 90.8225 49.9998C90.8225 50.8886 90.0999 51.6127 89.2096 51.6127C88.3192 51.6127 87.5967 50.8886 87.5967 49.9998C87.5967 49.1111 88.3192 48.3869 89.2096 48.3869Z" fill="#CA4353"/>
<path d="M90.8227 62.9032C90.8227 60.2354 88.6517 58.0645 85.984 58.0645C83.3162 58.0645 81.1453 60.2354 81.1453 62.9032C81.1453 65.5709 83.3162 67.7419 85.984 67.7419C88.6517 67.7419 90.8227 65.5709 90.8227 62.9032ZM84.3711 62.9032C84.3711 62.0145 85.0937 61.2903 85.984 61.2903C86.8743 61.2903 87.5969 62.0145 87.5969 62.9032C87.5969 63.7919 86.8743 64.5161 85.984 64.5161C85.0937 64.5161 84.3711 63.7919 84.3711 62.9032Z" fill="#CA4353"/>
<path d="M85.984 74.1934C83.3162 74.1934 81.1453 76.3643 81.1453 79.0321C81.1453 81.6998 83.3162 83.8708 85.984 83.8708C88.6517 83.8708 90.8227 81.6998 90.8227 79.0321C90.8227 76.3643 88.6517 74.1934 85.984 74.1934ZM85.984 80.645C85.0937 80.645 84.3711 79.9208 84.3711 79.0321C84.3711 78.1434 85.0937 77.4192 85.984 77.4192C86.8743 77.4192 87.5969 78.1434 87.5969 79.0321C87.5969 79.9208 86.8743 80.645 85.984 80.645Z" fill="#CA4353"/>
<path d="M87.5967 87.0967H84.3708V90.3225H87.5967V87.0967Z" fill="#CA4353"/>
<path d="M94.0483 87.0967H90.8225V90.3225H94.0483V87.0967Z" fill="#CA4353"/>
<path d="M81.1452 87.0967H77.9194V90.3225H81.1452V87.0967Z" fill="#CA4353"/>
<path d="M19.855 22.5807H23.0808V19.3549H26.3066V16.1291H23.0808V12.9033H19.855V16.1291H16.6292V19.3549H19.855V22.5807Z" fill="#CA4353"/>
<path d="M16.6291 29.0322H13.4033V32.258H16.6291V29.0322Z" fill="#CA4353"/>
<path d="M10.1775 6.45166H6.95166V9.67747H10.1775V6.45166Z" fill="#CA4353"/>
<path d="M35.9839 0H32.7581V3.22581H35.9839V0Z" fill="#CA4353"/>
<path d="M42.4355 9.67725H39.2097V12.9031H42.4355V9.67725Z" fill="#CA4353"/>
<path d="M81.1452 22.5807H84.371V19.3549H87.5969V16.1291H84.371V12.9033H81.1452V16.1291H77.9194V19.3549H81.1452V22.5807Z" fill="#CA4353"/>
<path d="M90.8225 29.0322H87.5967V32.258H90.8225V29.0322Z" fill="#CA4353"/>
<path d="M97.2741 6.45166H94.0483V9.67747H97.2741V6.45166Z" fill="#CA4353"/>
<path d="M71.4677 0H68.2419V3.22581H71.4677V0Z" fill="#CA4353"/>
<path d="M65.0161 9.67725H61.7903V12.9031H65.0161V9.67725Z" fill="#CA4353"/>
</svg>
