<svg width="99" height="100" viewBox="0 0 99 100" fill="none" xmlns="http://www.w3.org/2000/svg">
<path d="M22.4638 35.445C22.1823 35.445 21.8977 35.3647 21.6461 35.1967C20.9674 34.7442 20.784 33.8275 21.2366 33.1488L25.0726 27.3946C26.091 25.867 27.6486 24.8549 29.4581 24.545C31.2682 24.2349 33.0733 24.671 34.5418 25.7725L35.6766 26.6237C36.3058 27.0957 37.0855 27.3556 37.872 27.3556C39.8895 27.3556 41.5307 25.7142 41.5307 23.6967V21.3919C41.5307 19.0693 43.0904 17.0016 45.3237 16.3636L51.8631 14.4952C52.8349 14.2176 53.5138 13.3176 53.5138 12.3068V3.15453C53.5138 2.33892 54.175 1.67773 54.9906 1.67773C55.8062 1.67773 56.4674 2.33892 56.4674 3.15453V12.3068C56.4674 14.6294 54.9077 16.6971 52.6743 17.3351L46.1349 19.2035C45.1629 19.4811 44.4842 20.3811 44.4842 21.3919V23.6967C44.4842 27.3429 41.518 30.3092 37.872 30.3092C36.4507 30.3092 35.0416 29.8395 33.9045 28.9866L32.7695 28.1353C31.9568 27.5258 30.9579 27.2849 29.9566 27.456C28.9553 27.6275 28.0935 28.1874 27.53 29.0328L23.6939 34.787C23.4093 35.214 22.9408 35.4448 22.4638 35.445Z" fill="#CA4353"/>
<path d="M68.6868 47.4282C68.145 47.4282 67.6235 47.129 67.3646 46.6115L64.3051 40.4927C64.1925 40.2676 64.019 40.0801 63.8032 39.9508L59.5102 37.375C58.2878 36.6415 57.5142 35.3537 57.4406 33.9299C57.3669 32.506 58.0041 31.1455 59.1446 30.29L60.5463 29.2389C61.1068 28.8185 61.2416 28.0326 60.8528 27.4497C60.125 26.3577 59.9385 25.0151 60.3414 23.7664C60.7442 22.5176 61.68 21.537 62.9085 21.0763L73.3024 17.1786C74.0661 16.8923 74.9171 17.2792 75.2039 18.0427C75.4901 18.8065 75.1032 19.6577 74.3395 19.944L63.9456 23.8417C63.5659 23.9841 63.2769 24.287 63.1522 24.6729C63.0277 25.059 63.0855 25.4738 63.3102 25.8113C64.568 27.6978 64.1323 30.2415 62.3184 31.6018L60.9167 32.6529C60.5591 32.921 60.3671 33.3311 60.3901 33.7778C60.4131 34.2242 60.6463 34.6124 61.0296 34.8423L65.3226 37.4181C66.0209 37.837 66.5823 38.4434 66.9465 39.1719L70.006 45.2906C70.3707 46.0202 70.0752 46.9073 69.3456 47.2719C69.134 47.3778 68.9087 47.4282 68.6868 47.4282Z" fill="#CA4353"/>
<path d="M56.7028 55.9871C56.325 55.9871 55.9469 55.8428 55.6585 55.5546L50.1623 50.0584C48.9309 48.8272 48.5079 47.0356 49.0585 45.3833C49.2073 44.9373 49.1591 44.4681 48.9233 44.0618C48.6874 43.6555 48.3037 43.3808 47.8429 43.2886L46.9246 43.1048C44.8613 42.6917 42.7429 43.4398 41.3959 45.0563L35.5828 52.0318C35.0606 52.6584 34.1296 52.7426 33.5028 52.2209C32.8762 51.6985 32.7916 50.7673 33.3138 50.1409L39.1269 43.1654C41.1678 40.7164 44.3771 39.5837 47.5037 40.2084L48.422 40.3922C49.7066 40.6491 50.8203 41.4462 51.4777 42.5791C52.1351 43.712 52.2746 45.0744 51.8602 46.3171C51.6655 46.901 51.8151 47.5346 52.2505 47.9696L57.7469 53.4658C58.3235 54.0426 58.3235 54.9776 57.7469 55.5544C57.4587 55.8428 57.0807 55.9871 56.7028 55.9871Z" fill="#CA4353"/>
<path d="M29.3109 20.0383C28.5738 20.0383 27.9365 19.4874 27.8466 18.7372C27.7495 17.9275 28.3272 17.1921 29.1369 17.095C29.1919 17.0883 34.8694 16.2644 34.6867 13.5239C34.5575 11.5866 35.3449 10.4357 36.0282 9.81148C37.9658 8.04081 41.1675 8.4868 41.5261 8.54313C42.3318 8.67034 42.8816 9.42667 42.7546 10.2322C42.6276 11.0364 41.8748 11.5857 41.0698 11.4613C40.3757 11.3566 38.7181 11.3499 38.0175 11.9946C37.8263 12.1703 37.5786 12.5001 37.6337 13.3273C37.9327 17.8087 32.6546 19.6476 29.4888 20.0273C29.4291 20.0347 29.3698 20.0383 29.3109 20.0383Z" fill="#CA4353"/>
<path d="M25.8906 44.0044C25.8155 44.0044 25.7395 43.9987 25.6629 43.9869C24.857 43.8622 24.3045 43.1078 24.4292 42.3016C24.471 42.0314 25.5724 35.6647 35.956 34.2173C43.9528 33.1025 44.9969 30.186 45.0066 30.1565C44.9929 30.1985 44.9897 30.2217 44.9897 30.2217L47.872 30.867C47.7615 31.3605 46.4999 35.7297 36.3636 37.1428C28.2627 38.2719 27.3549 42.7086 27.3482 42.7531C27.2353 43.4824 26.6066 44.0044 25.8906 44.0044Z" fill="#CA4353"/>
<path d="M68.6869 33.7332C68.2152 33.7332 67.7513 33.5076 67.4656 33.0882C65.7893 30.6298 67.1513 26.9859 67.312 26.5785C67.6114 25.8197 68.469 25.4477 69.2279 25.7471C69.9852 26.046 70.3574 26.9017 70.0606 27.6593C69.7384 28.4893 69.2762 30.5013 69.9057 31.4245C70.3654 32.0983 70.1914 33.0171 69.5175 33.4766C69.2633 33.65 68.9736 33.7332 68.6869 33.7332Z" fill="#CA4353"/>
<path d="M48.4201 57.4207C42.7494 57.4207 37.2486 55.7504 32.5127 52.5905C26.134 48.3348 21.7943 41.8498 20.2933 34.33C18.7922 26.8103 20.3093 19.1561 24.565 12.7776C29.903 4.77679 38.8397 0 48.4703 0C54.141 0 59.642 1.67025 64.3779 4.83017C77.5454 13.6154 81.1106 31.4753 72.3256 44.6428C66.9874 52.6439 58.0507 57.4207 48.4201 57.4207ZM48.4703 2.95359C39.8291 2.95359 31.811 7.23903 27.0218 14.4169C23.2038 20.1392 21.8431 27.0059 23.1897 33.7519C24.5363 40.4979 28.4294 46.3158 34.1517 50.1335C38.4009 52.9684 43.3346 54.4671 48.4201 54.4671C57.0612 54.4671 65.0794 50.1816 69.8684 43.0038C77.7498 31.1909 74.5513 15.1686 62.7386 7.28713C58.4895 4.45211 53.5557 2.95359 48.4703 2.95359Z" fill="#89072E"/>
<path d="M72.0779 100H53.5688C52.7532 100 52.092 99.3389 52.092 98.5233V77.234C52.092 76.7986 52.2842 76.3851 52.6176 76.1045L76.7904 55.7484C78.6665 54.1682 81.2885 53.903 83.4152 54.9682V35.9963C83.4152 32.4342 86.3131 29.5361 89.8752 29.5361C93.4374 29.5359 96.3353 32.4338 96.3353 35.996V68.6912C96.3353 69.1171 96.1515 69.522 95.8309 69.8026L73.5545 89.2948V98.5233C73.5547 99.3389 72.8935 100 72.0779 100ZM55.0454 97.0465H70.6009V88.6243C70.6009 88.1984 70.7847 87.7935 71.1053 87.5129L93.3817 68.0209V35.996C93.3817 34.0625 91.8087 32.4895 89.8752 32.4895C87.9418 32.4895 86.3688 34.0625 86.3688 35.996V58.2479C86.5992 58.86 86.7315 59.5123 86.7541 60.1817C86.8136 61.9532 86.0984 63.6564 84.7916 64.8541L71.652 76.8988C71.0509 77.4498 70.1167 77.4093 69.5652 76.8081C69.0142 76.2066 69.0547 75.2726 69.656 74.7214L82.7956 62.6766C83.4659 62.0625 83.8325 61.1891 83.8022 60.2806C83.7944 60.049 83.761 59.8214 83.7036 59.6013C83.5547 59.3998 83.4558 59.1591 83.4254 58.8977C83.23 58.5395 82.9638 58.219 82.6372 57.9576C81.4828 57.034 79.8241 57.0551 78.6929 58.0072L55.0456 77.9209V97.0465H55.0454Z" fill="#89072E"/>
<path d="M43.3216 100H24.8123C23.9967 100 23.3355 99.3388 23.3355 98.5232V89.2945L1.05912 69.8023C0.738653 69.522 0.554688 69.1169 0.554688 68.691V35.996C0.554898 32.4338 3.45279 29.5359 7.01502 29.5359C10.5773 29.5359 13.4752 32.4338 13.4752 35.996V54.968C15.6019 53.903 18.2237 54.1682 20.1 55.7481L44.273 76.1042C44.6064 76.3848 44.7986 76.7983 44.7986 77.2338V98.5232C44.7984 99.3388 44.1374 100 43.3216 100ZM26.2891 97.0464H41.8448V77.9211L18.1973 58.0074C17.0665 57.0549 15.4076 57.0342 14.253 57.9578C13.9264 58.219 13.6602 58.5395 13.465 58.8977C13.4344 59.1593 13.3355 59.4002 13.1865 59.6017C13.1294 59.8218 13.0958 60.0494 13.0882 60.2808C13.0576 61.1895 13.4245 62.0627 14.0946 62.6768L27.2342 74.7215C27.8355 75.2726 27.876 76.2068 27.3249 76.8083C26.7737 77.4095 25.8393 77.4498 25.2384 76.899L12.0988 64.8542C10.792 63.6564 10.0768 61.9534 10.1363 60.1819C10.1587 59.5123 10.291 58.8599 10.5216 58.2479V35.996C10.5216 34.0625 8.94857 32.4895 7.01502 32.4895C5.08148 32.4895 3.50848 34.0625 3.50848 35.996V68.0209L25.7849 87.5131C26.1053 87.7935 26.2893 88.1985 26.2893 88.6245V97.0464H26.2891Z" fill="#89072E"/>
<path d="M92.7489 100H4.14134C3.32573 100 2.66455 99.3388 2.66455 98.5232C2.66455 97.7076 3.32573 97.0464 4.14134 97.0464H92.7489C93.5646 97.0464 94.2257 97.7076 94.2257 98.5232C94.2257 99.3388 93.5646 100 92.7489 100Z" fill="#89072E"/>
<path d="M6.25089 21.941C3.10996 21.941 0.554688 19.3857 0.554688 16.2448C0.554688 13.1039 3.10996 10.5486 6.25089 10.5486C9.39182 10.5486 11.9471 13.1039 11.9471 16.2448C11.9471 19.3857 9.39182 21.941 6.25089 21.941ZM6.25089 13.5022C4.73865 13.5022 3.50827 14.7326 3.50827 16.2448C3.50827 17.757 4.73865 18.9874 6.25089 18.9874C7.76313 18.9874 8.99351 17.757 8.99351 16.2448C8.99351 14.7326 7.76313 13.5022 6.25089 13.5022Z" fill="#CA4353"/>
<path d="M91.6942 15.612C87.9716 15.612 84.9431 12.5835 84.9431 8.86092C84.9431 5.13834 87.9716 2.10986 91.6942 2.10986C95.4167 2.10986 98.4452 5.13834 98.4452 8.86092C98.4452 12.5835 95.4167 15.612 91.6942 15.612ZM91.6942 5.06345C89.6003 5.06345 87.8967 6.76704 87.8967 8.86092C87.8967 10.9548 89.6003 12.6584 91.6942 12.6584C93.7881 12.6584 95.4916 10.9548 95.4916 8.86092C95.4916 6.76704 93.7881 5.06345 91.6942 5.06345Z" fill="#CA4353"/>
</svg>
