<svg width="101" height="100" viewBox="0 0 101 100" fill="none" xmlns="http://www.w3.org/2000/svg">
<path d="M90.5 13.3333H41.531C40.9819 11.4011 39.7624 9.72771 38.0913 8.61326C37.7612 8.39316 37.3634 8.29803 36.9694 8.34496C36.5755 8.39189 36.2112 8.57782 35.9421 8.8693L31.8208 13.3333H20.5C17.8488 13.3363 15.307 14.3908 13.4323 16.2655C11.5576 18.1402 10.503 20.682 10.5 23.3333V29.996H0.5V33.3293H13.5185C14.8987 33.3276 16.2636 33.0411 17.5279 32.4877C18.7922 31.9342 19.9286 31.1257 20.866 30.1128L37.294 12.3189C37.9508 13.0876 38.3668 14.0327 38.4902 15.0362C38.6136 16.0398 38.4389 17.0575 37.9879 17.9624L32.3421 29.2506C32.1995 29.5356 32.1416 29.8556 32.1754 30.1726C32.2091 30.4896 32.3331 30.7902 32.5325 31.0389C32.732 31.2876 32.9985 31.4738 33.3006 31.5756C33.6027 31.6774 33.9276 31.6904 34.2369 31.6131L62.3969 24.5731C63.0249 24.4115 63.6912 24.5006 64.2546 24.8215C64.8181 25.1425 65.2346 25.6701 65.416 26.2927C65.5974 26.9153 65.5294 27.5841 65.2264 28.1574C64.9234 28.7308 64.4093 29.1637 63.7927 29.3647L46.8969 34.9968H43.8333V38.3301H71.3333C71.9964 38.3301 72.6323 38.5935 73.1011 39.0624C73.5699 39.5312 73.8333 40.1671 73.8333 40.8301C73.8333 41.4932 73.5699 42.1291 73.1011 42.5979C72.6323 43.0667 71.9964 43.3301 71.3333 43.3301H47.1667V46.6635H64.6667C65.3297 46.6635 65.9656 46.9269 66.4344 47.3957C66.9033 47.8645 67.1667 48.5004 67.1667 49.1635C67.1667 49.8265 66.9033 50.4624 66.4344 50.9312C65.9656 51.4001 65.3297 51.6635 64.6667 51.6635L47.1667 51.6666V54.9999H58C58.663 54.9999 59.2989 55.2633 59.7678 55.7322C60.2366 56.201 60.5 56.8369 60.5 57.4999C60.5 58.163 60.2366 58.7989 59.7678 59.2677C59.2989 59.7365 58.663 59.9999 58 59.9999H35.6042C27.0891 59.9963 18.7219 57.7743 11.3269 53.5528C11.0751 53.4089 10.79 53.3332 10.5 53.3333H0.5V56.6666H10.0612C10.2071 56.7483 10.3529 56.8276 10.5 56.9078V61.6666H0.5V64.9999H10.5C10.5024 67.0674 11.1444 69.0835 12.338 70.7716C13.5316 72.4597 15.2183 73.7372 17.1667 74.4287V74.9999C17.1696 77.6512 18.2242 80.193 20.0989 82.0677C21.9736 83.9424 24.5154 84.9969 27.1667 84.9999H90.5C93.1513 84.9969 95.6931 83.9424 97.5678 82.0677C99.4425 80.193 100.497 77.6512 100.5 74.9999V23.3333C100.497 20.682 99.4425 18.1402 97.5678 16.2655C95.6931 14.3908 93.1513 13.3362 90.5 13.3333ZM18.4167 27.8516C17.2274 29.1361 15.5818 29.9031 13.8333 29.9878V23.3333C13.8353 21.5658 14.5383 19.8712 15.7881 18.6214C17.038 17.3716 18.7325 16.6686 20.5 16.6666H28.7433L18.4167 27.8516ZM83.8333 56.6666H84.6667C85.3297 56.6666 85.9656 56.93 86.4344 57.3988C86.9033 57.8677 87.1667 58.5036 87.1667 59.1666C87.1667 59.8296 86.9033 60.4655 86.4344 60.9344C85.9656 61.4032 85.3297 61.6666 84.6667 61.6666H83.8333V56.6666ZM86.3333 53.3333H83.8333V48.3333H86.3333C86.9964 48.3333 87.6323 48.5967 88.1011 49.0655C88.5699 49.5343 88.8333 50.1702 88.8333 50.8333C88.8333 51.4963 88.5699 52.1322 88.1011 52.601C87.6323 53.0699 86.9964 53.3333 86.3333 53.3333ZM88 44.9999H83.8333V39.9999H88C88.663 39.9999 89.2989 40.2633 89.7678 40.7322C90.2366 41.201 90.5 41.8369 90.5 42.4999C90.5 43.163 90.2366 43.7989 89.7678 44.2677C89.2989 44.7365 88.663 44.9999 88 44.9999ZM83.8333 26.1116L84.9248 25.4856C85.2097 25.3197 85.5246 25.2119 85.8513 25.1682C86.178 25.1245 86.5102 25.1459 86.8286 25.2311C87.1471 25.3163 87.4455 25.4637 87.7068 25.6647C87.9681 25.8657 88.187 26.1163 88.3511 26.4023C88.5151 26.6882 88.6209 27.0038 88.6625 27.3308C88.7041 27.6578 88.6806 27.9898 88.5933 28.3077C88.5061 28.6256 88.3569 28.9231 88.1542 29.1831C87.9516 29.4431 87.6995 29.6604 87.4125 29.8226L83.8333 31.8749V26.1116ZM13.8333 64.9999V58.5818C20.6653 61.7093 28.0904 63.3298 35.6042 63.3333H58C58.9845 63.3335 59.9531 63.0845 60.8154 62.6094C61.6778 62.1344 62.4058 61.4487 62.9317 60.6164C63.4576 59.7841 63.7642 58.8322 63.8229 57.8494C63.8817 56.8667 63.6907 55.885 63.2677 54.996H64.6667C65.6508 54.9963 66.6191 54.7475 67.4812 54.2728C68.3434 53.7981 69.0713 53.1129 69.5973 52.2811C70.1233 51.4493 70.4302 50.4978 70.4894 49.5154C70.5487 48.533 70.3583 47.5516 69.936 46.6626H71.3333C72.8804 46.6626 74.3642 46.0481 75.4581 44.9541C76.5521 43.8601 77.1667 42.3764 77.1667 40.8293C77.1667 39.2822 76.5521 37.7985 75.4581 36.7045C74.3642 35.6105 72.8804 34.996 71.3333 34.996H57.4375L64.8471 32.5262C66.2781 32.0502 67.4691 31.0381 68.1698 29.7026C68.8704 28.3671 69.0263 26.8121 68.6047 25.3641C68.1831 23.916 67.2167 22.6877 65.9086 21.9371C64.6005 21.1865 63.0525 20.972 61.5896 21.3387L36.9452 27.4999L40.9694 19.4531C41.4066 18.5795 41.6886 17.6366 41.8027 16.6664H83.0544C81.4083 18.4966 80.4983 20.8717 80.5 23.3333V64.9999C80.498 66.7674 79.795 68.462 78.5452 69.7118C77.2954 70.9616 75.6008 71.6646 73.8333 71.6666H20.5C18.7325 71.6646 17.038 70.9616 15.7881 69.7118C14.5383 68.462 13.8353 66.7674 13.8333 64.9999ZM97.1667 74.9999C97.1647 76.7674 96.4617 78.462 95.2118 79.7118C93.962 80.9616 92.2675 81.6646 90.5 81.6666H27.1667C25.3992 81.6646 23.7046 80.9616 22.4548 79.7118C21.205 78.462 20.502 76.7674 20.5 74.9999H73.8333C76.4846 74.9969 79.0264 73.9424 80.9011 72.0677C82.7758 70.193 83.8304 67.6512 83.8333 64.9999H84.6667C85.738 65.0008 86.7888 64.7064 87.7038 64.149C88.6187 63.5916 89.3623 62.7928 89.8529 61.8404C90.3435 60.888 90.5621 59.8188 90.4847 58.7503C90.4073 57.6818 90.0369 56.6552 89.4142 55.7835C90.091 55.3635 90.6745 54.809 91.1285 54.1545C91.5826 53.4999 91.8974 52.7592 92.0536 51.978C92.2099 51.1969 92.2041 50.392 92.0368 49.6132C91.8695 48.8344 91.5441 48.0982 91.0808 47.4501C92.1573 46.7809 92.9865 45.7791 93.4427 44.5965C93.8989 43.4138 93.9573 42.1148 93.6091 40.896C93.2608 39.6772 92.525 38.605 91.5129 37.8419C90.5008 37.0787 89.2676 36.6661 88 36.6666H83.8333V35.7183L89.071 32.7141C90.3567 31.9748 91.3124 30.7735 91.7439 29.3546C92.1755 27.9358 92.0504 26.4058 91.3941 25.0758C90.7378 23.7459 89.5996 22.7159 88.2109 22.1952C86.8222 21.6746 85.2874 21.7024 83.9185 22.2731C84.1856 20.6188 85.0658 19.1258 86.3839 18.0912C87.7021 17.0567 89.3615 16.5564 91.0318 16.6901C92.7021 16.8238 94.2609 17.5815 95.3977 18.8126C96.5345 20.0436 97.1661 21.6576 97.1667 23.3333V74.9999Z" fill="#89072E"/>
<path d="M82.1667 88.3333H35.5V91.6666H82.1667V88.3333Z" fill="#CA4353"/>
<path d="M32.1666 88.3333H28.8333V91.6666H32.1666V88.3333Z" fill="#CA4353"/>
<path d="M97.1667 3.33333V0H93.8333V3.33333H90.5V6.66667H93.8333V10H97.1667V6.66667H100.5V3.33333H97.1667Z" fill="#CA4353"/>
<path d="M5.50008 13.3333H8.83341V9.99992H12.1667V6.66659H8.83341V3.33325H5.50008V6.66659H2.16675V9.99992H5.50008V13.3333Z" fill="#CA4353"/>
<path d="M7.16667 90H3.83333V93.3333H0.5V96.6667H3.83333V100H7.16667V96.6667H10.5V93.3333H7.16667V90Z" fill="#CA4353"/>
<path d="M95.4999 90H92.1666V93.3333H88.8333V96.6667H92.1666V100H95.4999V96.6667H98.8333V93.3333H95.4999V90Z" fill="#CA4353"/>
<path d="M7.16659 75H3.83325V78.3333H7.16659V75Z" fill="#CA4353"/>
<path d="M23.8333 95H20.5V98.3333H23.8333V95Z" fill="#CA4353"/>
<path d="M72.1666 95H68.8333V98.3333H72.1666V95Z" fill="#CA4353"/>
<path d="M82.1666 8.33325H78.8333V11.6666H82.1666V8.33325Z" fill="#CA4353"/>
<path d="M58.8333 3.33325H55.5V6.66659H58.8333V3.33325Z" fill="#CA4353"/>
<path d="M27.1666 1.66675H23.8333V5.00008H27.1666V1.66675Z" fill="#CA4353"/>
</svg>
