<?xml version="1.0" encoding="UTF-8" standalone="no"?>
<!-- Created with Inkscape (http://www.inkscape.org/) -->

<svg
   xmlns:dc="http://purl.org/dc/elements/1.1/"
   xmlns:cc="http://creativecommons.org/ns#"
   xmlns:rdf="http://www.w3.org/1999/02/22-rdf-syntax-ns#"
   xmlns:svg="http://www.w3.org/2000/svg"
   xmlns="http://www.w3.org/2000/svg"
   xmlns:sodipodi="http://sodipodi.sourceforge.net/DTD/sodipodi-0.dtd"
   xmlns:inkscape="http://www.inkscape.org/namespaces/inkscape"
   width="130.21063mm"
   height="25.400564mm"
   viewBox="0 0 130.21063 25.400564"
   version="1.1"
   id="svg8"
   inkscape:version="0.92.4 (5da689c313, 2019-01-14)"
   sodipodi:docname="Macadamian-logo-white.svg">
  <defs
     id="defs2" />
  <sodipodi:namedview
     id="base"
     pagecolor="#ffffff"
     bordercolor="#666666"
     borderopacity="1.0"
     inkscape:pageopacity="0.0"
     inkscape:pageshadow="2"
     inkscape:zoom="0.35"
     inkscape:cx="-139.49301"
     inkscape:cy="-163.76274"
     inkscape:document-units="mm"
     inkscape:current-layer="layer1"
     showgrid="false"
     fit-margin-top="0"
     fit-margin-left="0"
     fit-margin-right="0"
     fit-margin-bottom="0"
     inkscape:window-width="1920"
     inkscape:window-height="1017"
     inkscape:window-x="-8"
     inkscape:window-y="438"
     inkscape:window-maximized="1" />
  <metadata
     id="metadata5">
    <rdf:RDF>
      <cc:Work
         rdf:about="">
        <dc:format>image/svg+xml</dc:format>
        <dc:type
           rdf:resource="http://purl.org/dc/dcmitype/StillImage" />
        <dc:title></dc:title>
      </cc:Work>
    </rdf:RDF>
  </metadata>
  <g
     inkscape:label="Layer 1"
     inkscape:groupmode="layer"
     id="layer1"
     transform="translate(-47.531593,-109.67472)">
    <g
       transform="matrix(0.35277777,0,0,-0.35277777,47.531593,135.07528)"
       inkscape:label="ink_ext_XXXXXX"
       id="g823">
      <g
         transform="scale(0.1)"
         id="g825">
        <path
           inkscape:connector-curvature="0"
           id="path827"
           style="fill:#ffffff;fill-opacity:1;fill-rule:nonzero;stroke:none"
           d="m 824.039,342.301 c -14.719,0 -47.359,-1.289 -47.359,-22.403 0,-11.523 12.16,-16.964 22.718,-16.964 18.883,0 36.481,9.921 36.481,29.121 v 10.246 z m 11.84,-48.645 h -0.641 c -10.558,-16.64 -29.758,-23.359 -49.277,-23.359 -29.121,0 -55.359,16.641 -55.359,48 0,53.758 65.277,54.715 105.277,54.715 0,16.965 -14.078,27.843 -30.719,27.843 -15.683,0 -28.797,-7.042 -39.043,-18.562 l -25.594,26.242 c 17.598,16.641 43.2,24.961 68.477,24.961 56,0 71.039,-28.48 71.039,-80.324 v -79.035 h -44.16 v 19.519" />
        <path
           inkscape:connector-curvature="0"
           id="path829"
           style="fill:#ffffff;fill-opacity:1;fill-rule:nonzero;stroke:none"
           d="m 1161.64,379.414 c -4.8,6.719 -13.76,11.84 -23.69,11.84 -23.99,0 -38.39,-16 -38.39,-39.359 0,-23.364 14.4,-39.36 38.39,-39.36 10.57,0 18.25,5.438 23.69,11.844 l 31.68,-33.281 c -15.04,-15.36 -37.12,-20.801 -55.37,-20.801 -47.99,0 -86.39,32.004 -86.39,81.598 0,49.597 38.4,81.601 86.39,81.601 18.25,0 40.33,-5.445 55.37,-20.801 l -31.68,-33.281" />
        <path
           inkscape:connector-curvature="0"
           id="path831"
           style="fill:#ffffff;fill-opacity:1;fill-rule:nonzero;stroke:none"
           d="m 1442.59,342.301 c -14.71,0 -47.36,-1.289 -47.36,-22.403 0,-11.523 12.16,-16.964 22.73,-16.964 18.87,0 36.47,9.921 36.47,29.121 v 10.246 z m 11.84,-48.645 h -0.64 c -10.56,-16.64 -29.76,-23.359 -49.28,-23.359 -29.11,0 -55.35,16.641 -55.35,48 0,53.758 65.27,54.715 105.27,54.715 0,16.965 -14.08,27.843 -30.71,27.843 -15.69,0 -28.81,-7.042 -39.05,-18.562 l -25.6,26.242 c 17.6,16.641 43.21,24.961 68.48,24.961 56,0 71.04,-28.48 71.04,-80.324 v -79.035 h -44.16 v 19.519" />
        <path
           inkscape:connector-curvature="0"
           id="path833"
           style="fill:#ffffff;fill-opacity:1;fill-rule:nonzero;stroke:none"
           d="m 1755.55,391.254 c -24,0 -38.4,-16 -38.4,-39.359 0,-23.364 14.4,-39.36 38.4,-39.36 24,0 38.4,15.996 38.4,39.36 0,23.359 -14.4,39.359 -38.4,39.359 z m 82.56,-117.117 h -44.16 v 20.476 h -0.64 c -7.36,-11.199 -25.92,-24.316 -47.68,-24.316 -46.08,0 -76.47,33.281 -76.47,80.316 0,43.2 26.87,82.883 71.03,82.883 19.84,0 38.4,-5.445 49.28,-20.484 h 0.64 v 103.043 h 48 V 274.137" />
        <path
           inkscape:connector-curvature="0"
           id="path835"
           style="fill:#ffffff;fill-opacity:1;fill-rule:nonzero;stroke:none"
           d="m 2108.51,342.301 c -14.73,0 -47.37,-1.289 -47.37,-22.403 0,-11.523 12.17,-16.964 22.72,-16.964 18.88,0 36.48,9.921 36.48,29.121 v 10.246 z m 11.83,-48.645 h -0.64 c -10.55,-16.64 -29.75,-23.359 -49.28,-23.359 -29.12,0 -55.35,16.641 -55.35,48 0,53.758 65.27,54.715 105.27,54.715 0,16.965 -14.08,27.843 -30.72,27.843 -15.66,0 -28.79,-7.042 -39.02,-18.562 l -25.61,26.242 c 17.6,16.641 43.2,24.961 68.48,24.961 55.99,0 71.03,-28.48 71.03,-80.324 v -79.035 h -44.16 v 19.519" />
        <path
           inkscape:connector-curvature="0"
           id="path837"
           style="fill:#ffffff;fill-opacity:1;fill-rule:nonzero;stroke:none"
           d="m 2340.83,429.652 h 46.07 v -21.117 h 0.65 c 6.39,12.156 22.07,24.961 45.43,24.961 21.76,0 39.69,-8.961 48.01,-27.844 11.19,19.84 26.23,27.844 49.27,27.844 42.25,0 55.04,-29.762 55.04,-67.519 v -91.84 h -48.01 v 90.554 c 0,14.407 -5.42,26.563 -21.11,26.563 -22.09,0 -29.12,-15.68 -29.12,-34.879 v -82.238 h -48.01 v 82.238 c 0,11.52 0.65,34.879 -21.42,34.879 -24.96,0 -28.81,-19.52 -28.81,-39.676 v -77.441 h -47.99 v 155.515" />
        <path
           inkscape:connector-curvature="0"
           id="path839"
           style="fill:#ffffff;fill-opacity:1;fill-rule:nonzero;stroke:none"
           d="m 2766.1,429.652 h 47.99 V 274.137 h -47.99 z m 24.01,76.801 c 15.35,0 27.83,-12.48 27.83,-27.84 0,-15.363 -12.48,-27.843 -27.83,-27.843 -15.37,0 -27.85,12.48 -27.85,27.843 0,15.36 12.48,27.84 27.85,27.84" />
        <path
           inkscape:connector-curvature="0"
           id="path841"
           style="fill:#ffffff;fill-opacity:1;fill-rule:nonzero;stroke:none"
           d="m 3080.65,342.301 c -14.7,0 -47.36,-1.289 -47.36,-22.403 0,-11.523 12.17,-16.964 22.74,-16.964 18.86,0 36.46,9.921 36.46,29.121 v 10.246 z m 11.84,-48.645 h -0.62 c -10.57,-16.64 -29.77,-23.359 -49.28,-23.359 -29.12,0 -55.37,16.641 -55.37,48 0,53.758 65.27,54.715 105.27,54.715 0,16.965 -14.06,27.843 -30.7,27.843 -15.69,0 -28.81,-7.042 -39.04,-18.562 l -25.61,26.242 c 17.6,16.641 43.2,24.961 68.48,24.961 55.99,0 71.03,-28.48 71.03,-80.324 v -79.035 h -44.16 v 19.519" />
        <path
           inkscape:connector-curvature="0"
           id="path843"
           style="fill:#ffffff;fill-opacity:1;fill-rule:nonzero;stroke:none"
           d="m 3312.98,429.652 h 46.07 v -21.117 h 0.65 c 6.4,12.156 22.07,24.961 45.43,24.961 48.65,0 57.59,-32.004 57.59,-73.605 v -85.754 h -47.98 v 76.156 c 0,17.918 -0.32,40.961 -24.96,40.961 -24.96,0 -28.81,-19.52 -28.81,-39.676 v -77.441 h -47.99 v 155.515" />
        <path
           inkscape:connector-curvature="0"
           id="path845"
           style="fill:#ffffff;fill-opacity:1;fill-rule:nonzero;stroke:none"
           d="M 3676.01,15 H 630.758 V 274.137 H 391.32 v 90.554 c 0,14.407 -5.441,26.563 -21.121,26.563 -22.078,0 -29.121,-15.68 -29.121,-34.879 v -82.238 h -47.996 v 82.238 c 0,11.52 0.641,34.879 -21.441,34.879 -24.957,0 -28.797,-19.52 -28.797,-39.676 v -77.441 h -48 v 155.515 h 46.078 v -21.117 h 0.641 c 6.402,12.156 22.082,24.961 45.441,24.961 21.758,0 39.676,-8.961 47.996,-27.844 11.203,19.84 26.242,27.844 49.281,27.844 42.239,0 55.039,-29.762 55.039,-67.519 V 296.891 H 630.758 V 705.004 H 3676.01 Z M 0,720.016 V 0 H 3691.01 V 720.016 H 0" />
      </g>
    </g>
  </g>
</svg>
