<svg width="77" height="100" viewBox="0 0 77 100" fill="none" xmlns="http://www.w3.org/2000/svg">
<path d="M75.1667 0H8.50008C6.29071 0.00250998 4.17256 0.88129 2.6103 2.44355C1.04804 4.00581 0.169258 6.12397 0.166748 8.33333V91.6667C0.169258 93.876 1.04804 95.9942 2.6103 97.5564C4.17256 99.1187 6.29071 99.9975 8.50008 100H75.1667C75.6088 100 76.0327 99.8244 76.3453 99.5118C76.6578 99.1993 76.8334 98.7754 76.8334 98.3333V1.66667C76.8334 1.22464 76.6578 0.80072 76.3453 0.48816C76.0327 0.1756 75.6088 4.42019e-06 75.1667 0ZM73.5001 83.3333H65.1667V3.33333H73.5001V83.3333ZM73.5001 90H65.1667V86.6667H73.5001V90ZM8.50008 3.33333H51.8334V83.3333H8.50008C6.69596 83.3315 4.94048 83.9183 3.50008 85.0046V8.33333C3.50158 7.00771 4.02885 5.73681 4.9662 4.79945C5.90356 3.8621 7.17446 3.33483 8.50008 3.33333ZM3.78679 93.3333H18.5001V90H3.78679C4.13242 89.0259 4.77096 88.1827 5.61482 87.5859C6.45868 86.9891 7.46652 86.668 8.50008 86.6667H51.8334V90H23.5001V93.3333H51.8334V96.6667H8.50008C7.46652 96.6653 6.45868 96.3443 5.61482 95.7475C4.77096 95.1507 4.13242 94.3074 3.78679 93.3333ZM55.1667 96.6667V3.33333H61.8334V96.6667H55.1667ZM65.1667 96.6667V93.3333H73.5001V96.6667H65.1667Z" fill="#89072E"/>
<path d="M21.8333 70H15.1667C14.7246 70 14.3007 70.1756 13.9882 70.4882C13.6756 70.8007 13.5 71.2246 13.5 71.6667V78.3333C13.5 78.7754 13.6756 79.1993 13.9882 79.5118C14.3007 79.8244 14.7246 80 15.1667 80H21.8333C22.2754 80 22.6993 79.8244 23.0118 79.5118C23.3244 79.1993 23.5 78.7754 23.5 78.3333V71.6667C23.5 71.2246 23.3244 70.8007 23.0118 70.4882C22.6993 70.1756 22.2754 70 21.8333 70ZM20.1667 76.6667H16.8333V73.3333H20.1667V76.6667Z" fill="#CA4353"/>
<path d="M18.5002 16.6665H25.1668C25.6089 16.6665 26.0328 16.4909 26.3453 16.1783C26.6579 15.8658 26.8335 15.4419 26.8335 14.9998V8.33317C26.8335 7.89114 26.6579 7.46722 26.3453 7.15466C26.0328 6.8421 25.6089 6.66651 25.1668 6.6665H18.5002C18.0581 6.66651 17.6342 6.8421 17.3217 7.15466C17.0091 7.46722 16.8335 7.89114 16.8335 8.33317V14.9998C16.8335 15.4419 17.0091 15.8658 17.3217 16.1783C17.6342 16.4909 18.0581 16.6665 18.5002 16.6665ZM20.1668 9.99984H23.5002V13.3332H20.1668V9.99984Z" fill="#CA4353"/>
<path d="M24.1904 58.3333L28.0119 54.5119L25.6548 52.1548L21.8333 55.9762L18.0119 52.1548L15.6548 54.5119L19.4762 58.3333L15.6548 62.1548L18.0119 64.5119L21.8333 60.6904L25.6548 64.5119L28.0119 62.1548L24.1904 58.3333Z" fill="#CA4353"/>
<path d="M36.3454 29.5119L40.1668 25.6904L43.9883 29.5119L46.3454 27.1548L42.5239 23.3333L46.3454 19.5119L43.9883 17.1548L40.1668 20.9762L36.3454 17.1548L33.9883 19.5119L37.8097 23.3333L33.9883 27.1548L36.3454 29.5119Z" fill="#CA4353"/>
<path d="M40.1668 38.3335C39.1778 38.3335 38.2111 38.6267 37.3889 39.1761C36.5667 39.7256 35.9258 40.5064 35.5474 41.4201C35.1689 42.3337 35.0699 43.339 35.2628 44.3089C35.4557 45.2789 35.932 46.1698 36.6312 46.869C37.3305 47.5683 38.2214 48.0445 39.1913 48.2374C40.1612 48.4303 41.1665 48.3313 42.0802 47.9529C42.9938 47.5745 43.7747 46.9336 44.3241 46.1113C44.8735 45.2891 45.1667 44.3224 45.1667 43.3335C45.1653 42.0079 44.638 40.737 43.7006 39.7996C42.7633 38.8623 41.4924 38.335 40.1668 38.3335ZM40.1668 45.0002C39.8371 45.0002 39.5149 44.9024 39.2408 44.7193C38.9667 44.5361 38.7531 44.2758 38.627 43.9713C38.5008 43.6668 38.4678 43.3316 38.5321 43.0083C38.5964 42.685 38.7552 42.3881 38.9882 42.155C39.2213 41.9219 39.5183 41.7632 39.8416 41.6989C40.1649 41.6345 40.5 41.6676 40.8046 41.7937C41.1091 41.9198 41.3694 42.1335 41.5525 42.4075C41.7357 42.6816 41.8334 43.0039 41.8334 43.3335C41.8329 43.7754 41.6572 44.199 41.3447 44.5114C41.0323 44.8239 40.6086 44.9997 40.1668 45.0002Z" fill="#CA4353"/>
<path d="M15.655 41.1787C15.9675 41.4912 16.3914 41.6667 16.8334 41.6667C17.2754 41.6667 17.6994 41.4912 18.0119 41.1787L23.0119 36.1787C23.1667 36.0239 23.2895 35.8401 23.3733 35.6379C23.457 35.4357 23.5001 35.2189 23.5001 35.0001C23.5001 34.7812 23.457 34.5644 23.3733 34.3622C23.2895 34.16 23.1667 33.9762 23.0119 33.8215L18.0119 28.8215C17.6993 28.509 17.2754 28.3335 16.8334 28.3335C16.3915 28.3335 15.9676 28.509 15.655 28.8215L10.655 33.8215C10.5002 33.9762 10.3774 34.16 10.2936 34.3622C10.2099 34.5644 10.1667 34.7812 10.1667 35.0001C10.1667 35.2189 10.2099 35.4357 10.2936 35.6379C10.3774 35.8401 10.5002 36.0239 10.655 36.1787L15.655 41.1787ZM16.8334 32.357L19.4765 35.0001L16.8334 37.6431L14.1904 35.0001L16.8334 32.357Z" fill="#CA4353"/>
<path d="M23.5001 20H20.1668C20.1633 21.2762 20.413 22.5404 20.9014 23.7194C21.3897 24.8985 22.1071 25.9689 23.0119 26.8689L27.677 31.534C28.1321 31.9892 28.4932 32.5295 28.7396 33.1242C28.9859 33.7189 29.1127 34.3563 29.1127 35C29.1127 35.6437 28.9859 36.2811 28.7396 36.8758C28.4932 37.4705 28.1321 38.0108 27.677 38.466C26.8426 39.3003 26.1974 40.3041 25.7848 41.4095C25.3722 42.5149 25.202 43.6961 25.2856 44.873C25.3692 46.0499 25.7048 47.1952 26.2696 48.2311C26.8343 49.2671 27.6151 50.1696 28.559 50.8775L35.1668 55.8333V68.3333C35.1653 69.659 34.638 70.9298 33.7006 71.8672C32.7633 72.8046 31.4924 73.3318 30.1668 73.3333H26.8335V76.6667H30.1668C32.3762 76.6642 34.4943 75.7854 36.0566 74.2231C37.6188 72.6609 38.4976 70.5427 38.5001 68.3333V55C38.5001 54.7413 38.4398 54.4861 38.3241 54.2546C38.2084 54.0232 38.0405 53.8219 37.8335 53.6666L30.5589 48.2107C29.9971 47.7893 29.5324 47.2521 29.1962 46.6355C28.8601 46.0189 28.6604 45.3372 28.6106 44.6367C28.5608 43.9362 28.6621 43.2332 28.9077 42.5752C29.1533 41.9172 29.5373 41.3197 30.0339 40.8232C30.7987 40.0585 31.4053 39.1506 31.8192 38.1515C32.233 37.1523 32.446 36.0815 32.446 35C32.446 33.9185 32.233 32.8476 31.8192 31.8485C31.4053 30.8494 30.7987 29.9415 30.0339 29.1768L25.369 24.5119C24.7746 23.9208 24.3034 23.2176 23.9826 22.4432C23.6618 21.6687 23.4978 20.8383 23.5001 20Z" fill="#89072E"/>
</svg>
