<svg width="2593" height="865" viewBox="0 0 2593 865" fill="none" xmlns="http://www.w3.org/2000/svg">
<g clip-path="url(#clip0)">
<path d="M200.33 613.12L378.33 79.92H651.23C701.83 79.92 739.03 84.2867 762.83 93.02C786.63 101.753 802.797 117.953 811.33 141.62C819.83 165.22 818.397 194.02 807.03 228.02C797.13 257.62 782.43 283.12 762.63 304.62C742.909 326.018 719.504 343.699 693.53 356.82C676.73 365.32 655.197 372.353 628.93 377.92C646.23 384.52 658.23 391.02 664.93 397.62C669.53 402.02 675.13 411.32 681.83 425.72C688.53 440.12 692.43 451.02 693.73 458.82L721.53 613.12H536.53L503.48 450.12C499.48 429.02 494.08 415.32 487.58 409.02C478.48 400.82 466.58 396.62 451.58 396.62H437.18L364.88 613.12H200.33ZM470.73 295.92H539.73C547.23 295.92 562.43 293.52 585.53 288.62C597.13 286.42 607.83 280.82 617.73 271.92C627.181 263.599 634.284 252.944 638.33 241.02C644.13 223.82 643.03 210.62 635.33 201.42C627.63 192.22 608.73 187.62 578.83 187.62H506.93L470.73 295.92Z" fill="#E1251B"/>
<path d="M828.83 346.88C856.73 262.68 901.697 197.16 963.73 150.32C1025.76 103.48 1098.13 80.0467 1180.83 80.02C1265.73 80.02 1323.46 103.053 1354.03 149.12C1384.6 195.187 1386.13 259.72 1358.63 342.72C1338.63 403.02 1312.2 452.453 1279.33 491.02C1247.22 529.007 1207.36 559.693 1162.43 581.02C1117.33 602.52 1066.53 613.253 1010.03 613.22C952.53 613.22 907.997 603.953 876.43 585.42C844.864 566.887 824.064 537.553 814.03 497.42C803.83 457.393 808.764 407.213 828.83 346.88ZM986.13 347.58C968.83 399.68 965.964 437.08 977.53 459.78C989.03 482.58 1011.33 493.88 1044.33 493.88C1078.13 493.88 1108.03 482.747 1134.03 460.48C1160.03 438.213 1182.56 398.213 1201.63 340.48C1217.73 291.98 1219.83 256.513 1207.93 234.08C1196.03 211.68 1173.43 200.48 1140.33 200.48C1108.63 200.48 1079.23 211.88 1052.53 234.58C1025.63 257.48 1003.5 295.147 986.13 347.58Z" fill="#E1251B"/>
<path d="M1383.83 432.48L1537.43 423.08C1532.53 447.58 1532.83 466.28 1538.53 479.18C1547.93 499.98 1567.63 510.28 1597.93 510.28C1620.53 510.28 1639.63 504.98 1655.43 494.38C1671.23 483.78 1681.43 471.48 1686.13 457.48C1690.63 444.18 1688.73 432.28 1680.63 421.78C1672.53 411.28 1648.83 401.38 1609.63 391.98C1545.53 376.38 1503.03 355.58 1482.13 329.58C1461.03 303.68 1457.2 270.647 1470.63 230.48C1479.43 204.08 1495.4 179.147 1518.53 155.68C1541.66 132.213 1570.76 113.747 1605.83 100.28C1640.93 86.88 1685.13 80.18 1738.43 80.18C1803.83 80.18 1849.6 92.38 1875.73 116.78C1901.86 141.18 1909.26 180.013 1897.93 233.28L1745.93 241.98C1749.73 218.88 1747.03 202.08 1737.83 191.58C1728.63 181.08 1712.9 175.813 1690.63 175.78C1672.23 175.78 1657.03 179.68 1645.13 187.48C1633.23 195.28 1625.33 204.78 1621.63 215.98C1618.83 224.18 1620.23 231.48 1625.83 238.08C1631.03 244.88 1646.53 251.18 1672.53 256.98C1736.63 271.98 1781.1 287.113 1805.93 302.38C1830.76 317.647 1846.16 336.613 1852.13 359.28C1858.13 381.98 1856.53 407.28 1847.13 435.38C1836.13 468.28 1816.9 498.613 1789.43 526.38C1761.89 554.194 1728.72 575.779 1692.13 589.68C1654.73 604.08 1611.23 611.28 1561.63 611.28C1474.53 611.28 1419.86 594.447 1397.63 560.78C1375.63 527.08 1371.03 484.313 1383.83 432.48Z" fill="#E1251B"/>
<path d="M1896.93 432.48L2050.63 423.08C2045.63 447.58 2046 466.28 2051.73 479.18C2061.03 499.98 2080.83 510.28 2111.13 510.28C2133.73 510.28 2152.83 504.98 2168.63 494.38C2184.43 483.78 2194.63 471.48 2199.33 457.48C2203.73 444.18 2201.93 432.28 2193.83 421.78C2185.73 411.28 2162.03 401.38 2122.73 391.98C2058.63 376.38 2016.13 355.58 1995.23 329.58C1974.13 303.68 1970.3 270.647 1983.73 230.48C1992.53 204.08 2008.5 179.147 2031.63 155.68C2054.76 132.213 2083.86 113.747 2118.93 100.28C2154.03 86.88 2198.23 80.18 2251.53 80.18C2316.93 80.18 2362.7 92.38 2388.83 116.78C2414.96 141.18 2422.4 180.013 2411.13 233.28L2259.13 241.98C2262.93 218.88 2260.23 202.08 2251.03 191.58C2241.83 181.08 2226.06 175.813 2203.73 175.78C2185.33 175.78 2170.23 179.68 2158.23 187.48C2146.23 195.28 2138.43 204.78 2134.73 215.98C2131.93 224.18 2133.33 231.48 2138.83 238.08C2144.03 244.88 2159.6 251.18 2185.53 256.98C2249.63 271.98 2294.1 287.113 2318.93 302.38C2343.76 317.647 2359.16 336.613 2365.13 359.28C2371.23 381.98 2369.53 407.28 2360.13 435.38C2349.03 468.28 2329.93 498.68 2302.43 526.38C2274.91 554.211 2241.73 575.799 2205.13 589.68C2167.73 604.08 2124.26 611.28 2074.73 611.28C1987.73 611.28 1933.06 594.447 1910.73 560.78C1888.73 527.08 1884.13 484.313 1896.93 432.48Z" fill="#E1251B"/>
<path d="M2.48001 798.58C2.48001 798.58 -3.71999 789.88 3.68001 784.98C11.08 780.08 18.48 760.78 191.28 743.48C364.08 726.18 1849.58 715.18 2181.98 724.88C2373.28 730.48 2401.98 729.48 2412.28 731.38C2417.88 732.38 2420.08 742.18 2405.28 743.08C2390.48 743.98 1841.58 762.98 1283.68 781.48C896.38 794.28 500.78 804.58 284.08 825.78C185.58 835.48 137.08 849.98 117.98 863.28C116.735 864.17 115.255 864.674 113.725 864.727C112.196 864.781 110.684 864.382 109.38 863.58C104.63 860.88 2.48001 798.58 2.48001 798.58Z" fill="#E1251B"/>
<path d="M2468.33 38.68C2471.61 31.0857 2476.37 24.2193 2482.33 18.48C2488.28 12.719 2495.27 8.13818 2502.93 4.98C2518.57 -1.57389 2536.15 -1.71295 2551.89 4.59289C2567.62 10.8987 2580.25 23.1431 2587.03 38.68C2590.46 46.6349 2592.2 55.217 2592.13 63.88C2592.23 72.6752 2590.49 81.3944 2587.03 89.48C2583.73 97.0961 2579.01 104.018 2573.13 109.88C2567.3 115.698 2560.36 120.289 2552.73 123.38C2536.75 129.778 2518.91 129.778 2502.93 123.38C2495.25 120.268 2488.25 115.681 2482.33 109.88C2476.42 104.022 2471.67 97.1007 2468.33 89.48C2464.88 81.3912 2463.14 72.6742 2463.23 63.88C2463.09 55.2103 2464.83 46.6133 2468.33 38.68ZM2478.83 85.68C2481.38 92.1386 2485.15 98.046 2489.93 103.08C2494.69 108.039 2500.41 111.985 2506.73 114.68C2513.37 117.509 2520.52 118.939 2527.73 118.88C2534.85 118.94 2541.9 117.509 2548.43 114.68C2554.71 111.97 2560.38 108.04 2565.13 103.12C2569.95 98.1154 2573.72 92.2001 2576.23 85.72C2578.96 78.7457 2580.32 71.3095 2580.23 63.82C2580.31 56.4937 2578.95 49.223 2576.23 42.42C2573.68 36.0212 2569.91 30.1794 2565.13 25.22C2560.27 20.2211 2554.46 16.254 2548.03 13.5563C2541.6 10.8585 2534.7 9.4857 2527.73 9.52C2520.52 9.46081 2513.37 10.8906 2506.73 13.72C2500.41 16.3799 2494.7 20.2919 2489.93 25.22C2485.14 30.1725 2481.37 36.0161 2478.83 42.42C2476.12 49.2247 2474.76 56.4942 2474.83 63.82C2474.74 71.2964 2476.1 78.7193 2478.83 85.68ZM2531.73 26.68C2540.63 26.68 2547.23 28.48 2551.53 31.98C2555.83 35.48 2557.93 40.88 2557.93 48.08C2557.93 54.78 2556.03 59.78 2552.23 62.88C2548.19 66.099 2543.28 68.0477 2538.13 68.48L2559.53 101.58H2547.03L2526.63 69.38H2514.33V101.58H2502.63V26.68H2531.73ZM2526.63 59.88C2529.23 59.88 2531.73 59.78 2534.13 59.58C2536.3 59.4135 2538.42 58.9073 2540.43 58.08C2542.23 57.3085 2543.76 56.021 2544.83 54.38C2546.01 52.2805 2546.57 49.8857 2546.43 47.48C2546.53 45.3761 2546.01 43.2892 2544.93 41.48C2543.99 40.0383 2542.68 38.8774 2541.13 38.12C2539.47 37.2907 2537.67 36.7497 2535.83 36.52C2533.88 36.2418 2531.9 36.1081 2529.93 36.12H2514.53V59.92L2526.63 59.88Z" fill="#E1251B"/>
</g>
<defs>
<clipPath id="clip0">
<rect width="2592.14" height="864.73" fill="white"/>
</clipPath>
</defs>
</svg>
